<svg width="60" height="60" viewBox="0 0 60 60" fill="none" xmlns="http://www.w3.org/2000/svg">
<rect x="60" width="60" height="60" rx="30" transform="rotate(90 60 0)" fill="#ED484A"/>
<path d="M37.8401 26.9619L37.0386 26.1604C36.9318 26.0533 36.8087 26 36.6696 26C36.5309 26 36.4079 26.0533 36.3011 26.1604L30.0001 32.4611L23.6993 26.1605C23.5925 26.0535 23.4695 26.0002 23.3306 26.0002C23.1916 26.0002 23.0686 26.0535 22.9618 26.1605L22.1604 26.9621C22.0533 27.0689 22 27.1919 22 27.3309C22 27.4697 22.0535 27.5927 22.1604 27.6995L29.6313 35.1706C29.7381 35.2775 29.8612 35.3309 30.0001 35.3309C30.139 35.3309 30.2618 35.2775 30.3686 35.1706L37.8401 27.6995C37.9469 27.5926 38 27.4697 38 27.3309C38 27.1919 37.9469 27.0689 37.8401 26.9619Z" fill="white"/>
</svg>
