<svg width="60" height="60" viewBox="0 0 60 60" fill="none" xmlns="http://www.w3.org/2000/svg">
<rect x="0.5" y="59.5" width="59" height="59" rx="29.5" transform="rotate(-90 0.5 59.5)" stroke="#ED484A"/>
<path d="M22.1599 32.3692L22.9614 33.1707C23.0682 33.2777 23.1913 33.3311 23.3304 33.3311C23.4691 33.3311 23.5921 33.2777 23.6989 33.1707L29.9999 26.87L36.3007 33.1705C36.4075 33.2775 36.5305 33.3309 36.6694 33.3309C36.8084 33.3309 36.9314 33.2775 37.0382 33.1705L37.8396 32.369C37.9467 32.2622 38 32.1392 38 32.0002C38 31.8613 37.9465 31.7383 37.8396 31.6315L30.3687 24.1604C30.2619 24.0536 30.1388 24.0002 29.9999 24.0002C29.861 24.0002 29.7382 24.0536 29.6314 24.1604L22.1599 31.6315C22.0531 31.7384 22 31.8614 22 32.0002C22 32.1392 22.0531 32.2622 22.1599 32.3692Z" fill="#ED484A"/>
</svg>
