<svg width="16" height="16" viewBox="0 0 16 16" fill="none" xmlns="http://www.w3.org/2000/svg">
<g clip-path="url(#clip0_393_280735)">
<circle cx="8" cy="8" r="7.5" stroke="#282835"/>
<path d="M10.8009 4.44919L4.45117 10.8036L5.19952 11.5525L11.5493 5.19809L10.8009 4.44919Z" fill="#282835"/>
<path d="M5.88243 7.47097C6.75768 7.47097 7.46994 6.75819 7.46994 5.88231C7.46994 5.00642 6.75768 4.29364 5.88243 4.29364C5.00719 4.29364 4.29492 5.00642 4.29492 5.88231C4.29492 6.75819 5.00719 7.47097 5.88243 7.47097ZM5.88243 5.35275C6.17454 5.35275 6.4116 5.58999 6.4116 5.88231C6.4116 6.17462 6.17454 6.41186 5.88243 6.41186C5.59033 6.41186 5.35326 6.17462 5.35326 5.88231C5.35326 5.58999 5.59033 5.35275 5.88243 5.35275Z" fill="#282835"/>
<path d="M10.1168 8.53009C9.24156 8.53009 8.5293 9.24287 8.5293 10.1188C8.5293 10.9946 9.24156 11.7074 10.1168 11.7074C10.9921 11.7074 11.7043 10.9946 11.7043 10.1188C11.7043 9.24287 10.9921 8.53009 10.1168 8.53009ZM10.1168 10.6483C9.82471 10.6483 9.58764 10.4111 9.58764 10.1188C9.58764 9.82644 9.82471 9.5892 10.1168 9.5892C10.4089 9.5892 10.646 9.82644 10.646 10.1188C10.646 10.4111 10.4089 10.6483 10.1168 10.6483Z" fill="#282835"/>
</g>
<defs>
<clipPath id="clip0_393_280735">
<rect width="16" height="16" fill="white"/>
</clipPath>
</defs>
</svg>
