<svg width="402" height="80" viewBox="0 0 402 80" fill="none" xmlns="http://www.w3.org/2000/svg">
<g filter="url(#filter0_b_643_298291)">
<rect x="0.5" y="0.5" width="401" height="79" rx="39.5" stroke="white"/>
</g>
<mask id="mask0_643_298291" style="mask-type:alpha" maskUnits="userSpaceOnUse" x="0" y="0" width="402" height="80">
<rect x="1" y="1" width="400" height="78" rx="39" fill="#ED484A" stroke="black" stroke-width="2"/>
</mask>
<g mask="url(#mask0_643_298291)">
<path d="M293.913 51.8485C280.861 53.9284 272.764 55.0223 268.574 55.5718C264.396 56.1187 264.09 56.1187 266.573 55.7027L305.352 49.5041L332.633 45.126L356.148 41.1382C369.07 38.9504 375.002 38.139 364.892 40.1548C344.732 43.6572 329.443 46.1968 317.969 47.8633C306.494 49.5272 298.891 50.8393 293.936 51.8254" stroke="black"/>
<path d="M60 37C59.4506 36.4409 56.2763 34.4776 50.4248 31.2189L39.6942 25.3492L25 17C26.0901 18.2068 37.7495 25.5009 60 37Z" stroke="black"/>
<path d="M355.97 9.04083C347.985 13.1949 333.706 19.8978 321.697 24.6381L313.253 27.9002L306.463 30.2703L302.139 31.7261C301.199 31.9854 300.804 32.0767 301.093 31.9298L313.316 27.5508L322.559 23.8599C328.439 21.3998 334.5 18.8602 344.994 13.9849C350.487 11.4785 356.414 8.62397 355.977 9.04083" stroke="black"/>
<path d="M47.0538 12.0763C61.2817 19.8426 86.7231 32.3741 108.122 41.2364L123.168 47.3351L135.265 51.7663L142.97 54.4879C144.646 54.9728 145.35 55.1435 144.834 54.8688L123.054 46.682L106.586 39.7816C96.1078 35.1822 85.31 30.4344 66.6106 21.3197C56.8234 16.6337 46.2618 11.297 47.0406 12.0763" stroke="black"/>
<path d="M238.004 70.9647C240.97 70.6012 247.861 69.7756 257.578 68.7186L274.092 66.745C277.147 66.3946 280.346 65.9753 283.664 65.5412L293.971 64.2044C322.352 60.4885 357.446 54.8541 390.288 48.5763C397.4 47.3445 393.785 48.1914 383.762 50.1305L375.12 51.8374C371.887 52.4677 368.318 53.0766 364.486 53.7692L352.267 55.925L338.854 58.144C320.368 61.0966 299.835 64.0927 281.582 66.297C277.019 66.8993 272.592 67.3605 268.382 67.8578C264.167 68.3543 260.165 68.8163 256.443 69.1872C248.995 69.9291 242.669 70.5872 238 71" stroke="black"/>
<path d="M373.119 13.8504C374.763 13.1195 375.253 12.8679 374.884 13.0642C374.512 13.2605 373.28 13.8974 371.47 14.7545L364.613 17.985L356.015 21.7417L347.413 25.2163L340.535 27.8182C336.912 29.0993 335.592 29.4763 338.887 28.2578L348.014 24.8781L353.485 22.6385L356.388 21.4357L360.219 19.7536L365.595 17.3951L373.125 13.8734" stroke="black"/>
<path d="M36.3059 14.1791C32.5423 12.3062 31.4207 11.6615 32.2663 12.1645C33.1162 12.6676 35.9378 14.2996 40.0826 16.496L55.781 24.774L75.4664 34.4005L95.1606 43.3044L110.907 49.9716C119.201 53.2545 122.224 54.2205 114.68 51.0982L93.7849 42.4376L81.2586 36.6985L74.6121 33.6164L65.8406 29.3062L53.5333 23.2624L36.2927 14.2381" stroke="black"/>
<path d="M328 39.9529V39.5666L342.386 33.6998C346.671 31.9962 350.444 30.3095 353.761 28.8791C360.389 25.9693 365.174 23.9452 368.424 22.4489C374.912 19.4769 375.252 19.4449 371.932 21.0995C365.299 24.603 344.019 33.958 328.016 40" stroke="black"/>
<path d="M70 52.9388V52.4365L53.1119 44.8098C48.0817 42.595 43.6522 40.4023 39.7592 38.5428C31.9778 34.7601 26.3606 32.1288 22.5455 30.1835C14.9292 26.3199 14.5303 26.2783 18.4279 28.4294C26.2139 32.9839 51.1952 45.1454 69.9816 53" stroke="black"/>
</g>
<defs>
<filter id="filter0_b_643_298291" x="-33.13" y="-33.13" width="468.26" height="146.26" filterUnits="userSpaceOnUse" color-interpolation-filters="sRGB">
<feFlood flood-opacity="0" result="BackgroundImageFix"/>
<feGaussianBlur in="BackgroundImageFix" stdDeviation="16.565"/>
<feComposite in2="SourceAlpha" operator="in" result="effect1_backgroundBlur_643_298291"/>
<feBlend mode="normal" in="SourceGraphic" in2="effect1_backgroundBlur_643_298291" result="shape"/>
</filter>
</defs>
</svg>
