<svg width="470" height="679" viewBox="0 0 470 679" fill="none" xmlns="http://www.w3.org/2000/svg">
<path d="M0 16C0 7.16343 7.16344 0 16 0H454C462.837 0 470 7.16344 470 16V663C470 671.837 462.837 679 454 679H16C7.16344 679 0 671.837 0 663V16Z" fill="#282835"/>
<path d="M0 16C0 7.16343 7.16344 0 16 0H454C462.837 0 470 7.16344 470 16V663C470 671.837 462.837 679 454 679H16C7.16344 679 0 671.837 0 663V16Z" fill="url(#paint0_linear_643_299357)"/>
<path d="M52.6137 635.363C53.2038 634.874 53.8283 634.427 54.4824 634.027L445.654 394.884C456.316 388.366 470 396.039 470 408.535V663C470 671.837 462.837 679 454 679H44.3545C29.3711 679 22.6074 660.25 34.1402 650.685L52.6137 635.363Z" fill="url(#paint1_linear_643_299357)" fill-opacity="0.1"/>
<defs>
<linearGradient id="paint0_linear_643_299357" x1="0" y1="0" x2="470" y2="679" gradientUnits="userSpaceOnUse">
<stop stop-color="#D63A3A"/>
<stop offset="1" stop-color="#D63A3A" stop-opacity="0.79"/>
</linearGradient>
<linearGradient id="paint1_linear_643_299357" x1="197" y1="543" x2="470" y2="679" gradientUnits="userSpaceOnUse">
<stop stop-color="white"/>
<stop offset="1" stop-color="white" stop-opacity="0"/>
</linearGradient>
</defs>
</svg>
