<svg width="12" height="9" viewBox="0 0 12 9" fill="none" xmlns="http://www.w3.org/2000/svg">
<path d="M0.515421 0.0899267L0.0859383 0.540797C0.0285856 0.600875 -3.64112e-07 0.670082 -3.60692e-07 0.748322C-3.57281e-07 0.826373 0.0285857 0.895549 0.0859383 0.955626L3.46219 4.49995L0.086029 8.04412C0.0286763 8.10423 9.0186e-05 8.1734 9.01894e-05 8.25155C9.01928e-05 8.32973 0.0286763 8.3989 0.086029 8.45898L0.515542 8.90979C0.572774 8.96999 0.638673 9 0.713147 9C0.787561 9 0.853459 8.9699 0.910691 8.90979L4.91412 4.70738C4.97138 4.6473 5 4.5781 5 4.49995C5 4.42181 4.97138 4.35273 4.91412 4.29268L0.910691 0.0899267C0.853429 0.029849 0.78753 -3.44241e-08 0.713146 -3.11726e-08C0.638672 -2.79173e-08 0.572774 0.029849 0.515421 0.0899267Z" fill="#282835"/>
<path d="M7.51542 0.0899267L7.08594 0.540797C7.02859 0.600875 7 0.670082 7 0.748322C7 0.826373 7.02859 0.895549 7.08594 0.955626L10.4622 4.49995L7.08603 8.04412C7.02868 8.10423 7.00009 8.1734 7.00009 8.25155C7.00009 8.32973 7.02868 8.3989 7.08603 8.45898L7.51554 8.90979C7.57277 8.96999 7.63867 9 7.71315 9C7.78756 9 7.85346 8.9699 7.91069 8.90979L11.9141 4.70738C11.9714 4.6473 12 4.5781 12 4.49995C12 4.42181 11.9714 4.35273 11.9141 4.29268L7.91069 0.0899267C7.85343 0.029849 7.78753 -3.44241e-08 7.71315 -3.11726e-08C7.63867 -2.79173e-08 7.57277 0.029849 7.51542 0.0899267Z" fill="#282835"/>
</svg>
