<svg width="282" height="80" viewBox="0 0 282 80" fill="none" xmlns="http://www.w3.org/2000/svg">
<rect x="0.5" y="0.5" width="281" height="79" rx="39.5" stroke="#ED484A"/>
<path d="M206.377 51.8485C197.178 53.9284 191.472 55.0223 188.519 55.5718C185.574 56.1187 185.359 56.1187 187.109 55.7027L233.665 45.126L250.237 41.1382C259.345 38.9504 263.525 38.139 256.4 40.1548C242.192 43.6572 231.417 46.1968 223.33 47.8633C215.243 49.5272 209.885 50.8393 206.393 51.8254M249.984 9.04083C245.628 13.1949 237.84 19.8978 231.289 24.6381L226.683 27.9002L222.98 30.2703L220.621 31.7261C220.108 31.9854 219.893 32.0767 220.051 31.9298L226.718 27.5508L231.759 23.8599C234.967 21.3998 238.272 18.8602 243.997 13.9849C246.993 11.4785 250.226 8.62397 249.988 9.04083M11.034 34.0746C20.0354 41.6602 36.131 53.9003 49.669 62.5565L59.188 68.5134L66.8414 72.8415L71.7157 75.4998C72.7758 75.9734 73.2215 76.1401 72.8949 75.8719L59.116 67.8754L48.6974 61.1355C42.0682 56.6431 35.2369 52.0056 23.4067 43.1029C17.2148 38.5259 10.533 33.3133 11.0257 34.0746M195.002 70.9647C196.561 70.6012 200.183 69.7756 205.291 68.7186L213.971 66.745C215.577 66.3946 217.259 65.9753 219.003 65.5412L224.421 64.2044C239.339 60.4885 257.786 54.8541 275.049 48.5763C278.787 47.3445 276.887 48.1914 271.618 50.1305L267.076 51.8374C265.377 52.4677 263.501 53.0766 261.486 53.7692L255.063 55.925L248.013 58.144C238.296 61.0966 227.503 64.0927 217.909 66.297C215.51 66.8993 213.183 67.3605 210.97 67.8578C208.755 68.3543 206.651 68.8163 204.695 69.1872C200.78 69.9291 197.454 70.5872 195 71M261.713 13.8504C262.838 13.1195 263.173 12.8679 262.92 13.0642C262.666 13.2605 261.823 13.8974 260.585 14.7545L255.893 17.985L250.01 21.7417L244.124 25.2163L239.419 27.8182C236.94 29.0993 236.036 29.4763 238.291 28.2578L244.536 24.8781L248.279 22.6385L250.265 21.4357L256.565 17.3951L261.717 13.8734M25.0685 15.126C22.3864 13.2988 21.5871 12.6697 22.1897 13.1605C22.7955 13.6513 24.8063 15.2435 27.76 17.3863L38.9473 25.4624L52.9761 34.8542L67.011 43.5409L78.2327 50.0455C84.1433 53.2483 86.2977 54.1907 80.9211 51.1446L66.0306 42.6952L57.1038 37.0961L52.3672 34.0892L37.3456 23.9877L25.0592 15.1835M230 39.9529V39.5666L240.008 33.6998C242.989 31.9962 245.613 30.3095 247.92 28.8791C252.532 25.9693 255.86 23.9452 258.121 22.4489C262.635 19.4769 262.871 19.4449 260.561 21.0995C255.947 24.603 241.144 33.958 230.011 40M49 53.9341V53.3932L37.4285 45.1798C33.9819 42.7946 30.9469 40.4333 28.2795 38.4307C22.9477 34.357 19.0989 31.5233 16.4849 29.4284C11.2663 25.2676 10.993 25.2228 13.6635 27.5393C18.9984 32.4442 36.1152 45.5412 48.9874 54M42 38C41.6233 37.4409 39.4466 35.4776 35.4342 32.2189L28.076 26.3492L18 18C18.7475 19.2068 26.7425 26.5009 42 38Z" stroke="black"/>
<mask id="mask0_141_534" style="mask-type:alpha" maskUnits="userSpaceOnUse" x="0" y="0" width="282" height="80">
<rect x="1" y="1" width="280" height="78" rx="39" fill="#ED484A" stroke="black" stroke-width="2"/>
</mask>
<g mask="url(#mask0_141_534)">
</g>
</svg>
