<svg width="422" height="80" viewBox="0 0 422 80" fill="none" xmlns="http://www.w3.org/2000/svg">
<rect x="0.5" y="0.5" width="421" height="79" rx="39.5" stroke="white"/>
<mask id="mask0_141_257" style="mask-type:alpha" maskUnits="userSpaceOnUse" x="0" y="0" width="422" height="80">
<rect x="1" y="1" width="420" height="78" rx="39" fill="#ED484A" stroke="black" stroke-width="2"/>
</mask>
<g mask="url(#mask0_141_257)">
<path d="M308.29 51.8485C294.616 53.9284 286.133 55.0223 281.744 55.5718C277.367 56.1187 277.047 56.1187 279.648 55.7027L320.274 49.5041L348.854 45.126L373.488 41.1382C387.026 38.9504 393.24 38.139 382.649 40.1548C361.528 43.6572 345.512 46.1968 333.491 47.8633C321.47 49.5272 313.505 50.8393 308.314 51.8254" stroke="white"/>
<path d="M87 63C86.4506 62.4409 83.2763 60.4776 77.4248 57.2189L66.6942 51.3492L52 43C53.0901 44.2068 64.7495 51.5009 87 63Z" stroke="white"/>
<path d="M382.968 9.04083C374.548 13.1949 359.49 19.8978 346.826 24.6381L337.921 27.9002L330.761 30.2703L326.201 31.7261C325.21 31.9854 324.793 32.0767 325.098 31.9298L337.988 27.5508L347.735 23.8599C353.936 21.3998 360.327 18.8602 371.394 13.9849C377.186 11.4785 383.437 8.62397 382.976 9.04083" stroke="white"/>
<path d="M250.004 70.9647C253.122 70.6012 260.367 69.7756 270.582 68.7186L287.943 66.745C291.154 66.3946 294.518 65.9753 298.006 65.5412L308.842 64.2044C338.678 60.4885 375.572 54.8541 410.098 48.5763C417.575 47.3445 413.774 48.1914 403.237 50.1305L394.152 51.8374C390.753 52.4677 387.001 53.0766 382.972 53.7692L370.127 55.925L356.026 58.144C336.592 61.0966 315.006 64.0927 295.817 66.297C291.02 66.8993 286.366 67.3605 281.94 67.8578C277.509 68.3543 273.302 68.8163 269.389 69.1872C261.559 69.9291 254.909 70.5872 250 71" stroke="white"/>
<path d="M371.119 25.8504C372.763 25.1195 373.253 24.8679 372.884 25.0642C372.512 25.2605 371.28 25.8974 369.47 26.7545L362.613 29.985L354.015 33.7417L345.413 37.2163L338.535 39.8182C334.912 41.0993 333.592 41.4763 336.887 40.2578L346.014 36.8781L351.485 34.6385L354.388 33.4357L358.219 31.7536L363.595 29.3951L371.125 25.8734" stroke="white"/>
<path d="M29.4543 11.1791C25.561 9.30622 24.4007 8.66147 25.2754 9.16452C26.1547 9.66758 29.0736 11.2996 33.3613 13.496L49.601 21.774L69.9653 31.4005L90.3386 40.3044L106.628 46.9716C115.208 50.2545 118.335 51.2205 110.531 48.0982L88.9154 39.4376L75.9571 33.6985L69.0815 30.6164L60.0075 26.3062L47.2759 20.2624L29.4407 11.2381" stroke="white"/>
<path d="M345 39.9529V39.5666L359.699 33.6998C364.077 31.9962 367.932 30.3095 371.321 28.8791C378.093 25.9693 382.982 23.9452 386.303 22.4489C392.932 19.4769 393.279 19.4449 389.887 21.0995C383.11 24.603 361.367 33.958 345.016 40" stroke="white"/>
<path d="M76 68.9388V68.4365L58.1737 60.8098C52.8641 58.595 48.1885 56.4023 44.0792 54.5428C35.8654 50.7601 29.9362 48.1288 25.9092 46.1835C17.8697 42.3199 17.4486 42.2783 21.5627 44.4294C29.7813 48.9839 56.1505 61.1454 75.9806 69" stroke="white"/>
</g>
</svg>
