<svg width="441" height="80" viewBox="0 0 441 80" fill="none" xmlns="http://www.w3.org/2000/svg">
<rect x="0.5" y="0.5" width="439.173" height="79" rx="39.5" stroke="#ED484A"/>
<mask id="mask0_148_891" style="mask-type:alpha" maskUnits="userSpaceOnUse" x="0" y="0" width="440" height="80">
<rect x="1" y="1" width="438" height="78" rx="39" fill="#ED484A" stroke="black" stroke-width="2"/>
</mask>
<g mask="url(#mask0_148_891)">
<path d="M345.13 48.0695C334.689 49.5377 328.211 50.3098 324.859 50.6977C321.517 51.0838 321.272 51.0838 323.259 50.7901L354.282 46.4146L376.106 43.3242L394.918 40.5093C405.256 38.965 410.001 38.3923 401.914 39.8151C385.785 42.2874 373.555 44.0801 364.375 45.2564C355.195 46.431 349.113 47.3572 345.149 48.0532" stroke="black"/>
<path d="M65 37C64.3878 36.4409 60.8508 34.4776 54.3305 31.2189L42.3735 25.3492L26 17C27.2146 18.2068 40.2066 25.5009 65 37Z" stroke="black"/>
<path d="M389.979 9.03373C384.316 12.4653 374.192 18.0025 365.676 21.9184L359.688 24.6132L354.874 26.5712L351.808 27.7737C351.141 27.988 350.861 28.0634 351.066 27.942L359.733 24.3246L366.287 21.2756C370.457 19.2433 374.754 17.1454 382.196 13.118C386.091 11.0474 390.294 8.68936 389.984 9.03373" stroke="black"/>
<path d="M17.0538 33.0763C31.2817 40.8426 56.7231 53.3741 78.122 62.2364L93.1681 68.3351L105.265 72.7663L112.97 75.4879C114.646 75.9728 115.35 76.1435 114.834 75.8688L93.0543 67.682L76.5863 60.7816C66.1078 56.1822 55.31 51.4344 36.6106 42.3197C26.8234 37.6337 16.2618 32.297 17.0406 33.0763" stroke="black"/>
<path d="M320.003 71.9632C322.151 71.5838 327.143 70.7224 334.181 69.6195L346.144 67.56C348.356 67.1944 350.674 66.7568 353.077 66.3038L360.543 64.9089C381.101 61.0315 406.522 55.1521 430.311 48.6013C435.463 47.316 432.844 48.1997 425.584 50.2232L419.324 52.0043C416.982 52.6619 414.397 53.2973 411.621 54.02L402.77 56.2696L393.055 58.585C379.664 61.666 364.79 64.7924 351.569 67.0925C348.264 67.721 345.057 68.2023 342.007 68.7212C338.955 69.2393 336.056 69.7214 333.36 70.1084C327.965 70.8825 323.382 71.5693 320 72" stroke="black"/>
<path d="M408.872 13.8504C410.732 13.1195 411.286 12.8679 410.868 13.0642C410.448 13.2605 409.054 13.8974 407.005 14.7545L399.246 17.985L389.517 21.7417L379.783 25.2163L372 27.8182C367.901 29.0993 366.406 29.4763 370.135 28.2578L380.463 24.8781L386.654 22.6385L389.939 21.4357L394.274 19.7536L400.357 17.3951L408.878 13.8734" stroke="black"/>
<path d="M37.5635 14.8071C34.4488 13.2539 33.5205 12.7193 34.2203 13.1364C34.9238 13.5536 37.2589 14.9069 40.689 16.7284L53.6808 23.593L69.9722 31.576L86.2708 38.9597L99.3025 44.4887C106.166 47.211 108.668 48.0121 102.424 45.4229L85.1323 38.2409L74.7657 33.4817L69.2652 30.9258L62.006 27.3515L51.8207 22.3396L37.5526 14.856" stroke="black"/>
<path d="M358 39.9529V39.5666L373.95 33.6998C378.701 31.9962 382.884 30.3095 386.561 28.8791C393.91 25.9693 399.215 23.9452 402.818 22.4489C410.011 19.4769 410.388 19.4449 406.707 21.0995C399.354 24.603 375.76 33.958 358.017 40" stroke="black"/>
<path d="M77 52.9341V52.3932L58.861 44.1798C53.4582 41.7946 48.7005 39.4333 44.5192 37.4307C36.1613 33.357 30.1281 30.5233 26.0304 28.4284C17.8499 24.2676 17.4214 24.2228 21.6077 26.5393C29.9705 31.4442 56.8022 44.5412 76.9803 53" stroke="black"/>
</g>
</svg>
