<svg width="305" height="80" viewBox="0 0 305 80" fill="none" xmlns="http://www.w3.org/2000/svg">
<rect x="0.5" y="0.5" width="303.735" height="79" rx="39.5" stroke="#ED484A"/>
<mask id="mask0_641_85567" style="mask-type:alpha" maskUnits="userSpaceOnUse" x="1" y="0" width="303" height="80">
<rect x="2" y="1" width="301" height="78" rx="39" fill="#ED484A" stroke="black" stroke-width="2"/>
</mask>
<g mask="url(#mask0_641_85567)">
<path d="M222.753 51.8485C212.933 53.9284 206.841 55.0223 203.689 55.5718C200.545 56.1187 200.315 56.1187 202.184 55.7027L231.36 49.5041L251.886 45.126L269.578 41.1382C279.3 38.9504 283.763 38.139 276.157 40.1548C260.989 43.6572 249.486 46.1968 240.853 47.8633C232.219 49.5272 226.499 50.8393 222.771 51.8254" stroke="black"/>
<path d="M46 38C45.6076 37.4409 43.3402 35.4776 39.1606 32.2189L31.4958 26.3492L21 18C21.7786 19.2068 30.1068 26.5009 46 38Z" stroke="black"/>
<path d="M268.978 9.04083C263.025 13.1949 252.381 19.8978 243.429 24.6381L237.134 27.9002L232.073 30.2703L228.849 31.7261C228.148 31.9854 227.854 32.0767 228.07 31.9298L237.181 27.5508L244.071 23.8599C248.455 21.3998 252.972 18.8602 260.796 13.9849C264.89 11.4785 269.309 8.62397 268.983 9.04083" stroke="black"/>
<path d="M37.04 12.0746C47.6384 19.6602 66.5897 31.9003 82.5296 40.5565L93.7375 46.5134L102.749 50.8415L108.488 53.4998C109.736 53.9734 110.261 54.1401 109.876 53.8719L93.6527 45.8754L81.3857 39.1355C73.5803 34.6431 65.537 30.0056 51.6079 21.1029C44.3174 16.5259 36.4501 11.3133 37.0303 12.0746" stroke="black"/>
<path d="M181.003 70.9647C183.227 70.6012 188.396 69.7756 195.683 68.7186L208.069 66.745C210.36 66.3946 212.76 65.9753 215.248 65.5412L222.979 64.2044C244.264 60.4885 270.585 54.8541 295.216 48.5763C300.55 47.3445 297.838 48.1914 290.322 50.1305L283.84 51.8374C281.415 52.4677 278.739 53.0766 275.865 53.7692L266.7 55.925L256.641 58.144C242.776 61.0966 227.376 64.0927 213.687 66.297C210.265 66.8993 206.944 67.3605 203.786 67.8578C200.625 68.3543 197.624 68.8163 194.832 69.1872C189.247 69.9291 184.502 70.5872 181 71" stroke="black"/>
<path d="M281.614 13.8504C282.825 13.1195 283.186 12.8679 282.914 13.0642C282.641 13.2605 281.733 13.8974 280.399 14.7545L275.346 17.985L269.011 21.7417L262.672 25.2163L257.605 27.8182C254.935 29.0993 253.962 29.4763 256.39 28.2578L263.115 24.8781L267.147 22.6385L269.286 21.4357L272.109 19.7536L276.07 17.3951L281.618 13.8734" stroke="black"/>
<path d="M28.217 14.1791C25.4051 12.3062 24.5672 11.6615 25.1989 12.1645C25.834 12.6676 27.942 14.2996 31.0387 16.496L42.7674 24.774L57.4749 34.4005L72.189 43.3044L83.9537 49.9716C90.1503 53.2545 92.4089 54.2205 86.7721 51.0982L71.1611 42.4376L61.8024 36.6985L56.8366 33.6164L50.2832 29.3062L41.0881 23.2624L28.2072 14.2381" stroke="black"/>
<path d="M249 39.9529V39.5666L259.32 33.6998C262.394 31.9962 265.101 30.3095 267.48 28.8791C272.236 25.9693 275.669 23.9452 278 22.4489C282.654 19.4769 282.898 19.4449 280.516 21.0995C275.758 24.603 260.492 33.958 249.011 40" stroke="black"/>
<path d="M54 52.9388V52.4365L41.1776 44.8098C37.3584 42.595 33.9952 40.4023 31.0394 38.5428C25.1313 34.7601 20.8664 32.1288 17.9698 30.1835C12.187 26.3199 11.8841 26.2783 14.8434 28.4294C20.755 32.9839 39.7223 45.1454 53.9861 53" stroke="black"/>
</g>
</svg>
