<svg width="317" height="60" viewBox="0 0 317 60" fill="none" xmlns="http://www.w3.org/2000/svg">
<rect x="0.5" y="0.5" width="316" height="59" rx="29.5" stroke="#ED484A"/>
<mask id="mask0_193_1356" style="mask-type:alpha" maskUnits="userSpaceOnUse" x="0" y="0" width="317" height="60">
<rect x="1" y="1" width="315" height="58" rx="29" fill="#ED484A" stroke="black" stroke-width="2"/>
</mask>
<g mask="url(#mask0_193_1356)">
<path d="M231.855 38.8253C221.538 40.4158 215.137 41.2523 211.825 41.6725C208.522 42.0908 208.281 42.0908 210.244 41.7727L240.897 37.0325L262.462 33.6846L281.05 30.6351C291.265 28.9621 295.954 28.3416 287.962 29.883C272.026 32.5614 259.941 34.5034 250.87 35.7778C241.8 37.0502 235.79 38.0536 231.873 38.8076" stroke="black"/>
<path d="M47 28C46.5762 27.5806 44.1275 26.1082 39.6134 23.6642L31.3355 19.2619L20 13C20.8409 13.9051 29.8353 19.3757 47 28Z" stroke="black"/>
<path d="M280.976 7.03018C274.588 10.1006 263.165 15.0549 253.557 18.5586L246.802 20.9697L241.371 22.7216L237.911 23.7975C237.159 23.9892 236.843 24.0567 237.075 23.9481L246.853 20.7115L254.247 17.9834C258.952 16.1651 263.8 14.288 272.195 10.6845C276.589 8.83191 281.331 6.72206 280.982 7.03018" stroke="black"/>
<path d="M37.0422 9.05681C48.2213 14.8364 68.211 24.1621 85.0244 30.7573L96.8464 35.2959L106.351 38.5935L112.405 40.6189C113.722 40.9797 114.275 41.1068 113.869 40.9024L96.757 34.8098L83.8178 29.6747C75.5847 26.2519 67.1007 22.7186 52.4083 15.9356C44.7184 12.4483 36.42 8.47682 37.0319 9.05681" stroke="black"/>
<path d="M188.003 52.9739C190.342 52.7052 195.775 52.095 203.436 51.3138L216.457 49.855C218.866 49.596 221.388 49.2861 224.005 48.9652L232.131 47.9771C254.509 45.2307 282.179 41.0661 308.073 36.4259C313.681 35.5155 310.83 36.1415 302.928 37.5747L296.114 38.8364C293.565 39.3022 290.751 39.7523 287.729 40.2642L278.095 41.8576L267.52 43.4977C252.944 45.6801 236.754 47.8946 222.363 49.5238C218.765 49.9691 215.275 50.3099 211.955 50.6775C208.632 51.0445 205.476 51.386 202.542 51.6601C196.67 52.2084 191.682 52.6949 188 53" stroke="black"/>
<path d="M294.515 10.6378C295.813 10.0896 296.2 9.90092 295.908 10.0482C295.615 10.1954 294.642 10.673 293.213 11.3159L287.8 13.7387L281.012 16.5563L274.22 19.1623L268.791 21.1137C265.931 22.0745 264.888 22.3572 267.49 21.4434L274.695 18.9086L279.014 17.2288L281.306 16.3268L284.331 15.0652L288.575 13.2963L294.52 10.6551" stroke="black"/>
<path d="M28.415 10.6476C25.4301 9.23153 24.5405 8.74404 25.2112 9.12439C25.8853 9.50475 28.1231 10.7387 31.4103 12.3994L43.8608 18.6584L59.4734 25.937L75.0929 32.6692L87.5816 37.7103C94.1595 40.1924 96.5572 40.9228 90.5735 38.5621L74.0018 32.0138L64.0671 27.6745L58.7958 25.3441L51.8391 22.0852L42.0782 17.5155L28.4045 10.6922" stroke="black"/>
<path d="M259 29.9647V29.6749L270.259 25.2749C273.612 23.9971 276.565 22.7321 279.161 21.6593C284.348 19.477 288.093 17.9589 290.636 16.8367C295.714 14.6077 295.98 14.5836 293.381 15.8246C288.191 18.4522 271.537 25.4685 259.012 30" stroke="black"/>
<path d="M55 39.9529V39.5666L41.8648 33.6998C37.9525 31.9962 34.5073 30.3095 31.4794 28.8791C25.4272 25.9693 21.0583 23.9452 18.091 22.4489C12.1671 19.4769 11.8569 19.4449 14.8883 21.0995C20.9441 24.603 40.374 33.958 54.9857 40" stroke="black"/>
</g>
</svg>
