<svg width="12" height="10" viewBox="0 0 12 10" fill="none" xmlns="http://www.w3.org/2000/svg">
<path d="M11.7861 1.25347L10.7287 0.210864C10.5861 0.0702881 10.4079 0 10.2059 0C10.004 0 9.82574 0.0702881 9.68317 0.210864L4.59802 5.22475L2.32871 2.97553C2.18614 2.83495 2.00792 2.76467 1.80594 2.76467C1.60396 2.76467 1.42574 2.83495 1.28317 2.97553L0.225743 4.01814C0.0712871 4.15871 0 4.33443 0 4.53358C0 4.73273 0.0712871 4.90845 0.213861 5.04903L3.01782 7.81369L4.07525 8.8563C4.21782 8.99688 4.39604 9.06716 4.59802 9.06716C4.8 9.06716 4.97822 8.99688 5.12079 8.8563L6.17822 7.81369L11.7861 2.28436C11.9287 2.14379 12 1.96807 12 1.76892C12 1.56977 11.9287 1.39405 11.7861 1.25347Z" fill="white"/>
</svg>
