<svg width="13" height="9" viewBox="0 0 13 9" fill="none" xmlns="http://www.w3.org/2000/svg">
<path d="M12.7683 1.24419L11.6228 0.209302C11.4683 0.0697674 11.2752 0 11.0564 0C10.8376 0 10.6446 0.0697674 10.4901 0.209302L4.98119 5.18605L2.52277 2.95349C2.36832 2.81395 2.17525 2.74419 1.95644 2.74419C1.73762 2.74419 1.54455 2.81395 1.3901 2.95349L0.244554 3.98837C0.0772277 4.12791 0 4.30233 0 4.5C0 4.69767 0.0772277 4.87209 0.231683 5.01163L3.26931 7.75581L4.41485 8.7907C4.56931 8.93023 4.76238 9 4.98119 9C5.2 9 5.39307 8.93023 5.54752 8.7907L6.69307 7.75581L12.7683 2.26744C12.9228 2.12791 13 1.95349 13 1.75581C13 1.55814 12.9228 1.38372 12.7683 1.24419Z" fill="#D63A3A"/>
</svg>
