<svg width="36" height="24" viewBox="0 0 36 24" fill="none" xmlns="http://www.w3.org/2000/svg">
<g clip-path="url(#clip0_213_11309)">
<path d="M36 0H0V24H36V0Z" fill="#DE2910"/>
<path d="M5.99998 2.40002L8.116 8.91249L2.57617 4.88756H9.42378L3.88395 8.91249L5.99998 2.40002Z" fill="#FFDE00"/>
<path d="M12.4697 1.29571L12.2693 3.56944L11.095 1.61218L13.1955 2.50537L10.9711 3.01742L12.4697 1.29571Z" fill="#FFDE00"/>
<path d="M15.2615 3.96448L14.1944 5.98227L13.8716 3.72267L15.461 5.36099L13.2122 4.96974L15.2615 3.96448Z" fill="#FFDE00"/>
<path d="M15.5271 7.98851L13.7298 9.39549L14.3568 7.20078L15.1396 9.34492L13.246 8.07035L15.5271 7.98851Z" fill="#FFDE00"/>
<path d="M12.4233 9.6772L12.3174 11.9573L11.0629 10.0504L13.1987 10.8557L10.9975 11.4596L12.4233 9.6772Z" fill="#FFDE00"/>
</g>
<defs>
<clipPath id="clip0_213_11309">
<rect width="36" height="24" fill="white"/>
</clipPath>
</defs>
</svg>
