<svg width="14" height="14" viewBox="0 0 14 14" fill="none" xmlns="http://www.w3.org/2000/svg">
<path d="M8.47937 6.726L13.6 1.60523C13.9332 1.27215 13.9332 0.733595 13.6 0.40051C13.2669 0.0674246 12.7283 0.0674246 12.3953 0.40051L7.27449 5.52128L2.15387 0.40051C1.82063 0.0674246 1.28223 0.0674246 0.949149 0.40051C0.615909 0.733595 0.615909 1.27215 0.949149 1.60523L6.06976 6.726L0.949149 11.8468C0.615909 12.1799 0.615909 12.7184 0.949149 13.0515C1.11515 13.2177 1.33341 13.3011 1.55151 13.3011C1.76961 13.3011 1.98772 13.2177 2.15387 13.0515L7.27449 7.93073L12.3953 13.0515C12.5614 13.2177 12.7795 13.3011 12.9976 13.3011C13.2157 13.3011 13.4338 13.2177 13.6 13.0515C13.9332 12.7184 13.9332 12.1799 13.6 11.8468L8.47937 6.726Z" fill="white"/>
</svg>
