<svg width="27" height="28" viewBox="0 0 27 28" fill="none" xmlns="http://www.w3.org/2000/svg">
<path d="M3.37497 4.40167V1.02659C3.37497 0.560165 3.7523 0.182831 4.21883 0.182831C4.68514 0.182831 5.06248 0.560165 5.06248 1.02659V4.40167C5.06248 4.86798 4.68514 5.24532 4.21883 5.24532C3.7523 5.24537 3.37497 4.86798 3.37497 4.40167ZM17.7189 5.24537C18.1851 5.24537 18.5626 4.86804 18.5626 4.40173V1.02659C18.5626 0.560165 18.1851 0.182831 17.7189 0.182831C17.2524 0.182831 16.8748 0.560165 16.8748 1.02659V4.40167C16.8748 4.86798 17.2524 5.24537 17.7189 5.24537ZM26.9999 20.4327C26.9999 24.1607 23.9777 27.1829 20.2499 27.1829C16.5224 27.1829 13.5 24.1607 13.5 20.4327C13.5 16.7052 16.5224 13.6828 20.2499 13.6828C23.9777 13.6828 26.9999 16.7051 26.9999 20.4327ZM25.3126 20.4327C25.3126 17.6414 23.0417 15.3702 20.25 15.3702C17.4584 15.3702 15.1875 17.6414 15.1875 20.4327C15.1875 23.2245 17.4584 25.4953 20.25 25.4953C23.0417 25.4953 25.3126 23.2245 25.3126 20.4327ZM6.75004 10.3079H3.37497V13.6828H6.75004V10.3079ZM3.37497 18.7454H6.75004V15.3702H3.37497V18.7454ZM8.43744 13.6828H11.8126V10.3079H8.43744V13.6828ZM8.43744 18.7454H11.8126V15.3702H8.43744V18.7454ZM1.68757 20.2649V8.62029H20.25V11.9954H21.9375V5.41353C21.9375 4.38848 21.12 3.5578 20.11 3.5578H19.4062V4.40173C19.4062 5.33107 18.6496 6.08918 17.7189 6.08918C16.7879 6.08918 16.0314 5.33107 16.0314 4.40173V3.5578H5.90618V4.40173C5.90618 5.33107 5.14978 6.08918 4.21889 6.08918C3.28777 6.08918 2.53132 5.33107 2.53132 4.40173V3.5578H1.82841C0.818325 3.5578 0 4.38848 0 5.41353V20.2649C0 21.2866 0.818325 22.1205 1.82841 22.1205H11.8126V20.4327H1.82841C1.75195 20.4327 1.68757 20.3537 1.68757 20.2649ZM16.8748 13.6828V10.3079H13.5V13.6828H16.8748ZM22.7812 20.4327H20.2499V17.9013C20.2499 17.4352 19.8726 17.0579 19.4061 17.0579C18.9397 17.0579 18.5626 17.4352 18.5626 17.9013V21.2767C18.5626 21.7429 18.9397 22.1205 19.4061 22.1205H22.7812C23.2476 22.1205 23.625 21.7429 23.625 21.2767C23.625 20.8103 23.2476 20.4327 22.7812 20.4327Z" fill="#ED484A"/>
</svg>
