<svg width="21" height="19" viewBox="0 0 21 19" fill="none" xmlns="http://www.w3.org/2000/svg">
<path d="M10.815 0.224037C10.892 0.244648 12.873 0.698083 15.225 1.22709C17.57 1.7561 19.6 2.22327 19.733 2.26449C20.076 2.38129 20.615 2.88282 20.797 3.26068C21.154 3.97518 20.923 4.97136 20.279 5.50724C19.971 5.76831 19.579 5.90572 18.396 6.16678L17.717 6.31106L17.696 9.31335L17.675 12.3088L17.479 12.6798C16.905 13.7515 15.449 14.4591 13.16 14.7958C12.005 14.9675 8.96703 14.9607 7.84003 14.7889C5.47404 14.4248 4.06704 13.724 3.52104 12.6317L3.32504 12.2401L3.30404 9.27213L3.28304 6.31106L2.46404 6.12556C1.42804 5.89885 1.11304 5.78892 0.749041 5.51411C0.161041 5.07442 -0.104959 4.08511 0.175041 3.36373C0.34304 2.93778 0.763039 2.49808 1.17604 2.32633C1.52604 2.18205 9.87003 0.272129 10.374 0.224037C10.542 0.203426 10.738 0.210297 10.815 0.224037ZM6.09003 2.45686C3.45804 3.0477 1.71504 3.47366 1.61004 3.54236C1.26704 3.78969 1.26704 4.35304 1.61704 4.57289C1.70104 4.62098 3.73104 5.1019 6.13203 5.65152L10.5 6.64083L14.749 5.679C17.094 5.14999 19.082 4.70343 19.166 4.68282C19.628 4.57289 19.817 3.99579 19.509 3.64541C19.355 3.46678 19.047 3.39121 15.043 2.47747C12.677 1.94159 10.668 1.5019 10.57 1.49503C10.479 1.48816 8.46303 1.92098 6.09003 2.45686ZM13.545 7.25915C12.047 7.59579 10.689 7.87747 10.528 7.87747C10.367 7.87747 9.00203 7.59579 7.49703 7.25915C5.98503 6.91564 4.72503 6.64083 4.68303 6.64083C4.64804 6.64083 4.62004 7.65762 4.62004 9.279C4.62004 11.9034 4.62004 11.9103 4.77403 12.1095C5.02604 12.4256 5.18003 12.5355 5.78903 12.8309C6.48203 13.1607 7.66503 13.4698 8.72903 13.5798C9.77203 13.6966 12.194 13.6347 13.09 13.4767C14.427 13.2362 15.589 12.7759 16.1 12.2744L16.38 11.9996V9.32022C16.38 7.84312 16.352 6.64083 16.324 6.64083C16.289 6.64083 15.043 6.91564 13.545 7.25915Z" fill="#ED484A"/>
<path d="M1.75065 6.76449C1.83465 6.83319 1.92565 7.00495 1.95365 7.15609C1.98865 7.3622 2.00265 12.4256 1.96765 13.1882C1.96065 13.2569 1.88365 13.3874 1.78565 13.4767C1.54065 13.724 1.16965 13.7103 0.903655 13.4492L0.700656 13.25V7.0393L0.903655 6.84006C1.14865 6.60648 1.50565 6.57212 1.75065 6.76449ZM1.70865 14.4798C2.06565 14.7546 2.52065 15.8332 2.63265 16.6439C2.72365 17.3309 2.35965 17.9011 1.71565 18.0798C1.12066 18.2515 0.539655 18.0248 0.231655 17.5095C0.0706556 17.2416 0.0566556 17.1591 0.0916555 16.6851C0.112656 16.3485 0.203655 15.95 0.336655 15.5927C0.756655 14.466 1.21165 14.1019 1.70865 14.4798Z" fill="#ED484A"/>
</svg>
