<svg width="22" height="14" viewBox="0 0 22 14" fill="none" xmlns="http://www.w3.org/2000/svg">
<path d="M21.7802 1.90759L20.6781 0.80554C20.5312 0.658374 20.362 0.585022 20.1708 0.585022C19.98 0.585022 19.8109 0.658374 19.664 0.80554L11.0001 9.46898L2.3366 0.805772C2.18966 0.658605 2.02057 0.585253 1.82954 0.585253C1.63844 0.585253 1.46935 0.658605 1.32249 0.805772L0.220518 1.9079C0.0733516 2.05476 0 2.22385 0 2.41495C0 2.6059 0.0735832 2.77499 0.220518 2.92185L10.4931 13.1946C10.6399 13.3416 10.8091 13.415 11.0001 13.415C11.1911 13.415 11.36 13.3416 11.5068 13.1946L21.7802 2.92185C21.927 2.77492 22 2.60582 22 2.41495C22 2.22385 21.927 2.05476 21.7802 1.90759Z" fill="#282835"/>
</svg>
