<svg width="19" height="10" viewBox="0 0 19 10" fill="none" xmlns="http://www.w3.org/2000/svg">
<path d="M18.4488 0.961868L17.5347 0.160377C17.4129 0.0533466 17.2726 0 17.1139 0C16.9557 0 16.8155 0.0533466 16.6937 0.160377L9.50802 6.46106L2.32269 0.160545C2.20082 0.0535152 2.06058 0.00016837 1.90215 0.00016837C1.74365 0.00016837 1.60341 0.0535152 1.48161 0.160545L0.567658 0.962092C0.445602 1.0689 0.384766 1.19188 0.384766 1.33086C0.384766 1.46973 0.445794 1.59271 0.567658 1.69951L9.08748 9.17062C9.20928 9.27748 9.34959 9.33089 9.50802 9.33089C9.66645 9.33089 9.8065 9.27748 9.92823 9.17062L18.4488 1.69951C18.5706 1.59265 18.6311 1.46967 18.6311 1.33086C18.6311 1.19188 18.5706 1.0689 18.4488 0.961868Z" fill="#282835"/>
</svg>
