<svg width="40" height="40" viewBox="0 0 40 40" fill="none" xmlns="http://www.w3.org/2000/svg">
<circle cx="20" cy="20" r="20" fill="#ED484A"/>
<path d="M21.1491 23.5127C20.8977 23.7641 20.8977 24.171 21.1491 24.4217C21.4005 24.6731 21.8074 24.6731 22.0581 24.4217L26.4931 19.986C26.6269 19.8523 26.6841 19.6742 26.6751 19.4993C26.6841 19.3238 26.6269 19.1464 26.4931 19.0127L22.0581 14.5776C21.8074 14.3263 21.3998 14.3263 21.1491 14.5776C20.8977 14.829 20.8977 15.2359 21.1491 15.4866L24.5196 18.8571H10.6429C10.288 18.8571 10 19.1451 10 19.5C10 19.8549 10.288 20.1429 10.6429 20.1429H24.5196L21.1491 23.5127ZM28 10.5H15.1429C13.7228 10.5 12.5714 11.6514 12.5714 13.0714V15.6429H13.8571V13.0714C13.8571 12.3617 14.4325 11.7857 15.1429 11.7857H28C28.7104 11.7857 29.2857 12.3617 29.2857 13.0714V25.9286C29.2857 26.6383 28.7104 27.2143 28 27.2143H15.1429C14.4325 27.2143 13.8571 26.6389 13.8571 25.9286V23.3571H12.5714V25.9286C12.5714 27.3486 13.7228 28.5 15.1429 28.5H28C29.4201 28.5 30.5714 27.3486 30.5714 25.9286V13.0714C30.5714 11.6514 29.4201 10.5 28 10.5Z" fill="white"/>
</svg>
