<svg width="32" height="34" viewBox="0 0 32 34" fill="none" xmlns="http://www.w3.org/2000/svg">
<path d="M22.4519 10.1522C22.9156 9.68855 22.9156 8.92257 22.4519 8.43876C21.9882 7.97509 21.2222 7.97509 20.7384 8.43876L8.05858 21.1186C6.54668 22.6305 6.54668 25.11 8.05858 26.6219C9.57048 28.1338 12.05 28.1338 13.5619 26.6219L26.8465 13.3373C26.9675 13.2768 27.0884 13.1962 27.2094 13.0954C28.9833 11.3215 33.7004 6.60435 29.1647 2.06864C27.4311 0.33497 25.3547 -0.330266 23.1575 0.153542C21.3633 0.536534 19.5088 1.68558 17.6541 3.5402L3.26084 17.9335C1.54737 19.647 0.640231 22.0257 0.740977 24.6262C0.841794 27.1057 1.86989 29.5248 3.58335 31.2382C5.29682 32.9517 7.67559 33.9395 10.1349 34C10.1954 34 10.2559 34 10.3365 34C12.7958 34 15.0536 33.0727 16.7268 31.3995L30.9185 17.2078C31.3822 16.7441 31.3822 15.9781 30.9185 15.4943C30.4549 15.0307 29.6889 15.0307 29.2051 15.4943L15.0133 29.686C13.7635 30.9359 12.05 31.6011 10.1752 31.5809C8.34083 31.5406 6.56681 30.7947 5.29682 29.5247C2.57539 26.8033 2.43431 22.187 4.9743 19.647L19.3676 5.25367C20.8594 3.7619 22.3511 2.81449 23.6614 2.53224C25.0524 2.22986 26.3022 2.63306 27.4513 3.80224C28.5802 4.93115 28.9027 5.97938 28.4995 7.24938C28.2173 8.15652 27.5722 9.16448 26.4837 10.374C26.403 10.4345 26.3022 10.495 26.2417 10.5554L11.8686 24.9286C11.3042 25.493 10.3567 25.493 9.79225 24.9286C9.22783 24.3642 9.22783 23.4167 9.79225 22.8523L22.4519 10.1522Z" fill="#282835" fill-opacity="0.4"/>
</svg>
