<svg width="72" height="72" viewBox="0 0 72 72" fill="none" xmlns="http://www.w3.org/2000/svg">
<rect x="0.5" y="0.5" width="71" height="71" rx="35.5" stroke="#ED484A"/>
<g clip-path="url(#clip0_141_394)">
<path d="M38.7041 43.8401L39.5056 43.0386C39.6127 42.9318 39.666 42.8087 39.666 42.6696C39.666 42.5309 39.6127 42.4079 39.5056 42.3011L33.205 36.0001L39.5055 29.6993C39.6125 29.5925 39.6658 29.4695 39.6658 29.3306C39.6658 29.1916 39.6125 29.0686 39.5055 28.9618L38.7039 28.1604C38.5971 28.0533 38.4741 28 38.3352 28C38.1963 28 38.0733 28.0535 37.9665 28.1604L30.4954 35.6313C30.3885 35.7381 30.3351 35.8612 30.3351 36.0001C30.3351 36.139 30.3885 36.2618 30.4954 36.3686L37.9665 43.8401C38.0734 43.9469 38.1963 44 38.3352 44C38.4741 44 38.5971 43.9469 38.7041 43.8401Z" fill="#ED484A"/>
</g>
<defs>
<clipPath id="clip0_141_394">
<rect width="16" height="16" fill="white" transform="translate(43 28) rotate(90)"/>
</clipPath>
</defs>
</svg>
