<svg width="72" height="72" viewBox="0 0 72 72" fill="none" xmlns="http://www.w3.org/2000/svg">
<rect x="0.5" y="0.5" width="71" height="71" rx="35.5" stroke="#ED484A"/>
<g clip-path="url(#clip0_141_397)">
<path d="M33.2959 28.1599L32.4944 28.9614C32.3873 29.0682 32.334 29.1913 32.334 29.3304C32.334 29.4691 32.3873 29.5921 32.4944 29.6989L38.795 35.9999L32.4945 42.3007C32.3875 42.4075 32.3342 42.5305 32.3342 42.6694C32.3342 42.8084 32.3875 42.9314 32.4945 43.0382L33.2961 43.8396C33.4029 43.9467 33.5259 44 33.6648 44C33.8037 44 33.9267 43.9465 34.0335 43.8396L41.5046 36.3687C41.6115 36.2619 41.6649 36.1388 41.6649 35.9999C41.6649 35.861 41.6115 35.7382 41.5046 35.6314L34.0335 28.1599C33.9266 28.0531 33.8037 28 33.6648 28C33.5259 28 33.4029 28.0531 33.2959 28.1599Z" fill="#ED484A"/>
</g>
<defs>
<clipPath id="clip0_141_397">
<rect width="16" height="16" fill="white" transform="translate(29 44) rotate(-90)"/>
</clipPath>
</defs>
</svg>
