<svg width="71" height="49" viewBox="0 0 71 49" fill="none" xmlns="http://www.w3.org/2000/svg">
<path d="M24.6172 29C24.3246 28.3849 22.6343 26.2253 19.5182 22.6408L13.8039 16.1841L5.97889 7C6.55938 8.32751 12.7683 16.351 24.6172 29Z" stroke="black"/>
<path d="M17.656 1.08343C25.3229 9.57217 39.0323 23.2693 50.5634 32.9561L58.6712 39.6221L65.1899 44.4655L69.3416 47.4402C70.2446 47.9703 70.6242 48.1568 70.346 47.8567L58.6099 38.9082L49.7358 31.366C44.0894 26.3387 38.2708 21.1492 28.1945 11.1866C22.9205 6.0647 17.2293 0.231585 17.6489 1.08343" stroke="black"/>
<path d="M11.4685 3.39169C9.38555 1.3361 8.7648 0.628438 9.23279 1.18057C9.7032 1.73271 11.2648 3.5239 13.5586 5.93463L22.2467 15.0202L33.1413 25.5859L44.0408 35.3585L52.7555 42.6762C57.3457 46.2793 59.0188 47.3395 54.8433 43.9127L43.2794 34.4071L36.3469 28.1081L32.6685 24.7253L27.814 19.9946L21.0028 13.3612L11.4612 3.45648" stroke="black"/>
<path d="M30.0527 46.927V46.3282L21.0664 37.2347C18.3898 34.5941 16.0328 31.9797 13.9613 29.7626C9.82065 25.2524 6.8317 22.1151 4.80166 19.7957C0.748893 15.1892 0.536622 15.1395 2.61058 17.7043C6.75362 23.1346 20.0465 37.6349 30.043 47" stroke="black"/>
</svg>
