<svg width="87" height="71" viewBox="0 0 87 71" fill="none" xmlns="http://www.w3.org/2000/svg">
<path d="M31.2716 48.3601C24.1282 50.6847 19.6965 51.9072 17.4033 52.5214C15.1166 53.1327 14.9492 53.1326 16.3083 52.6677L37.5327 45.7398L52.4638 40.8467L65.3337 36.3898C72.4063 33.9446 75.6528 33.0377 70.1197 35.2906C59.0856 39.2051 50.7182 42.0434 44.4378 43.906C38.1575 45.7657 33.9964 47.2322 31.2845 48.3342" stroke="black"/>
<path d="M65.1319 1.04615C60.7347 5.74205 52.872 13.3192 46.2586 18.6778L41.6086 22.3654L37.8698 25.0447L35.4887 26.6903C34.9708 26.9835 34.7531 27.0868 34.9127 26.9207L41.6437 21.9705L46.7332 17.7982C49.9716 15.0172 53.3087 12.1464 59.0878 6.63514C62.1126 3.80175 65.3767 0.574919 65.136 1.04615" stroke="black"/>
<path d="M0.693735 69.9601C2.31767 69.5492 6.09132 68.6159 11.4121 67.4211L20.4554 65.19C22.1282 64.7939 23.8801 64.3199 25.6971 63.8291L31.3414 62.318C46.8827 58.1175 66.1 51.7481 84.0842 44.6514C87.9789 43.259 85.999 44.2163 80.5106 46.4084L75.7784 48.338C74.0079 49.0504 72.0536 49.7388 69.9551 50.5217L63.2639 52.9587L55.919 55.4671C45.7962 58.8049 34.552 62.1918 24.5571 64.6835C22.0584 65.3644 19.6342 65.8858 17.3286 66.448C15.0206 67.0092 12.829 67.5315 10.791 67.9508C6.71252 68.7894 3.24828 69.5334 0.691406 70" stroke="black"/>
<path d="M74.2449 6.90353C75.1184 6.12697 75.3787 5.85963 75.1824 6.06822C74.9852 6.2768 74.3303 6.95347 73.3684 7.86419L69.725 11.2965L65.1563 15.288L60.5855 18.9799L56.931 21.7443C55.0061 23.1055 54.3044 23.506 56.0554 22.2115L60.9048 18.6205L63.812 16.2409L65.3546 14.9629L67.3903 13.1757L70.2466 10.6698L74.2479 6.928" stroke="black"/>
<path d="M49.6172 35.9458V35.5015L57.3892 28.7548C59.7041 26.7956 61.7426 24.8559 63.5341 23.2109C67.1152 19.8647 69.7002 17.537 71.456 15.8162C74.9611 12.3984 75.1446 12.3616 73.3509 14.2645C69.7678 18.2934 58.2712 29.0517 49.6256 36" stroke="black"/>
</svg>
