<svg width="103" height="34" viewBox="0 0 103 34" fill="none" xmlns="http://www.w3.org/2000/svg">
<path d="M35 20C34.5762 19.5806 32.1275 18.1082 27.6134 15.6642L19.3355 11.2619L8 5C8.84091 5.90512 17.8353 11.3757 35 20Z" stroke="black"/>
<path d="M25.0422 1.05681C36.2213 6.83637 56.211 16.1621 73.0244 22.7573L84.8464 27.2959L94.3514 30.5935L100.405 32.6189C101.722 32.9797 102.275 33.1068 101.869 32.9024L84.757 26.8098L71.8178 21.6747C63.5847 18.2519 55.1007 14.7186 40.4083 7.93556C32.7184 4.4483 24.42 0.476824 25.0319 1.05681" stroke="black"/>
<path d="M16.415 2.64761C13.4301 1.23153 12.5405 0.744035 13.2112 1.12439C13.8853 1.50475 16.1231 2.73869 19.4103 4.39941L31.8608 10.6584L47.4734 17.937L63.0929 24.6692L75.5816 29.7103C82.1595 32.1924 84.5572 32.9228 78.5735 30.5621L62.0018 24.0138L52.0671 19.6745L46.7958 17.3441L39.8391 14.0852L30.0782 9.5155L16.4045 2.69224" stroke="black"/>
<path d="M43 31.9529V31.5666L29.8648 25.6998C25.9525 23.9962 22.5073 22.3095 19.4794 20.8791C13.4272 17.9693 9.05826 15.9452 6.09098 14.4489C0.167137 11.4769 -0.143135 11.4449 2.88833 13.0995C8.94414 16.603 28.374 25.958 42.9857 32" stroke="black"/>
</svg>
