<svg width="98" height="62" viewBox="0 0 98 62" fill="none" xmlns="http://www.w3.org/2000/svg">
<path d="M69 55C68.4506 54.4409 65.2763 52.4776 59.4248 49.2189L48.6942 43.3492L34 35C35.0901 36.2068 46.7495 43.5009 69 55Z" stroke="white"/>
<path d="M11.4543 3.1791C7.56097 1.30622 6.40067 0.661466 7.27544 1.16452C8.15473 1.66758 11.0736 3.29956 15.3613 5.496L31.601 13.774L51.9653 23.4005L72.3386 32.3044L88.6282 38.9716C97.2081 42.2545 100.335 43.2205 92.5306 40.0982L70.9154 31.4376L57.9571 25.6985L51.0815 22.6164L42.0075 18.3062L29.2759 12.2624L11.4407 3.23813" stroke="white"/>
<path d="M58 60.9388V60.4365L40.1737 52.8098C34.8641 50.595 30.1885 48.4023 26.0792 46.5428C17.8654 42.7601 11.9362 40.1288 7.90919 38.1835C-0.130314 34.3199 -0.551398 34.2783 3.56274 36.4294C11.7813 40.9839 38.1505 53.1454 57.9806 61" stroke="white"/>
</svg>
