<svg width="131" height="45" viewBox="0 0 131 45" fill="none" xmlns="http://www.w3.org/2000/svg">
<path d="M45 26C44.4506 25.4409 41.2763 23.4776 35.4248 20.2189L24.6942 14.3492L10 6C11.0901 7.20683 22.7495 14.5009 45 26Z" stroke="black"/>
<path d="M32.0538 1.07633C46.2817 8.84262 71.7231 21.3741 93.122 30.2364L108.168 36.3351L120.265 40.7663L127.97 43.4879C129.646 43.9728 130.35 44.1435 129.834 43.8688L108.054 35.682L91.5863 28.7816C81.1078 24.1822 70.31 19.4344 51.6106 10.3197C41.8234 5.63366 31.2618 0.296982 32.0406 1.07633" stroke="black"/>
<path d="M21.3059 3.1791C17.5423 1.30622 16.4207 0.661466 17.2663 1.16452C18.1162 1.66758 20.9378 3.29956 25.0826 5.496L40.781 13.774L60.4664 23.4005L80.1606 32.3044L95.9072 38.9716C104.201 42.2545 107.224 43.2205 99.6796 40.0982L78.7849 31.4376L66.2586 25.6985L59.6121 22.6164L50.8406 18.3062L38.5333 12.2624L21.2927 3.23813" stroke="black"/>
<path d="M55 41.9388V41.4365L38.1119 33.8098C33.0817 31.595 28.6522 29.4023 24.7592 27.5428C16.9778 23.7601 11.3606 21.1288 7.54555 19.1835C-0.0708243 15.3199 -0.469746 15.2783 3.42786 17.4294C11.2139 21.9839 36.1952 34.1454 54.9816 42" stroke="black"/>
</svg>
