<svg width="158" height="64" viewBox="0 0 158 64" fill="none" xmlns="http://www.w3.org/2000/svg">
<path d="M56.9127 43.8485C43.8609 45.9284 35.7637 47.0223 31.5739 47.5718C27.3959 48.1187 27.09 48.1187 29.5732 47.7027L68.3522 41.5041L95.633 37.126L119.148 33.1382C132.07 30.9504 138.002 30.139 127.892 32.1548C107.732 35.6572 92.4435 38.1968 80.9686 39.8633C69.4938 41.5272 61.8911 42.8393 56.9363 43.8254" stroke="black"/>
<path d="M118.97 1.04083C110.985 5.19489 96.7064 11.8978 84.6969 16.6381L76.2526 19.9002L69.4633 22.2703L65.1393 23.7261C64.1989 23.9854 63.8035 24.0767 64.0933 23.9298L76.3164 19.5508L85.5587 15.8599C91.4395 13.3998 97.4995 10.8602 107.994 5.98493C113.487 3.47847 119.414 0.623967 118.977 1.04083" stroke="black"/>
<path d="M1.00425 62.9647C3.9698 62.6012 10.8611 61.7756 20.5777 60.7186L37.0921 58.745C40.1469 58.3946 43.3461 57.9753 46.6643 57.5412L56.9715 56.2044C85.3523 52.4885 120.446 46.8541 153.288 40.5763C160.4 39.3445 156.785 40.1914 146.762 42.1305L138.12 43.8374C134.887 44.4677 131.318 45.0766 127.486 45.7692L115.267 47.925L101.854 50.144C83.3682 53.0966 62.8346 56.0927 44.5824 58.297C40.0194 58.8993 35.5924 59.3605 31.382 59.8578C27.1673 60.3543 23.1651 60.8163 19.4433 61.1872C11.9955 61.9291 5.66925 62.5872 1 63" stroke="black"/>
<path d="M136.119 5.85038C137.763 5.1195 138.253 4.86789 137.884 5.0642C137.512 5.26052 136.28 5.89739 134.47 6.75454L127.613 9.98496L119.015 13.7417L110.413 17.2163L103.535 19.8182C99.9121 21.0993 98.5917 21.4763 101.887 20.2578L111.014 16.8781L116.485 14.6385L119.388 13.4357L123.219 11.7536L128.595 9.39509L136.125 5.87342" stroke="black"/>
<path d="M91 31.9529V31.5666L105.386 25.6998C109.671 23.9962 113.444 22.3095 116.761 20.8791C123.389 17.9693 128.174 15.9452 131.424 14.4489C137.912 11.4769 138.252 11.4449 134.932 13.0995C128.299 16.603 107.019 25.958 91.0156 32" stroke="black"/>
</svg>
