<svg width="166" height="64" viewBox="0 0 166 64" fill="none" xmlns="http://www.w3.org/2000/svg">
<path d="M59.2895 43.8485C45.6161 45.9284 37.1334 47.0223 32.7441 47.5718C28.3671 48.1187 28.0466 48.1187 30.6482 47.7027L71.2738 41.5041L99.8536 37.126L124.488 33.1382C138.026 30.9504 144.24 30.139 133.649 32.1548C112.528 35.6572 96.5122 38.1968 84.491 39.8633C72.4697 41.5272 64.5049 42.8393 59.3142 43.8254" stroke="white"/>
<path d="M133.968 1.04083C125.548 5.19489 110.49 11.8978 97.8258 16.6381L88.9209 19.9002L81.7613 22.2703L77.2014 23.7261C76.2097 23.9854 75.7928 24.0767 76.0984 23.9298L88.9883 19.5508L98.7346 15.8599C104.936 13.3998 111.327 10.8602 122.394 5.98493C128.186 3.47847 134.437 0.623967 133.976 1.04083" stroke="white"/>
<path d="M1.00447 62.9647C4.1221 62.6012 11.3668 61.7756 21.5817 60.7186L38.943 58.745C42.1544 58.3946 45.5177 57.9753 49.006 57.5412L59.8418 56.2044C89.6781 52.4885 126.572 46.8541 161.098 40.5763C168.575 39.3445 164.774 40.1914 154.237 42.1305L145.152 43.8374C141.753 44.4677 138.001 45.0766 133.972 45.7692L121.127 47.925L107.026 50.144C87.5922 53.0966 66.0056 56.0927 46.8174 58.297C42.0204 58.8993 37.3663 59.3605 32.94 59.8578C28.5092 60.3543 24.3018 60.8163 20.3891 61.1872C12.5593 61.9291 5.90869 62.5872 1 63" stroke="white"/>
<path d="M122.119 17.8504C123.763 17.1195 124.253 16.8679 123.884 17.0642C123.512 17.2605 122.28 17.8974 120.47 18.7545L113.613 21.985L105.015 25.7417L96.4126 29.2163L89.5348 31.8182C85.9121 33.0993 84.5917 33.4763 87.8871 32.2578L97.0135 28.8781L102.485 26.6385L105.388 25.4357L109.219 23.7536L114.595 21.3951L122.125 17.8734" stroke="white"/>
<path d="M96 31.9529V31.5666L110.699 25.6998C115.077 23.9962 118.932 22.3095 122.321 20.8791C129.093 17.9693 133.982 15.9452 137.303 14.4489C143.932 11.4769 144.279 11.4449 140.887 13.0995C134.11 16.603 112.367 25.958 96.016 32" stroke="white"/>
</svg>
