<svg width="79" height="43" viewBox="0 0 79 43" fill="none" xmlns="http://www.w3.org/2000/svg">
<path d="M28.3187 29.3137C21.8549 30.6595 17.8449 31.3673 15.7699 31.7229C13.7008 32.0768 13.5493 32.0768 14.7791 31.8076L33.984 27.7967L47.4944 24.9639L59.1397 22.3835C65.5394 20.9679 68.477 20.4429 63.4703 21.7472C53.4861 24.0135 45.9149 25.6567 40.2321 26.735C34.5493 27.8117 30.7842 28.6607 28.3304 29.2988" stroke="black"/>
<path d="M58.994 1.01065C57.397 2.09432 54.5413 3.84289 52.1394 5.0795L50.4505 5.93048L49.0927 6.54879L48.2279 6.92854C48.0398 6.9962 47.9607 7.02002 48.0187 6.9817L50.4633 5.83935L52.3117 4.87651C53.4879 4.23473 54.6999 3.57224 56.7988 2.30042C57.8974 1.64656 59.0829 0.901904 58.9954 1.01065" stroke="black"/>
<path d="M1.0021 41.977C2.46586 41.7399 5.86732 41.2015 10.6633 40.5122L18.8147 39.225C20.3225 38.9965 21.9016 38.723 23.5394 38.4399L28.6269 37.5681C42.6354 35.1447 59.9574 31.4701 76.1678 27.3758C79.6783 26.5725 77.8937 27.1248 72.9466 28.3895L68.6812 29.5027C67.0853 29.9137 65.3238 30.3108 63.4322 30.7625L57.401 32.1685L50.7805 33.6156C41.6561 35.5413 31.5209 37.4953 22.5118 38.9328C20.2596 39.3256 18.0744 39.6264 15.9962 39.9507C13.9159 40.2745 11.9405 40.5758 10.1034 40.8178C6.42725 41.3016 3.30469 41.7308 1 42" stroke="black"/>
<path d="M67.1091 4.53149C67.8878 4.07469 68.1199 3.91743 67.9449 4.04013C67.7691 4.16282 67.1853 4.56087 66.3277 5.09658L63.0798 7.1156L59.0069 9.46354L54.9323 11.6352L51.6744 13.2614C49.9584 14.0621 49.3329 14.2977 50.8939 13.5362L55.2169 11.4238L57.8086 10.024L59.1837 9.2723L60.9985 8.22102L63.5448 6.74693L67.1119 4.54589" stroke="black"/>
<path d="M45 21.967V21.6966L51.8803 17.5899C53.9297 16.3973 55.7343 15.2166 57.3203 14.2153C60.4905 12.1785 62.779 10.7617 64.3333 9.71421C67.4363 7.63382 67.5988 7.6114 66.0109 8.76967C62.8388 11.2221 52.6612 17.7706 45.0075 22" stroke="black"/>
</svg>
