<svg width="54" height="29" viewBox="0 0 54 29" fill="none" xmlns="http://www.w3.org/2000/svg">
<path d="M24 18C23.7488 17.6366 22.2978 16.3604 19.6228 14.2423L14.7173 10.427L8 5C8.49832 5.78444 13.8283 10.5256 24 18Z" stroke="black"/>
<path d="M12.1282 2.43502C10.268 1.20166 9.71366 0.777063 10.1316 1.10834C10.5517 1.43962 11.9463 2.51434 13.9948 3.96078L21.7538 9.41212L31.4834 15.7516L41.2173 21.6151L49.0001 26.0057C53.0994 28.1676 54.5936 28.8037 50.8646 26.7476L40.5373 21.0443L34.3462 17.2649L31.0611 15.2352L26.7258 12.3968L20.6429 8.41672L12.1217 2.47389" stroke="black"/>
<path d="M30 27.96V27.6316L20.9305 22.6449C18.2291 21.1967 15.8503 19.763 13.7596 18.5472C9.58065 16.0739 6.56403 14.3534 4.5152 13.0815C0.424928 10.5553 0.210692 10.5281 2.30385 11.9346C6.48524 14.9125 19.9011 22.8643 29.9901 28" stroke="black"/>
</svg>
