<svg width="125" height="48" viewBox="0 0 125 48" fill="none" xmlns="http://www.w3.org/2000/svg">
<path d="M44.8548 32.8253C34.5376 34.4158 28.137 35.2523 24.8251 35.6725C21.5225 36.0908 21.2806 36.0908 23.2436 35.7727L53.8975 31.0325L75.4623 27.6846L94.05 24.6351C104.265 22.9621 108.954 22.3416 100.962 23.883C85.026 26.5614 72.941 28.5034 63.8704 29.7778C54.7999 31.0502 48.7901 32.0536 44.8735 32.8076" stroke="black"/>
<path d="M93.9759 1.03018C87.5878 4.10057 76.1651 9.05487 66.5575 12.5586L59.8021 14.9697L54.3707 16.7216L50.9114 17.7975C50.1591 17.9892 49.8428 18.0567 50.0746 17.9481L59.8532 14.7115L67.247 11.9834C71.9516 10.1651 76.7996 8.288 85.1952 4.68452C89.5895 2.83191 94.3314 0.722063 93.9818 1.03018" stroke="black"/>
<path d="M1.00335 46.9739C3.34157 46.7052 8.77506 46.095 16.4362 45.3138L29.4572 43.855C31.8658 43.596 34.3883 43.2861 37.0045 42.9652L45.1314 41.9771C67.5086 39.2307 95.1786 35.0661 121.073 30.4259C126.681 29.5155 123.83 30.1415 115.928 31.5747L109.114 32.8364C106.565 33.3022 103.751 33.7523 100.729 34.2642L91.0951 35.8576L80.5195 37.4977C65.9442 39.6801 49.7542 41.8946 35.3631 43.5238C31.7653 43.9691 28.2747 44.3099 24.955 44.6775C21.6319 45.0445 18.4763 45.386 15.5419 45.6601C9.66951 46.2084 4.68152 46.6949 1 47" stroke="black"/>
<path d="M107.515 4.63779C108.813 4.08963 109.2 3.90092 108.908 4.04815C108.615 4.19539 107.642 4.67304 106.213 5.3159L100.8 7.73872L94.0116 10.5563L87.2205 13.1623L81.7906 15.1137C78.9306 16.0745 77.8882 16.3572 80.4898 15.4434L87.6949 12.9086L92.0143 11.2288L94.3062 10.3268L97.3308 9.06523L101.575 7.29632L107.52 4.65506" stroke="black"/>
<path d="M72 23.9647V23.6749L83.2587 19.2749C86.6122 17.9971 89.5652 16.7321 92.1605 15.6593C97.3482 13.477 101.093 11.9589 103.636 10.8367C108.714 8.60766 108.98 8.58365 106.381 9.82465C101.191 12.4522 84.5365 19.4685 72.0122 24" stroke="black"/>
</svg>
