<svg width="16" height="10" viewBox="0 0 16 10" fill="none" xmlns="http://www.w3.org/2000/svg">
<path d="M15.8401 0.961929L15.0386 0.160438C14.9318 0.0534076 14.8087 6.10352e-05 14.6696 6.10352e-05C14.5309 6.10352e-05 14.4079 0.0534076 14.3011 0.160438L8.00008 6.46112L1.69934 0.160606C1.59248 0.0535762 1.4695 0.000229406 1.33058 0.000229406C1.1916 0.000229406 1.06862 0.0535762 0.961812 0.160606L0.160377 0.962153C0.0533466 1.06896 0 1.19194 0 1.33092C0 1.46979 0.0535151 1.59277 0.160377 1.69957L7.63132 9.17068C7.73812 9.27754 7.86116 9.33095 8.00008 9.33095C8.13901 9.33095 8.26182 9.27754 8.36857 9.17068L15.8401 1.69957C15.9469 1.59271 16 1.46973 16 1.33092C16 1.19194 15.9469 1.06896 15.8401 0.961929Z" fill="#282835"/>
</svg>
