<svg width="24" height="20" viewBox="0 0 24 20" fill="none" xmlns="http://www.w3.org/2000/svg">
<path d="M21.8761 1.61464C20.7799 0.538062 19.2653 0 17.3318 0C16.7967 0 16.2506 0.0933103 15.6941 0.27984C15.1373 0.466506 14.6193 0.718343 14.1407 1.03517C13.6615 1.3519 13.2496 1.64935 12.9042 1.92704C12.5591 2.20483 12.231 2.50004 11.9203 2.81244C11.6095 2.50004 11.2816 2.20483 10.9364 1.92704C10.5911 1.64935 10.1791 1.35209 9.69994 1.03517C9.22091 0.718206 8.70301 0.466551 8.14635 0.27984C7.58973 0.0933559 7.04372 0 6.50864 0C4.57524 0 3.0606 0.538199 1.9645 1.61464C0.868406 2.69099 0.320312 4.18396 0.320312 6.09367C0.320312 6.67529 0.421887 7.27446 0.624628 7.89046C0.827368 8.50679 1.0584 9.03203 1.31728 9.46597C1.57612 9.89987 1.86964 10.323 2.19763 10.7354C2.52561 11.1477 2.76531 11.4319 2.91617 11.5881C3.06717 11.7444 3.18589 11.8573 3.27218 11.9268L11.3507 19.7654C11.5061 19.9216 11.6959 20 11.9203 20C12.1447 20 12.3347 19.9216 12.49 19.7654L20.5556 11.9526C22.5321 9.96509 23.5203 8.01196 23.5203 6.09349C23.5204 4.18364 22.9723 2.69081 21.8761 1.61464ZM19.4292 10.7289L11.9203 18.0074L4.39862 10.7157C2.78458 9.09282 1.9777 7.55184 1.9777 6.09349C1.9777 5.39047 2.07048 4.76972 2.25594 4.23166C2.44154 3.69351 2.67888 3.26586 2.968 2.94903C3.25717 2.63212 3.60883 2.37408 4.02311 2.17428C4.43761 1.97466 4.84323 1.84007 5.24019 1.77066C5.63714 1.70134 6.05999 1.66663 6.50887 1.66663C6.95761 1.66663 7.44104 1.77718 7.95889 1.9986C8.47665 2.21993 8.9535 2.49771 9.38932 2.83187C9.82523 3.16626 10.1985 3.4787 10.5094 3.7694C10.82 4.06036 11.0789 4.32712 11.286 4.5702C11.4413 4.76124 11.6529 4.85674 11.9204 4.85674C12.1879 4.85674 12.3993 4.76124 12.5548 4.5702C12.7619 4.32712 13.0209 4.06023 13.3316 3.7694C13.6423 3.4787 14.0156 3.16639 14.4514 2.83187C14.8873 2.49771 15.3641 2.21993 15.8821 1.9986C16.3998 1.77723 16.8834 1.66663 17.3322 1.66663C17.781 1.66663 18.2037 1.70134 18.6008 1.77066C18.9979 1.84003 19.4035 1.97466 19.8179 2.17428C20.2322 2.37403 20.5839 2.63225 20.8729 2.94903C21.1621 3.26586 21.3995 3.69351 21.5851 4.23166C21.7704 4.76972 21.8632 5.39047 21.8632 6.09349C21.8631 7.55184 21.0519 9.09711 19.4292 10.7289Z" fill="#ED484A"/>
</svg>
