<svg width="26" height="21" viewBox="0 0 26 21" fill="none" xmlns="http://www.w3.org/2000/svg">
<path d="M24.1574 1.69537C22.9288 0.564965 21.2315 0 19.0646 0C18.4649 0 17.8529 0.0979759 17.2292 0.293832C16.6052 0.489831 16.0247 0.75426 15.4884 1.08693C14.9513 1.4195 14.4898 1.73182 14.1026 2.0234C13.7159 2.31507 13.3482 2.62504 13 2.95306C12.6517 2.62504 12.2841 2.31507 11.8974 2.0234C11.5103 1.73182 11.0486 1.41969 10.5116 1.08693C9.9748 0.754117 9.3944 0.489879 8.77056 0.293832C8.14676 0.0980237 7.53485 0 6.9352 0C4.76845 0 3.07101 0.565108 1.84263 1.69537C0.614243 2.82554 0 4.39316 0 6.39835C0 7.00905 0.113833 7.63818 0.341043 8.28499C0.568252 8.93212 0.827172 9.48363 1.11729 9.93927C1.40737 10.3949 1.73631 10.8392 2.10388 11.2721C2.47145 11.7051 2.74008 12.0035 2.90915 12.1675C3.07838 12.3316 3.21142 12.4502 3.30813 12.5232L12.3616 20.7537C12.5357 20.9177 12.7485 21 13 21C13.2514 21 13.4644 20.9177 13.6384 20.7537L22.6775 12.5502C24.8926 10.4633 26 8.41256 26 6.39816C26 4.39282 25.3859 2.82535 24.1574 1.69537Z" fill="#ED484A"/>
</svg>
