<svg width="30" height="41" viewBox="0 0 30 41" fill="none" xmlns="http://www.w3.org/2000/svg">
<path d="M27.1285 41H2.78366C1.24931 41 0 39.7507 0 38.2163V6.71308C0 5.17872 1.24931 3.92942 2.78366 3.92942H6.88344C7.19076 3.92942 7.44017 4.17883 7.44017 4.48615C7.44017 4.79347 7.19076 5.04288 6.88344 5.04288H2.78366C1.86283 5.04288 1.11346 5.79224 1.11346 6.71308V38.2163C1.11346 39.1372 1.86283 39.8865 2.78366 39.8865H27.1273C28.0482 39.8865 28.7975 39.1372 28.7975 38.2163V6.71308C28.7975 5.79224 28.0482 5.04288 27.1273 5.04288H23.0276C22.7202 5.04288 22.4708 4.79347 22.4708 4.48615C22.4708 4.17883 22.7202 3.92942 23.0276 3.92942H27.1273C28.6617 3.92942 29.911 5.17872 29.911 6.71308V38.2163C29.9121 39.7518 28.6628 41 27.1285 41Z" fill="#ED484A"/>
<path d="M23.0281 9.34865H6.8829C6.57559 9.34865 6.32617 9.09923 6.32617 8.79192V2.99299C6.32617 2.68568 6.57559 2.43626 6.8829 2.43626H12.0149C12.2765 1.05111 13.4958 0 14.9555 0C16.4153 0 17.6345 1.05111 17.8962 2.43626H23.0281C23.3355 2.43626 23.5849 2.68568 23.5849 2.99299V8.79303C23.5849 9.10035 23.3366 9.34865 23.0281 9.34865ZM7.43964 8.23518H22.4714V3.54973H17.3907C17.0834 3.54973 16.8339 3.30031 16.8339 2.99299C16.8351 1.95636 15.9922 1.11346 14.9555 1.11346C13.9189 1.11346 13.076 1.95636 13.076 2.99299C13.076 3.30031 12.8266 3.54973 12.5193 3.54973H7.43852V8.23518H7.43964Z" fill="#ED484A"/>
<path d="M13.0072 30.46C12.7879 30.46 12.5886 30.3308 12.4984 30.1293L9.8617 24.1945H5.21298C4.90567 24.1945 4.65625 23.9451 4.65625 23.6378C4.65625 23.3304 4.90567 23.081 5.21298 23.081H10.2236C10.444 23.081 10.6422 23.2102 10.7324 23.4117L12.9482 28.3989L16.9367 17.0995C17.0124 16.8868 17.2095 16.7398 17.4344 16.7287C17.6637 16.7031 17.8697 16.8445 17.9666 17.0494L20.7859 23.0821H24.6997C25.007 23.0821 25.2565 23.3315 25.2565 23.6389C25.2565 23.9462 25.007 24.1956 24.6997 24.1956H20.4318C20.2158 24.1956 20.0187 24.0709 19.9274 23.8749L17.5346 18.7541L13.5339 30.0903C13.4582 30.3052 13.2578 30.4522 13.0306 30.4611C13.0217 30.46 13.0139 30.46 13.0072 30.46Z" fill="#ED484A"/>
</svg>
