<svg width="48" height="48" viewBox="0 0 48 48" fill="none" xmlns="http://www.w3.org/2000/svg">
<path d="M22.905 13.0826C21.9207 11.6156 21.2644 10.1049 20.9539 8.59248C19.7452 2.69318 13.669 -1.37971 7.13745 0.684159C2.93481 2.01753 0 6.14693 0 10.7319C0 14.2087 1.70874 17.4654 4.57105 19.4433C5.6521 20.1915 6.54565 21.2106 7.15576 22.3909C7.59155 23.2332 7.8728 24.1824 7.99219 25.2144L8.06909 25.878H17.9429V20.4995H19.1587C20.2676 20.4995 21.1692 19.5975 21.1692 18.489V15.7369H22.864C23.2236 15.7369 23.5525 15.5399 23.7217 15.2224C23.8909 14.9052 23.8718 14.5222 23.6711 14.2226L22.905 13.0826ZM20.6374 14.2369C20.1035 14.2369 19.6692 14.6709 19.6692 15.2044V18.489C19.6692 18.7706 19.4399 18.9995 19.1587 18.9995H17.6748C16.9958 18.9995 16.4429 19.5521 16.4429 20.2314V24.378H9.38452C9.21167 23.4178 8.91137 22.5199 8.48876 21.7025C7.76586 20.3046 6.70678 19.0973 5.42431 18.2096C2.96703 16.5114 1.49999 13.7161 1.49999 10.7257C1.49999 6.79329 4.00487 3.25203 7.59008 2.11421C13.2165 0.338874 18.4425 3.81176 19.4846 8.89351C19.834 10.5982 20.5657 12.289 21.6599 13.9187L21.8738 14.2369H20.6374Z" fill="#ED484A"/>
<path d="M42.1421 17.0969L40.4736 16.306L39.8306 17.6617L43.7629 19.525L45.6475 15.5919L44.294 14.9437L43.5322 16.5343C41.5508 11.4923 37.6883 7.37563 32.7012 5.08054L32.0742 6.44284C36.7125 8.57775 40.3036 12.4073 42.1421 17.0969Z" fill="#ED484A"/>
<path d="M21.5078 3.29267L21.6777 4.78314C22.3955 4.70111 23.1228 4.65827 23.8398 4.65533L23.834 3.15533C23.062 3.15827 22.2798 3.20477 21.5078 3.29267Z" fill="#ED484A"/>
<path d="M31.4431 4.54916C30.7209 4.27194 29.9739 4.03171 29.2231 3.83578L28.8438 5.28671C29.541 5.46908 30.2346 5.69211 30.9055 5.94956L31.4431 4.54916Z" fill="#ED484A"/>
<path d="M27.7036 3.49924C26.9434 3.35935 26.1648 3.2612 25.3892 3.207L25.2852 4.70334C26.0044 4.75351 26.7273 4.8447 27.4326 4.97434L27.7036 3.49924Z" fill="#ED484A"/>
<path d="M20.082 45.036C20.8438 45.1759 21.6223 45.274 22.3965 45.3282L22.5005 43.8311C21.782 43.7813 21.0591 43.6898 20.353 43.5609L20.082 45.036Z" fill="#ED484A"/>
<path d="M13.6521 41.8653L14.03 41.2171C9.11933 38.3547 5.78479 33.6598 4.68231 28.1705L6.22901 29.2267L7.07422 27.9874L3.46704 25.5243L1.00391 29.1329L2.24316 29.9781L3.22681 28.5363C4.42688 34.4162 8.00897 39.4433 13.2742 42.5135C13.805 42.8231 14.3563 43.1135 14.9126 43.3748L15.5513 42.0184C15.0349 41.7745 14.5229 41.5057 14.0308 41.2179L13.6521 41.8653Z" fill="#ED484A"/>
<path d="M16.3438 43.985C17.0645 44.2618 17.8115 44.502 18.5637 44.6991L18.9431 43.2474C18.2444 43.065 17.5515 42.8424 16.8814 42.5846L16.3438 43.985Z" fill="#ED484A"/>
<path d="M23.9434 43.8787L23.9492 45.3787C24.7212 45.3758 25.5041 45.3297 26.2754 45.2418L26.1055 43.752C25.3884 43.8333 24.6611 43.8758 23.9434 43.8787Z" fill="#ED484A"/>
<path d="M10.1953 17.9714C10.1953 18.9314 10.9678 19.7114 11.9279 19.7114C12.8879 19.7114 13.6678 18.9314 13.6678 17.9714V17.5739H10.1953L10.1953 17.9714Z" fill="#ED484A"/>
<path d="M10.9826 6.40645C9.37011 6.75146 8.07253 8.04144 7.72756 9.65396C7.42013 11.0864 7.82516 12.429 8.65755 13.404C9.31765 14.1764 9.79006 15.0915 10.0151 16.074H11.1804V13.3342L10.3505 12.5044L11.4111 11.4438L11.9597 11.9917L12.4262 11.5247L13.4868 12.5853L12.6804 13.3923V16.074H13.8327C14.0875 15.0689 14.5901 14.1314 15.2576 13.314C15.8576 12.579 16.2176 11.634 16.2176 10.6065C16.2176 7.93648 13.7726 5.82147 10.9826 6.40645Z" fill="#ED484A"/>
<path d="M39.8168 35.284L39.8167 35.2841C39.1891 36.0526 38.7238 36.9254 38.4892 37.8507L38.3935 38.2278H38.0045H36.8522H36.3522V37.7278V35.0461V34.8391L36.4986 34.6927L36.9517 34.2393L36.5982 33.8858L36.4852 33.9989L36.1319 34.3525L35.7782 33.9993L35.5832 33.8045L35.2295 34.1582L35.7058 34.6345L35.8522 34.7809V34.988V37.7278V38.2278H35.3522H34.1869H33.7885L33.6996 37.8394C33.4934 36.9395 33.0596 36.0968 32.4493 35.3826L32.4491 35.3824C31.5199 34.294 31.0691 32.794 31.4105 31.2029L39.8168 35.284ZM39.8168 35.284C40.4877 34.4622 40.8895 33.4062 40.8895 32.2603C40.8895 29.2794 38.1588 26.9195 35.0519 27.5709L35.0499 27.5713M39.8168 35.284L35.0499 27.5713M35.0499 27.5713C33.246 27.9573 31.7971 29.3966 31.4105 31.2029L35.0499 27.5713ZM40.7102 23.1431L40.7104 23.1432C44.6915 24.4015 47.5011 28.3329 47.5011 32.7015C47.5011 36.0244 45.872 39.1255 43.1423 41.0123C41.9928 41.8026 41.0462 42.8857 40.3947 44.1411L40.3929 44.1447C39.9369 45.0407 39.6359 46.0509 39.5094 47.1334L39.5092 47.1356L39.4841 47.359H30.5535V42.4815V41.9815H30.0535H28.8385C28.0059 41.9815 27.3285 41.299 27.3285 40.4714V37.719V37.219H26.8285H25.1335C24.9668 37.219 24.8071 37.1257 24.7171 36.9613L24.7171 36.9613C24.6377 36.8164 24.6432 36.6322 24.7407 36.4798L25.51 35.3444L25.51 35.3444L25.5117 35.3418C26.5251 33.8255 27.2059 32.259 27.5356 30.6732L27.5358 30.6719C28.6861 25.0635 34.4641 21.1662 40.7102 23.1431ZM34.3669 38.7278H33.8669V39.2278V39.6253C33.8669 40.8586 34.8605 41.8653 36.0995 41.8653C37.3357 41.8653 38.3394 40.8614 38.3394 39.6253V39.2278V38.7278H37.8394H34.3669Z" stroke="#ED484A"/>
</svg>
