<svg width="48" height="48" viewBox="0 0 48 48" fill="none" xmlns="http://www.w3.org/2000/svg">
<g clip-path="url(#clip0_141_570)">
<path d="M35.3833 35.08V32.261C36.7922 25.3526 32.398 23.8235 31.0139 23.5192C30.9292 23.5003 30.846 23.48 30.7643 23.458C30.5199 23.3927 30.2811 23.3082 30.0499 23.2053C29.607 23.0072 29.1744 22.7869 28.7538 22.5451L28.7508 22.5434C28.2881 22.2784 27.8416 21.9861 27.4136 21.6681C27.0006 21.3586 26.7247 20.9 26.6449 20.3901L26.5202 19.6199C26.9732 19.129 27.31 18.5425 27.5058 17.9039H27.5176C27.6008 17.9039 27.682 17.9011 27.7608 17.895C28.2371 17.8534 28.6804 17.6343 29.0028 17.2811C29.3251 16.9279 29.5029 16.4664 29.5009 15.9883V14.88C29.5011 14.5664 29.4238 14.2576 29.2759 13.9811C30.0795 13.9706 30.88 13.8801 31.6657 13.7111C31.3505 14.0866 30.9761 14.4083 30.5573 14.6633C30.3787 14.7754 30.2444 14.9458 30.1772 15.1456C30.1099 15.3454 30.1138 15.5623 30.1883 15.7595C30.5689 16.7687 31.2424 17.6411 32.1224 18.2647C32.2512 18.352 32.3581 18.4678 32.4348 18.6031C32.5116 18.7385 32.556 18.8897 32.5647 19.045C32.5709 19.4107 32.3799 19.7368 31.9809 20.04C31.9046 20.097 31.8435 20.172 31.8033 20.2584C31.763 20.3447 31.7448 20.4397 31.7503 20.5348C31.7597 20.673 31.8196 20.8028 31.9185 20.8997C32.0174 20.9965 32.1484 21.0537 32.2867 21.0603C32.4345 21.0675 33.7335 21.172 33.7609 22.6507C33.7683 22.8814 33.7136 23.1098 33.6024 23.3121C33.5339 23.4328 33.5111 23.5741 33.5383 23.7102C33.5654 23.8464 33.6406 23.9682 33.7502 24.0534C33.8145 24.1014 33.8884 24.1352 33.9668 24.1524C34.0452 24.1697 34.1264 24.17 34.205 24.1534C34.2836 24.1367 34.3577 24.1035 34.4224 24.056C34.4871 24.0084 34.5409 23.9476 34.5803 23.8776C34.7941 23.4972 34.9012 23.066 34.89 22.6298C34.8646 21.2626 34.1164 20.5346 33.3653 20.1909C33.5865 19.843 33.7007 19.4379 33.694 19.0257C33.682 18.6948 33.5936 18.3712 33.4356 18.0803C33.2776 17.7894 33.0543 17.539 32.7832 17.3489C32.1319 16.8879 31.6213 16.255 31.3087 15.5208C32.2383 14.9139 32.9634 14.0408 33.3893 13.0155C33.3986 12.996 33.4066 12.9759 33.4135 12.9554C33.6938 12.2546 33.8601 11.5133 33.9059 10.7599C33.9588 9.96281 33.8962 9.16224 33.7198 8.38308C33.7156 8.34674 33.7078 8.3109 33.6967 8.27606C33.3538 6.84151 32.6625 5.51359 31.6842 4.40981C28.4328 0.732864 23.6956 0.830558 23.2401 0.84877C22.5424 0.836381 21.8451 0.891937 21.1581 1.01465C21.0155 1.03645 20.8861 1.11033 20.7948 1.22202C20.7035 1.3337 20.6569 1.47525 20.664 1.61931C20.6701 1.69766 20.6925 1.77386 20.7298 1.84306C20.767 1.91226 20.8183 1.97294 20.8803 2.02122C20.9423 2.06951 21.0137 2.10434 21.0899 2.1235C21.1661 2.14265 21.2455 2.14572 21.323 2.13249C21.7706 2.05489 22.2227 2.00529 22.6766 1.98397V7.71178C22.4026 7.74642 22.1324 7.80659 21.8696 7.8915C20.78 5.68265 20.1883 3.28251 19.9849 2.35541C19.9572 2.22939 19.9037 2.11051 19.8276 2.00632C19.7515 1.90213 19.6546 1.8149 19.543 1.75018C19.4203 1.67903 19.283 1.63662 19.1415 1.62613C19 1.61564 18.8579 1.63735 18.726 1.68962C17.2191 2.27119 15.8725 3.2037 14.7981 4.40981C14.7933 4.41531 14.789 4.42096 14.784 4.42632L14.7814 4.42943C13.813 5.52788 13.1281 6.84667 12.7866 8.2707C12.7743 8.30813 12.7659 8.34674 12.7616 8.3859C12.5859 9.1642 12.5235 9.96379 12.5762 10.7599C12.622 11.5119 12.7877 12.2517 13.0671 12.9514C13.0745 12.974 13.0834 12.996 13.0936 13.0175C13.5202 14.0435 14.2464 14.9168 15.1774 15.5234C14.8628 16.2569 14.351 16.8889 13.6989 17.3491C13.4278 17.5392 13.2046 17.7895 13.0466 18.0804C12.8885 18.3713 12.8001 18.6948 12.7881 19.0257C12.7815 19.4379 12.8957 19.843 13.1168 20.1909C12.3655 20.5346 11.6169 21.2626 11.5921 22.6298C11.5757 23.5091 12.0015 24.2718 12.8062 24.8396C11.4296 26.0323 10.2792 28.2288 11.0967 32.2514C11.0837 32.6296 11.0284 34.481 11.1086 36.2993C10.4398 35.7153 9.72852 35.1818 8.98061 34.7033V33.2651C8.98061 32.7269 8.7668 32.2107 8.38621 31.8301C8.00562 31.4495 7.48943 31.2357 6.9512 31.2357H6.34682C6.13475 30.949 5.85288 30.7212 5.528 30.574C5.52122 26.1339 6.12461 4.96463 6.16583 4.12844C6.18754 3.77961 6.1026 3.43242 5.9223 3.13301C5.79976 2.9348 5.63742 2.76418 5.44554 2.63195C5.25366 2.49971 5.03642 2.40874 4.80757 2.3648C4.57872 2.32085 4.34324 2.32487 4.11603 2.37662C3.88882 2.42837 3.67482 2.52671 3.48758 2.66543L3.40485 2.72783C2.86465 3.14534 2.41445 3.66777 2.08132 4.26372C1.74819 4.85967 1.53901 5.51683 1.46635 6.19569C1.31529 7.56609 1.20743 9.27969 1.13106 11.1257C1.13106 11.1298 1.1295 11.1338 1.12922 11.1379C1.01628 13.851 0.958398 17.1508 0.956704 20.9454C0.956704 20.9515 0.957833 20.9574 0.958116 20.9633C0.956139 24.0904 0.994116 26.3787 0.994963 26.4295C0.990163 27.4077 0.986352 28.0261 0.979716 28.9632C0.979176 29.0377 0.993384 29.1116 1.02152 29.1806C1.04966 29.2496 1.09117 29.3123 1.14366 29.3652C1.19615 29.418 1.25859 29.46 1.32737 29.4886C1.39615 29.5173 1.46992 29.532 1.54442 29.532C1.69356 29.5318 1.83658 29.4727 1.94234 29.3675C2.0481 29.2624 2.10805 29.1197 2.10913 28.9706C2.11576 28.033 2.11958 27.4142 2.12423 26.4225C2.12339 26.3678 2.08696 24.17 2.08725 21.1478C2.74607 20.341 3.57621 19.691 4.51746 19.2449C4.44348 22.7097 4.3935 26.5113 4.3976 30.3895H2.0624C1.78899 30.3895 1.51826 30.4433 1.26566 30.548C1.01306 30.6526 0.783539 30.8059 0.590211 30.9993C0.396882 31.1926 0.243529 31.4221 0.138909 31.6747C0.0342887 31.9273 -0.0195498 32.198 -0.0195312 32.4715V37.1303C-0.0193004 37.4688 0.0622036 37.8024 0.218129 38.1029C0.374054 38.4034 0.599844 38.662 0.876516 38.8571C0.811151 43.5338 0.745222 46.548 0.744516 46.5784C0.741223 46.7281 0.797543 46.873 0.90109 46.9812C1.00464 47.0894 1.14693 47.1521 1.29666 47.1554H1.30936C1.457 47.1554 1.59879 47.0976 1.70434 46.9944C1.80989 46.8911 1.87082 46.7507 1.87407 46.6031C1.87407 46.5736 1.93732 43.7129 2.00113 39.2428C2.0336 39.2444 2.06565 39.2478 2.09854 39.2478H4.55346C4.60174 41.3633 4.64466 44.1679 4.60569 46.4352C4.60341 46.5847 4.64664 46.7313 4.72964 46.8557C4.81265 46.98 4.93151 47.0762 5.07045 47.1314C5.10067 47.1468 5.13406 47.155 5.168 47.1554C5.31593 47.1554 5.45796 47.0974 5.56356 46.9938C5.66916 46.8902 5.72989 46.7493 5.7327 46.6014C5.77816 44.2014 5.72903 41.1699 5.67722 38.9743C6.00468 38.7902 6.27727 38.5223 6.46703 38.1981C6.65679 37.8739 6.7569 37.5051 6.75708 37.1294V36.9528H6.9512C7.31588 36.9526 7.67377 36.8541 7.98727 36.6678C8.30077 36.4815 8.55831 36.2142 8.73285 35.894C9.69796 36.5261 10.5782 37.2792 11.352 38.1349C11.3559 38.1395 11.3611 38.1428 11.3654 38.1473C11.3696 38.1518 11.3733 38.158 11.3781 38.1628C11.7919 38.5974 12.1533 39.079 12.4547 39.5979C12.4939 39.6664 12.5471 39.726 12.6108 39.7727C12.6745 39.8194 12.7473 39.8522 12.8245 39.869C12.9016 39.8858 12.9815 39.8863 13.0588 39.8703C13.1362 39.8543 13.2093 39.8223 13.2735 39.7763C13.3876 39.6897 13.4658 39.5641 13.4931 39.4234C13.5203 39.2828 13.4948 39.137 13.4213 39.014C13.2765 38.7631 13.1239 38.533 12.9768 38.328H15.2871C14.6399 40.3445 14.419 42.4735 14.6384 44.5799C14.0344 44.5773 13.0047 44.5581 12.474 44.3245L12.3309 44.2579C10.4037 43.3996 8.62925 42.2331 7.07727 40.8041C7.02041 40.7528 6.95371 40.7137 6.88124 40.689C6.80876 40.6643 6.73203 40.6546 6.65569 40.6605C6.57935 40.6664 6.50501 40.6877 6.43718 40.7232C6.36935 40.7588 6.30945 40.8077 6.26113 40.8671C6.17123 40.9853 6.12966 41.1333 6.14484 41.2811C6.16001 41.4288 6.23081 41.5653 6.34287 41.6627C7.97215 43.1594 9.83359 44.3816 11.8545 45.2818L11.9957 45.3477C12.7948 45.7305 14.1526 45.7021 14.7739 45.706C14.8214 46.0267 14.8766 46.3562 14.9433 46.6975C14.9682 46.8262 15.037 46.9422 15.1381 47.0257C15.2391 47.1092 15.366 47.1549 15.497 47.1551C15.5333 47.155 15.5694 47.1515 15.605 47.1446C15.7521 47.1162 15.8818 47.0305 15.9656 46.9064C16.0495 46.7823 16.0806 46.63 16.0521 46.4829C15.213 42.1453 16.0442 39.6242 16.5943 37.9559L16.68 37.695C16.8776 37.1092 17.0182 36.5057 17.1 35.8929C17.2814 36.0215 17.4416 36.1777 17.5746 36.3559C17.6181 36.4178 17.6736 36.4704 17.7378 36.5105C17.8019 36.5505 17.8735 36.5773 17.9483 36.5891C18.023 36.601 18.0994 36.5977 18.1728 36.5795C18.2462 36.5612 18.3153 36.5284 18.3758 36.483C18.4939 36.3883 18.5705 36.2514 18.5896 36.1013C18.6086 35.9511 18.5685 35.7994 18.4778 35.6783C17.938 34.9334 17.0052 34.5136 16.8011 34.428C15.5387 33.7871 15.4176 32.1874 15.4161 32.1734C15.4161 32.171 15.4152 32.1689 15.415 32.1665C15.4149 32.1641 15.415 32.1617 15.415 32.1593C15.3652 31.5671 15.3818 30.4528 15.6375 29.9767C15.6929 29.8809 15.7183 29.7708 15.7106 29.6604C15.7029 29.5501 15.6623 29.4445 15.5942 29.3574C15.5363 29.2831 15.4609 29.2243 15.3747 29.1863C15.2885 29.1484 15.1942 29.1325 15.1003 29.14C15.0064 29.1475 14.9159 29.1783 14.8368 29.2295C14.7578 29.2807 14.6927 29.3507 14.6474 29.4333C14.3136 30.0475 14.2586 31.0108 14.264 31.6419H12.13C11.479 27.922 12.7512 26.1452 14.0672 25.2974C14.1234 25.2744 14.1756 25.2424 14.2216 25.2027C14.5779 24.9941 14.9586 24.8302 15.355 24.7148C15.5642 26.6066 16.2128 28.1505 17.2891 29.319C17.4331 29.4753 17.5831 29.6262 17.7423 29.7689C18.4174 30.3668 19.1982 30.8335 20.0445 31.145C19.9779 31.8839 19.9973 32.6281 20.1024 33.3626C20.1014 33.6987 20.1138 35.6704 20.5208 37.0049C20.5561 37.1207 20.6276 37.222 20.7248 37.294C20.822 37.3661 20.9398 37.405 21.0608 37.405C21.1507 37.4053 21.2394 37.3841 21.3194 37.3432C21.3995 37.3023 21.4686 37.2428 21.521 37.1697C21.5733 37.0966 21.6075 37.0121 21.6205 36.9231C21.6335 36.8341 21.6251 36.7434 21.5959 36.6583C21.4557 36.1472 21.3627 35.6244 21.3179 35.0963C21.4788 35.1831 21.6494 35.2504 21.8261 35.297C22.1047 35.367 22.3887 35.4135 22.675 35.436V37.3048C22.6727 37.4481 22.7233 37.5873 22.8173 37.6955C22.9113 37.8037 23.042 37.8734 23.1842 37.8912C23.2627 37.899 23.3419 37.8902 23.4168 37.8655C23.4917 37.8407 23.5605 37.8006 23.619 37.7476C23.6774 37.6947 23.7241 37.6301 23.756 37.558C23.788 37.4859 23.8045 37.4079 23.8044 37.3291V35.4353C24.0908 35.4128 24.3748 35.3663 24.6535 35.2963C24.8303 35.2498 25.0009 35.1823 25.1617 35.0954C25.1169 35.6235 25.0238 36.1465 24.8834 36.6576C24.8542 36.7427 24.8458 36.8335 24.8588 36.9224C24.8719 37.0114 24.906 37.096 24.9584 37.1691C25.0108 37.2421 25.0799 37.3016 25.1599 37.3426C25.24 37.3835 25.3287 37.4046 25.4186 37.4043C25.5396 37.4043 25.6574 37.3654 25.7546 37.2933C25.8519 37.2213 25.9234 37.1199 25.9586 37.0042C26.3664 35.6675 26.3781 33.6908 26.3771 33.3602C26.4009 33.2125 26.4213 33.0576 26.4362 32.8965C26.4504 32.7645 26.4187 32.6316 26.3464 32.5202C26.2741 32.4088 26.1656 32.3257 26.0392 32.285C25.9589 32.2607 25.8742 32.2545 25.7913 32.2671C25.7083 32.2796 25.6292 32.3105 25.5596 32.3575C25.4901 32.4044 25.4319 32.4663 25.3893 32.5386C25.3466 32.6108 25.3206 32.6917 25.3132 32.7753C25.2991 32.9338 25.2796 33.0859 25.2556 33.2253C25.217 33.4563 25.1128 33.6713 24.9555 33.8447C24.7981 34.0181 24.5942 34.1426 24.368 34.2033C23.6252 34.3753 22.8529 34.3753 22.1102 34.2033C21.884 34.1426 21.6801 34.0182 21.5227 33.8448C21.3653 33.6714 21.2612 33.4564 21.2226 33.2255C21.1359 32.6469 21.1125 32.0605 21.1528 31.4769C21.8363 31.6369 22.5372 31.7108 23.239 31.697C23.2753 31.6984 23.3378 31.7002 23.4245 31.7002C24.1826 31.7002 26.7396 31.559 28.7371 29.7686C28.8964 29.6259 29.0463 29.475 29.1903 29.3187C30.2673 28.1502 30.9159 26.6063 31.1251 24.7145C32.6395 25.1595 35.2231 26.6531 34.35 31.6416H32.2183C32.2235 31.0236 32.171 30.0868 31.8553 29.4716C31.7955 29.346 31.6925 29.246 31.5651 29.19C31.4377 29.134 31.2945 29.1256 31.1614 29.1664C31.0829 29.1923 31.0111 29.2352 30.9509 29.292C30.8908 29.3487 30.8439 29.418 30.8135 29.4949C30.7831 29.5718 30.77 29.6544 30.775 29.7369C30.78 29.8195 30.8031 29.8999 30.8426 29.9725C31.0993 30.4443 31.1167 31.5643 31.0672 32.1593C31.0672 32.1617 31.0672 32.1638 31.0672 32.1662C31.0672 32.1686 31.0663 32.1707 31.0661 32.1731C31.0651 32.1892 30.9568 33.78 29.6812 34.4277C29.4769 34.5133 28.5426 34.934 28.0029 35.6801C27.9124 35.8014 27.8728 35.9532 27.8923 36.1032C27.9118 36.2532 27.9889 36.3898 28.1073 36.484C28.1678 36.5293 28.2368 36.562 28.3102 36.5802C28.3835 36.5983 28.4598 36.6016 28.5345 36.5897C28.6091 36.5779 28.6806 36.5512 28.7447 36.5112C28.8089 36.4712 28.8643 36.4187 28.9078 36.3569C29.0408 36.1787 29.2009 36.0224 29.3823 35.8939C29.4378 36.3465 29.888 37.9569 29.888 37.9569C30.4386 39.625 31.2694 42.1461 30.4303 46.4839C30.4018 46.631 30.4329 46.7833 30.5168 46.9074C30.6006 47.0315 30.7303 47.1172 30.8774 47.1456C30.913 47.1525 30.9491 47.156 30.9854 47.1561C31.1164 47.1559 31.2433 47.1101 31.3443 47.0267C31.4454 46.9432 31.5142 46.8272 31.5391 46.6985C32.3202 42.6609 31.7442 40.0987 31.1949 38.329H34.3739C34.5951 39.3438 35.0923 42.2197 34.7974 46.5528C34.7924 46.6268 34.8019 46.7011 34.8256 46.7714C34.8493 46.8417 34.8865 46.9066 34.9353 46.9625C34.984 47.0184 35.0433 47.0641 35.1097 47.0971C35.1762 47.1301 35.2485 47.1496 35.3224 47.1547C35.3356 47.1555 35.3486 47.1559 35.3614 47.1559C35.5045 47.1558 35.6421 47.1014 35.7466 47.0036C35.8511 46.9059 35.9146 46.7722 35.9243 46.6295C36.2802 41.3932 35.526 38.231 35.3829 37.6892L35.3833 35.08ZM2.58885 6.3195C2.64447 5.79262 2.80607 5.28243 3.06391 4.8196C3.32176 4.35677 3.67053 3.95086 4.08927 3.62628L4.16198 3.5715C4.2454 3.50925 4.34479 3.47199 4.44857 3.46407C4.55236 3.45614 4.65626 3.47787 4.74817 3.52672C4.84008 3.57558 4.91621 3.64954 4.96769 3.74C5.01918 3.83047 5.04389 3.9337 5.03896 4.03766C5.0024 4.77545 4.91896 6.53649 4.82395 9.01046C3.93835 9.22457 3.09084 9.57329 2.31101 10.0444C2.38075 8.6595 2.47167 7.38355 2.58885 6.3195ZM2.2479 11.4459C3.00839 10.8767 3.86614 10.4507 4.7792 10.1887C4.77016 10.4356 4.71694 11.9699 4.70706 12.2705C3.813 12.4492 2.95885 12.7888 2.18621 13.2729C2.20372 12.6552 2.22419 12.0442 2.2479 11.4459ZM2.09092 19.5158C2.09346 18.9676 2.09727 18.4028 2.10292 17.8272C2.57899 17.4429 3.09035 17.1045 3.63016 16.8165C3.69589 16.7822 3.7542 16.7352 3.80177 16.6783C3.84934 16.6214 3.88523 16.5557 3.90741 16.4849C3.92958 16.4142 3.9376 16.3397 3.931 16.2658C3.92441 16.192 3.90333 16.1201 3.86896 16.0544C3.8346 15.9887 3.78763 15.9304 3.73073 15.8828C3.67383 15.8352 3.60812 15.7993 3.53735 15.7771C3.46658 15.755 3.39213 15.747 3.31826 15.7536C3.24439 15.7601 3.17255 15.7812 3.10682 15.8156C2.76685 15.9949 2.43742 16.1935 2.12014 16.4105C2.12875 15.8275 2.13906 15.2387 2.1519 14.6512C2.56696 14.3486 3.57369 13.6793 4.67049 13.4282C4.62278 14.9598 4.58014 16.4906 4.54456 18.0092C3.64014 18.3545 2.80803 18.8655 2.09092 19.5158ZM5.62767 37.1294C5.62733 37.3914 5.52311 37.6426 5.33785 37.8278C5.15259 38.0131 4.90143 38.1173 4.63943 38.1177H2.09826C1.83625 38.1174 1.58506 38.0132 1.3998 37.8279C1.21453 37.6426 1.11032 37.3914 1.11002 37.1294V32.4706C1.11028 32.2181 1.21072 31.9759 1.3893 31.7974C1.56787 31.6188 1.81 31.5184 2.06254 31.5181H4.67515C4.92769 31.5184 5.16982 31.6188 5.34839 31.7974C5.52697 31.9759 5.62741 32.2181 5.62767 32.4706V37.1294ZM7.8512 34.9234C7.85094 35.162 7.75603 35.3908 7.58731 35.5595C7.41858 35.7282 7.18981 35.8231 6.9512 35.8234H6.75708V32.4715C6.75708 32.4356 6.75341 32.4009 6.75172 32.3652H6.9512C7.18981 32.3654 7.41858 32.4603 7.58731 32.629C7.75603 32.7978 7.85094 33.0265 7.8512 33.2651V34.9234ZM13.2714 37.1983H12.2935C12.2928 37.1887 12.2161 35.6558 12.2157 35.6441H13.2714V37.1983ZM12.2126 32.7702H14.3688C14.5144 33.4405 14.9168 34.5856 16.0129 35.2776C15.9841 35.9317 15.8626 36.5784 15.652 37.1983H14.4008V35.572C14.5106 35.5119 14.5973 35.4169 14.6471 35.3021C14.6969 35.1873 14.707 35.0591 14.6758 34.9379C14.6446 34.8166 14.5739 34.7093 14.4749 34.6327C14.3758 34.5562 14.2541 34.5149 14.1289 34.5153H12.1975C12.1935 33.8101 12.203 33.1876 12.2124 32.7708L12.2126 32.7702ZM28.3709 15.9885C28.3735 16.1784 28.306 16.3625 28.1814 16.5057C28.0567 16.6489 27.8837 16.7412 27.6954 16.765C27.6974 16.7108 27.6995 16.6566 27.6995 16.6018V14.1035C27.8859 14.131 28.0563 14.2245 28.1795 14.367C28.3028 14.5095 28.3707 14.6916 28.3709 14.88V15.9885ZM32.7792 10.6819C32.7454 11.243 32.6346 11.7969 32.4498 12.3278C30.9174 12.82 29.2947 12.9646 27.6995 12.7514V12.1333C27.6995 12.0658 27.6974 11.9989 27.6944 11.9321C29.5367 11.5043 31.2653 10.6849 32.7626 9.52943C32.7996 9.91247 32.8052 10.2979 32.7792 10.6819ZM32.5269 8.26195C31.0741 9.49445 29.3528 10.3696 27.501 10.8172C27.4143 10.5367 27.2999 10.2656 27.1595 10.0077C29.3878 8.31757 30.6974 6.66256 31.3176 5.75564C31.8673 6.51203 32.2769 7.36091 32.5269 8.26195ZM23.8057 1.98439C24.7117 2.02994 25.6089 2.18436 26.478 2.44435C26.1517 3.90344 25.7052 5.33306 25.1433 6.71861C25.0861 6.85714 25.0863 7.01272 25.1438 7.15113C25.2014 7.28953 25.3115 7.39941 25.45 7.45661C25.5886 7.5138 25.7442 7.51362 25.8826 7.4561C26.021 7.39858 26.1309 7.28844 26.188 7.1499C26.7584 5.74885 27.2143 4.30389 27.5512 2.82919C28.6797 3.29581 29.7024 3.98517 30.5583 4.85606C30.0971 5.57098 28.8312 7.31691 26.4984 9.09263C25.7898 8.33212 24.8374 7.84359 23.8064 7.71178L23.8057 1.98439ZM23.241 8.80406C23.9522 8.80494 24.6444 9.03313 25.2167 9.45533C25.789 9.87752 26.2114 10.4716 26.4221 11.1508C25.9208 11.2823 25.3946 11.2865 24.8912 11.163C24.3879 11.0396 23.9233 10.7924 23.5397 10.4438C23.4666 10.3673 23.3734 10.3129 23.2709 10.2868C23.1683 10.2607 23.0605 10.2639 22.9597 10.2961C22.8588 10.3283 22.7691 10.3882 22.7007 10.4689C22.6323 10.5496 22.5879 10.648 22.5727 10.7527L22.5207 11.1098C22.5094 11.1891 22.4825 11.2655 22.4414 11.3344C22.4003 11.4032 22.3459 11.4632 22.2814 11.5108C22.2193 11.5576 22.1484 11.5915 22.0731 11.6105C21.9977 11.6296 21.9192 11.6335 21.8424 11.6219C21.6596 11.595 21.4803 11.5488 21.3073 11.484C21.1672 11.431 21.0118 11.4358 20.8753 11.4974C20.7388 11.5589 20.6323 11.6722 20.5792 11.8123C20.5262 11.9523 20.531 12.1077 20.5926 12.2443C20.6541 12.3808 20.7674 12.4873 20.9075 12.5403C21.1555 12.6335 21.4127 12.7001 21.6748 12.7391C21.7599 12.7517 21.8458 12.7581 21.9319 12.7581C22.3007 12.758 22.6597 12.6384 22.955 12.4173C23.1762 12.2541 23.3552 12.0405 23.4773 11.7942C24.4088 12.3448 25.516 12.5172 26.5708 12.2759V16.6024C26.5736 17.0414 26.4896 17.4766 26.3236 17.8831C26.1576 18.2895 25.9128 18.659 25.6034 18.9705C25.294 19.2819 24.926 19.5291 24.5207 19.6978C24.1153 19.8664 23.6806 19.9533 23.2416 19.9533C22.8026 19.9533 22.3679 19.8664 21.9626 19.6978C21.5572 19.5291 21.1893 19.2819 20.8799 18.9705C20.5704 18.659 20.3257 18.2895 20.1596 17.8831C19.9936 17.4766 19.9096 17.0414 19.9125 16.6024V12.1333C19.9135 11.2508 20.2645 10.4046 20.8884 9.78053C21.5124 9.15642 22.3585 8.80526 23.241 8.80406ZM26.0494 21.8571C25.7671 22.8801 25.0495 24.3277 23.241 24.3277C21.4325 24.3277 20.7139 22.8802 20.4327 21.8571C20.7002 21.4726 20.8779 21.0329 20.9525 20.5704L20.9738 20.4393C21.6601 20.8462 22.4432 21.061 23.2411 21.061C24.0389 21.061 24.822 20.8462 25.5083 20.4393L25.5295 20.5704C25.6042 21.0329 25.7819 21.4726 26.0494 21.8571ZM15.1647 5.75592C16.0775 7.05487 17.1565 8.22858 18.3744 9.24708C18.4886 9.34287 18.636 9.38963 18.7846 9.37714C18.9331 9.36466 19.0707 9.29395 19.1673 9.18043C19.2639 9.06691 19.3117 8.9198 19.3003 8.77117C19.2889 8.62254 19.2192 8.48446 19.1064 8.38703C17.8832 7.36896 16.8123 6.18089 15.9262 4.85903C16.7805 3.98562 17.8026 3.2941 18.9312 2.82609C19.1809 3.9243 19.78 6.20628 20.8479 8.37432C19.9565 8.94279 19.2951 9.80839 18.9807 10.8178C17.1289 10.3701 15.4077 9.49496 13.9548 8.26251C14.2049 7.36136 14.6146 6.51239 15.1644 5.75592H15.1647ZM14.0328 12.3278C13.848 11.7969 13.7372 11.243 13.7035 10.6819C13.6775 10.2981 13.6831 9.91294 13.72 9.53014C15.2175 10.6853 16.9461 11.5045 18.7883 11.9321C18.7853 11.9989 18.7831 12.0658 18.7831 12.1333V12.7509C17.1879 12.9645 15.5651 12.82 14.0328 12.3278ZM18.7872 16.7656C18.5988 16.7418 18.4258 16.6495 18.3012 16.5063C18.1766 16.363 18.1091 16.1789 18.1116 15.9891V14.88C18.1119 14.6916 18.1799 14.5096 18.3031 14.3671C18.4263 14.2246 18.5966 14.1311 18.7829 14.1035V16.6024C18.7824 16.6571 18.7846 16.7114 18.7866 16.7656H18.7872ZM15.7192 23.4573H15.7181C15.636 23.4795 15.5529 23.4998 15.4687 23.5185C14.8935 23.6471 14.3391 23.8552 13.8214 24.137C13.0809 23.7558 12.7102 23.2569 12.7215 22.6499C12.7479 21.2214 13.9574 21.0743 14.1957 21.0595C14.334 21.0529 14.465 20.9957 14.5639 20.8988C14.6629 20.8019 14.7227 20.672 14.7321 20.5339C14.7375 20.4389 14.7192 20.344 14.679 20.2578C14.6387 20.1716 14.5778 20.0967 14.5016 20.0397C14.1025 19.7359 13.9115 19.4104 13.9176 19.0447C13.9263 18.8894 13.9707 18.7382 14.0474 18.6029C14.1241 18.4676 14.2311 18.3518 14.3599 18.2646C15.2089 17.6642 15.8675 16.8324 16.2571 15.8683C16.3587 15.6163 16.3587 15.3348 16.2571 15.0829L16.2532 15.073C16.1792 14.8896 16.0544 14.7311 15.8936 14.616C15.5049 14.3518 15.1443 14.0484 14.8174 13.7107C15.6031 13.8797 16.4037 13.9702 17.2074 13.9807C17.0594 14.2572 16.982 14.566 16.9822 14.8796V15.9881C16.9802 16.4663 17.158 16.9278 17.4803 17.2811C17.8027 17.6343 18.2461 17.8534 18.7225 17.895C18.8011 17.9008 18.8823 17.9037 18.965 17.9037H18.9772C19.1732 18.5423 19.51 19.1287 19.9629 19.6197L19.8384 20.39C19.7585 20.8999 19.4827 21.3585 19.0696 21.6679C18.6416 21.986 18.195 22.2783 17.7321 22.5432L17.7296 22.5448C17.3088 22.7865 16.8762 23.0069 16.4332 23.2051C16.202 23.3078 15.9631 23.3924 15.7187 23.4579L15.7192 23.4573ZM17.6675 27.9915C16.9966 27.0388 16.5917 25.8391 16.4583 24.4076C16.6074 24.3549 16.7539 24.2986 16.8945 24.2356C17.1592 24.1173 17.4098 23.9956 17.6474 23.8739C17.89 24.8476 18.325 25.7628 18.9266 26.5658C18.4443 26.9823 18.0205 27.4621 17.6666 27.9921L17.6675 27.9915ZM22.6771 30.557C22.0513 30.5175 21.4324 30.4041 20.8332 30.2191L20.826 30.2169C19.9665 29.9585 19.1725 29.5185 18.4977 28.9267C18.4784 28.9093 18.4603 28.8907 18.4413 28.873C18.7815 28.3103 19.2106 27.8063 19.7119 27.3808C20.5524 28.0735 21.5907 28.4821 22.6778 28.5482L22.6771 30.557ZM23.2418 27.444C21.8505 27.444 20.8656 26.9554 20.1669 26.2638C20.1527 26.2477 20.1376 26.2323 20.1217 26.2179C19.2876 25.3666 18.8736 24.2246 18.6688 23.3001C19.0053 23.0938 19.2964 22.8974 19.5386 22.7238C19.9859 23.8595 21.0114 25.4564 23.2418 25.4564C25.4723 25.4564 26.4979 23.8595 26.9452 22.7238C27.1874 22.8974 27.4785 23.0938 27.815 23.3001C27.6104 24.2243 27.1965 25.3659 26.3628 26.2172C26.3462 26.2322 26.3305 26.2481 26.3157 26.2649C25.6163 26.9565 24.6316 27.4447 23.241 27.4447L23.2418 27.444ZM23.8065 30.5611V28.5487C24.8937 28.4826 25.932 28.074 26.7727 27.3815C27.2741 27.8072 27.7031 28.3113 28.0432 28.8743C26.5795 30.2345 24.7118 30.5121 23.8057 30.5616L23.8065 30.5611ZM28.8141 27.988C28.461 27.4596 28.0384 26.9813 27.5576 26.5658C28.1592 25.7628 28.5941 24.8476 28.8368 23.8741C29.0743 23.9959 29.3248 24.1173 29.5894 24.2356C29.7306 24.2986 29.8764 24.3548 30.0254 24.4073C29.8791 25.9576 29.4241 27.1189 28.8139 27.9885L28.8141 27.988ZM34.2547 37.1983H33.2549V35.6447H34.2547V37.1983ZM34.2547 34.5147H32.2112C32.069 34.5144 31.932 34.5678 31.8276 34.6643C31.7231 34.7608 31.659 34.8931 31.6481 35.0349C31.6371 35.1766 31.6801 35.3173 31.7685 35.4286C31.8569 35.54 31.9841 35.6138 32.1247 35.6354V37.1983H30.8301C30.6196 36.5786 30.4979 35.9322 30.4687 35.2783C31.565 34.5866 31.9675 33.4409 32.1132 32.7706H34.2539L34.2547 34.5147Z" fill="#ED484A"/>
<path d="M23.241 19.1105C25.2574 19.1105 25.8096 17.1667 25.8199 16.139C25.8206 16.0643 25.8066 15.9903 25.7786 15.9211C25.7505 15.8519 25.7091 15.789 25.6565 15.7359C25.604 15.6829 25.5415 15.6408 25.4726 15.612C25.4037 15.5833 25.3298 15.5685 25.2552 15.5685H21.2268C21.1522 15.5685 21.0783 15.5833 21.0094 15.612C20.9405 15.6408 20.878 15.6829 20.8255 15.7359C20.773 15.789 20.7315 15.8519 20.7035 15.9211C20.6754 15.9903 20.6614 16.0643 20.6621 16.139C20.6724 17.167 21.2246 19.1105 23.241 19.1105ZM24.6165 16.6979C24.4908 17.2433 24.1523 17.981 23.241 17.981C22.3262 17.981 21.9885 17.2469 21.8641 16.6979H24.6165Z" fill="#ED484A"/>
<path d="M21.3073 14.4141L21.778 14.622C21.8458 14.652 21.9189 14.6683 21.993 14.6701C22.0672 14.6718 22.1409 14.6589 22.2101 14.6321C22.2793 14.6054 22.3425 14.5652 22.3961 14.514C22.4498 14.4628 22.4928 14.4016 22.5228 14.3337C22.5528 14.2659 22.5691 14.1928 22.5709 14.1187C22.5726 14.0445 22.5597 13.9708 22.5329 13.9016C22.5062 13.8324 22.466 13.7692 22.4148 13.7156C22.3636 13.6619 22.3024 13.6189 22.2345 13.5889L21.7637 13.3808C21.6959 13.3508 21.6228 13.3345 21.5486 13.3328C21.4745 13.3311 21.4007 13.344 21.3315 13.3707C21.2624 13.3975 21.1992 13.4377 21.1455 13.4889C21.0919 13.5401 21.0488 13.6014 21.0189 13.6692C20.9889 13.7371 20.9726 13.8102 20.9709 13.8843C20.9691 13.9585 20.982 14.0322 21.0088 14.1014C21.0356 14.1705 21.0757 14.2338 21.1269 14.2874C21.1782 14.3411 21.2394 14.3841 21.3073 14.4141Z" fill="#ED484A"/>
<path d="M24.4755 14.6709C24.554 14.6709 24.6317 14.6544 24.7036 14.6226L25.1743 14.4147C25.3113 14.3542 25.4187 14.2417 25.4728 14.102C25.5268 13.9623 25.5232 13.8069 25.4627 13.6698C25.4022 13.5328 25.2897 13.4254 25.15 13.3714C25.0103 13.3173 24.8549 13.3209 24.7179 13.3814L24.247 13.5895C24.1284 13.6418 24.0315 13.7333 23.9723 13.8486C23.9132 13.964 23.8956 14.0961 23.9223 14.2229C23.9491 14.3497 24.0187 14.4635 24.1194 14.545C24.2201 14.6266 24.3459 14.6711 24.4755 14.6709Z" fill="#ED484A"/>
<path d="M23.2405 43.4336C23.0907 43.4336 22.9471 43.4931 22.8412 43.599C22.7353 43.7049 22.6758 43.8485 22.6758 43.9983V44.5835C22.6758 44.7332 22.7353 44.8769 22.8412 44.9828C22.9471 45.0887 23.0907 45.1482 23.2405 45.1482C23.3903 45.1482 23.5339 45.0887 23.6398 44.9828C23.7457 44.8769 23.8052 44.7332 23.8052 44.5835V43.998C23.8051 43.8483 23.7456 43.7047 23.6397 43.5989C23.5338 43.4931 23.3902 43.4336 23.2405 43.4336Z" fill="#ED484A"/>
</g>
<defs>
<clipPath id="clip0_141_570">
<rect width="48" height="48" fill="white"/>
</clipPath>
</defs>
</svg>
