<svg width="36" height="48" viewBox="0 0 36 48" fill="none" xmlns="http://www.w3.org/2000/svg">
<path d="M3.2545 8.28432L9.15281 10.8775C7.98331 12.6063 7.37315 14.5894 7.37315 16.6741C7.37315 22.3691 12.0003 27.047 17.746 27.047C23.4918 27.047 28.1189 22.4199 28.1189 16.6741C28.1189 14.6402 27.5087 12.6063 26.3901 10.9284L31.5765 8.48771V18.3521L30.0003 21.708C29.8986 21.9623 29.8986 22.2165 30.0511 22.4199C30.2037 22.6233 30.4579 22.7758 30.7121 22.7758H33.7121C33.9664 22.7758 34.2206 22.6741 34.3223 22.4199C34.4748 22.2165 34.4748 21.9623 34.3731 21.708L33.0003 18.3521V7.82669C33.0003 7.41991 32.9494 7.11483 32.2376 6.80974C32.085 6.75889 18.102 0.555504 18.102 0.555504C17.8986 0.453809 17.6952 0.453809 17.4918 0.555504L3.2545 6.86059C3.00026 6.96228 2.79688 7.26737 2.79688 7.57245C2.79688 7.87754 2.94942 8.13177 3.2545 8.28432ZM26.5426 16.6741C26.5426 21.5555 22.5765 25.5216 17.6952 25.5216C12.8138 25.5216 8.84772 21.5555 8.84772 16.6741C8.84772 14.7928 9.45789 13.0131 10.5257 11.4877L17.4409 14.5894C17.5426 14.6402 17.6443 14.6402 17.746 14.6402C17.8477 14.6402 17.9494 14.6402 18.0511 14.5894L24.8647 11.5386C25.9833 13.064 26.5426 14.8436 26.5426 16.6741ZM31.8816 21.2504L32.2376 20.4877L32.5426 21.2504H31.8816ZM17.7969 2.08093L30.1528 7.57245L17.7969 13.064L5.44094 7.57245L17.7969 2.08093Z" fill="#ED484A"/>
<path d="M18 28.8775C8.08475 28.8775 0 36.9623 0 46.8775C0 47.2843 0.355932 47.6402 0.762712 47.6402H35.2373C35.6441 47.6402 36 47.2843 36 46.8775C36 36.9623 27.9153 28.8775 18 28.8775ZM1.57627 46.1148C1.98305 37.369 9.20339 30.4029 18.0508 30.4029C26.8983 30.4029 34.0678 37.4199 34.4746 46.1148H1.57627Z" fill="#ED484A"/>
</svg>
