<svg width="40" height="40" viewBox="0 0 40 40" fill="none" xmlns="http://www.w3.org/2000/svg">
<path d="M40 20C40 31.0457 31.0457 40 20 40C8.9543 40 0 31.0457 0 20C0 8.9543 8.9543 0 20 0C31.0457 0 40 8.9543 40 20Z" fill="#ED484A"/>
<path d="M29 15.7501C29 15.3335 28.8828 14.9474 28.6952 14.6077L22.6961 21.3198L28.6301 26.5115C28.8609 26.1452 29 25.7149 29 25.2499V15.7501ZM19.5 20.1011L27.757 27.3258C27.4182 27.5112 27.0366 27.625 26.6251 27.625H12.375C11.9629 27.625 11.5812 27.5112 11.2437 27.3258L19.5 20.1011ZM21.802 20.5381L19.8907 18.8648C19.7789 18.7674 19.6397 18.7187 19.5 18.7187C19.3602 18.7187 19.221 18.7674 19.1092 18.8648L17.1975 20.5382L11.1225 13.7403C11.4867 13.5119 11.9134 13.375 12.3749 13.375H26.6251C27.0865 13.375 27.5134 13.5119 27.8775 13.7403L21.802 20.5381ZM10.37 26.5116C10.1392 26.1453 10 25.7149 10 25.2499V15.75C10 15.3335 10.1166 14.9474 10.305 14.6076L16.3034 21.3209L10.37 26.5116Z" fill="white"/>
</svg>
