<svg width="20" height="16" viewBox="0 0 20 16" fill="none" xmlns="http://www.w3.org/2000/svg">
<path d="M20 3.00008C20 2.56163 19.8767 2.15517 19.6791 1.79755L13.3643 8.86293L19.6106 14.3279C19.8536 13.9423 20 13.4894 20 12.9999V3.00008ZM10 7.58006L18.6916 15.185C18.335 15.3803 17.9333 15.5 17.5001 15.5H2.49998C2.06619 15.5 1.66443 15.3803 1.3092 15.185L10 7.58006ZM12.4232 8.04015L10.4113 6.27869C10.2936 6.17618 10.1471 6.12499 10 6.12499C9.85287 6.12499 9.70633 6.17618 9.58865 6.27869L7.57633 8.04024L1.18163 0.884543C1.56493 0.644071 2.01413 0.50001 2.49994 0.50001H17.5001C17.9858 0.50001 18.4352 0.644071 18.8184 0.884543L12.4232 8.04015ZM0.389439 14.328C0.146493 13.9424 0 13.4894 0 12.9999V3.00004C0 2.56159 0.122751 2.15512 0.321056 1.79751L6.63513 8.86412L0.389439 14.328Z" fill="#ED484A"/>
</svg>
