<svg width="34" height="34" viewBox="0 0 34 34" fill="none" xmlns="http://www.w3.org/2000/svg">
<path d="M31.875 14.875L25.5 19.125C25.5 17.8351 24.9135 16.694 24.0061 15.9141C26.1662 14.6126 27.625 12.2676 27.625 9.5625C27.625 5.45483 24.2951 2.125 20.1875 2.125C16.0799 2.125 12.75 5.45489 12.75 9.5625C12.75 11.6461 13.6117 13.5246 14.9929 14.875H11.0957C12.1136 13.7456 12.75 12.2655 12.75 10.625C12.75 7.10389 9.89611 4.25 6.375 4.25C2.85389 4.25 0 7.10389 0 10.625C0 12.546 0.868056 14.2481 2.21211 15.4169C0.899945 16.1404 0 17.5206 0 19.125V27.625C0 29.9721 1.90294 31.875 4.25 31.875H21.25C23.5971 31.875 25.5 29.9721 25.5 27.625V26.5625L31.875 31.875C33.0491 31.875 34 30.9241 34 29.75V17C34 15.8259 33.0491 14.875 31.875 14.875ZM2.125 10.625C2.125 8.27794 4.02794 6.375 6.375 6.375C8.72206 6.375 10.625 8.27794 10.625 10.625C10.625 12.9721 8.72206 14.875 6.375 14.875C4.02794 14.875 2.125 12.9721 2.125 10.625ZM23.375 27.625C23.375 28.798 22.4241 29.75 21.25 29.75H4.25C3.07594 29.75 2.125 28.7991 2.125 27.625V19.125C2.125 17.9509 3.07594 17 4.25 17H21.25C22.4241 17 23.375 17.9509 23.375 19.125V27.625ZM20.1875 14.8867C17.2465 14.8867 14.8633 12.5024 14.8633 9.5625C14.8633 6.6215 17.2476 4.23833 20.1875 4.23833C23.1274 4.23833 25.5117 6.6215 25.5117 9.5625C25.5117 12.5035 23.1284 14.8867 20.1875 14.8867ZM31.875 29.75L25.5 24.4375V21.25L31.875 17V29.75Z" fill="#282835" fill-opacity="0.4"/>
</svg>
