<svg width="24" height="24" viewBox="0 0 24 24" fill="none" xmlns="http://www.w3.org/2000/svg">
<path d="M13.0073 16.6815C12.714 16.9748 12.714 17.4495 13.0073 17.742C13.3005 18.0353 13.7753 18.0353 14.0678 17.742L19.242 12.567C19.398 12.411 19.4648 12.2033 19.4542 11.9992C19.4648 11.7945 19.398 11.5875 19.242 11.4315L14.0678 6.25726C13.7753 5.964 13.2998 5.964 13.0073 6.25726C12.714 6.55051 12.714 7.02526 13.0073 7.31773L16.9395 11.25H0.75C0.336 11.25 0 11.586 0 12C0 12.414 0.336 12.75 0.75 12.75H16.9395L13.0073 16.6815ZM21 1.5H6C4.34326 1.5 3 2.84325 3 4.5V7.5H4.5V4.5C4.5 3.672 5.17126 3 6 3H21C21.8287 3 22.5 3.672 22.5 4.5V19.5C22.5 20.328 21.8287 21 21 21H6C5.17126 21 4.5 20.3287 4.5 19.5V16.5H3V19.5C3 21.1567 4.34326 22.5 6 22.5H21C22.6567 22.5 24 21.1567 24 19.5V4.5C24 2.84325 22.6567 1.5 21 1.5Z" fill="#ED484A"/>
</svg>
