<svg width="24" height="24" viewBox="0 0 24 24" fill="none" xmlns="http://www.w3.org/2000/svg">
<g clip-path="url(#clip0_448_297962)">
<path fill-rule="evenodd" clip-rule="evenodd" d="M10.482 10.5172C10.3256 10.6736 10.3256 10.9264 10.482 11.0828L12.882 13.4828C12.96 13.5608 13.0624 13.6 13.1648 13.6C13.2672 13.6 13.3696 13.5608 13.4476 13.4828C13.604 13.3264 13.604 13.0736 13.4476 12.9172L11.0476 10.5172C10.8912 10.3608 10.6384 10.3608 10.482 10.5172ZM9.4476 12.1172C9.2912 11.9608 9.0384 11.9608 8.882 12.1172C8.7256 12.2736 8.7256 12.5264 8.882 12.6828L11.282 15.0828C11.36 15.1608 11.4624 15.2 11.5648 15.2C11.6672 15.2 11.7696 15.1608 11.8476 15.0828C12.004 14.9264 12.004 14.6736 11.8476 14.5172L9.4476 12.1172ZM7.8476 13.7172C7.6912 13.5608 7.4384 13.5608 7.282 13.7172C7.1256 13.8736 7.1256 14.1264 7.282 14.2828L9.682 16.6828C9.76 16.7608 9.8624 16.8 9.9648 16.8C10.0672 16.8 10.1696 16.7608 10.2476 16.6828C10.404 16.5264 10.404 16.2736 10.2476 16.1172L7.8476 13.7172ZM15.3992 12.8L11.1648 8.5656L5.3304 14.4L9.5648 18.6344L15.3992 12.8ZM11.4476 7.7172L16.2476 12.5172C16.404 12.6736 16.404 12.9264 16.2476 13.0828L9.8476 19.4828C9.7696 19.5608 9.6672 19.6 9.5648 19.6C9.4624 19.6 9.36 19.5608 9.282 19.4828L4.482 14.6828C4.3256 14.5264 4.3256 14.2736 4.482 14.1172L10.882 7.7172C11.0384 7.5608 11.2912 7.5608 11.4476 7.7172ZM20.7548 14.63C20.5636 14.5176 20.3188 14.582 20.2072 14.7728L15.6224 22.5928C15.2912 23.166 14.5556 23.3632 14.0004 23.0432L13.1072 22.4644C12.9224 22.344 12.6744 22.3972 12.5544 22.5824C12.434 22.768 12.4868 23.0156 12.6724 23.1356L13.5828 23.7256C13.8968 23.9068 14.2404 23.9928 14.5796 23.9928C15.2712 23.9928 15.9444 23.6348 16.3136 22.9952L20.8972 15.1772C21.0088 14.9868 20.9452 14.742 20.7548 14.63ZM23.9648 2V8.4C23.9648 9.6376 23.5712 10.5596 22.6476 11.4828L10.7684 23.3788C10.3904 23.7568 9.888 23.9644 9.3536 23.9644C8.8192 23.9644 8.3172 23.7568 7.94 23.3788L0.586 16.0252C0.208 15.6472 0 15.1448 0 14.6104C0 14.076 0.208 13.574 0.586 13.1964L10.9756 2.8208C8.2588 2.2032 6.5728 2.1616 6.0792 2.306C6.2876 2.5192 6.9368 2.972 8.5036 3.5896C8.7092 3.6708 8.81 3.9028 8.7292 4.1084C8.648 4.314 8.4156 4.4136 8.2104 4.334C4.9672 3.0556 5.1568 2.3468 5.2284 2.08C5.3768 1.524 6.1692 1.3388 7.7924 1.4808C9.1144 1.5964 10.8208 1.9224 12.5972 2.398C14.3736 2.874 16.0136 3.4448 17.216 4.006C18.694 4.6952 19.2864 5.2508 19.1372 5.8072C18.9932 6.344 18.2448 6.4096 17.9988 6.4312C17.9872 6.4324 17.9752 6.4328 17.9636 6.4328C17.7584 6.4328 17.584 6.2756 17.5656 6.0676C17.546 5.8476 17.7088 5.6536 17.9292 5.6344C18.0996 5.6196 18.2128 5.5964 18.286 5.5756C18.1148 5.3968 17.6816 5.118 16.9888 4.786C16.8436 5.0308 16.7648 5.312 16.7648 5.6C16.7648 6.4824 17.4824 7.2 18.3648 7.2C19.2472 7.2 19.9648 6.4824 19.9648 5.6C19.9648 4.7176 19.2472 4 18.3648 4C18.1436 4 17.9648 3.8212 17.9648 3.6C17.9648 3.3788 18.1436 3.2 18.3648 3.2C19.6884 3.2 20.7648 4.2764 20.7648 5.6C20.7648 6.9236 19.6884 8 18.3648 8C17.0412 8 15.9648 6.9236 15.9648 5.6C15.9648 5.1988 16.0704 4.808 16.2588 4.4592C15.3016 4.0572 14.0176 3.6072 12.3904 3.1708C12.2188 3.1248 12.0536 3.0828 11.8884 3.0408L1.1516 13.7624C0.9248 13.9888 0.8 14.2904 0.8 14.6104C0.8 14.9312 0.9248 15.2324 1.1516 15.4592L8.5056 22.8132C8.9588 23.2664 9.7492 23.2664 10.2024 22.8132L22.0816 10.9172C22.8612 10.138 23.1648 9.432 23.1648 8.4V2C23.1648 1.3384 22.6264 0.8 21.9648 0.8H15.5648C14.5328 0.8 13.8268 1.1036 13.0476 1.8828C12.8912 2.0392 12.6384 2.0392 12.482 1.8828C12.3256 1.7264 12.3256 1.4736 12.482 1.3172C13.4052 0.3936 14.3272 0 15.5648 0H21.9648C23.0676 0 23.9648 0.8972 23.9648 2Z" fill="#ED484A"/>
</g>
<defs>
<clipPath id="clip0_448_297962">
<rect width="24" height="24" fill="white"/>
</clipPath>
</defs>
</svg>
