<svg width="24" height="24" viewBox="0 0 24 24" fill="none" xmlns="http://www.w3.org/2000/svg">
<path d="M23.8362 8.79401C23.6316 8.14291 23.223 7.57493 22.6706 7.17405C22.1183 6.77317 21.4516 6.56068 20.7692 6.56802H16.4002L15.0732 2.43201C14.8645 1.78097 14.4545 1.21303 13.9022 0.810081C13.3499 0.407132 12.6839 0.190002 12.0002 0.190002C11.3165 0.190002 10.6505 0.407132 10.0982 0.810081C9.54593 1.21303 9.13587 1.78097 8.92719 2.43201L7.60019 6.56802H3.23119C2.55094 6.56898 1.88838 6.7849 1.33817 7.18492C0.787961 7.58494 0.378234 8.14861 0.167514 8.7954C-0.043205 9.4422 -0.0441377 10.139 0.16485 10.7864C0.373837 11.4338 0.782054 11.9985 1.33119 12.4L4.88719 15L3.53519 19.187C3.3167 19.8364 3.31394 20.539 3.5273 21.1901C3.74067 21.8412 4.15874 22.4059 4.71919 22.8C5.27004 23.2068 5.93759 23.4247 6.62235 23.4213C7.30711 23.4179 7.97244 23.1933 8.51919 22.781L12.0002 20.219L15.4822 22.778C16.032 23.1825 16.696 23.4021 17.3786 23.4055C18.0611 23.4088 18.7272 23.1956 19.281 22.7965C19.8347 22.3974 20.2477 21.8331 20.4605 21.1845C20.6733 20.5359 20.6749 19.8366 20.4652 19.187L19.1132 15L22.6732 12.4C23.2286 12.0036 23.6416 11.4388 23.8511 10.7894C24.0605 10.1399 24.0553 9.44027 23.8362 8.79401ZM21.4932 10.785L17.3492 13.814C17.179 13.9382 17.0523 14.1129 16.9873 14.3133C16.9223 14.5138 16.9223 14.7296 16.9872 14.93L18.5622 19.8C18.6419 20.047 18.6412 20.3129 18.5602 20.5595C18.4793 20.8061 18.3222 21.0207 18.1116 21.1724C17.901 21.3241 17.6477 21.4051 17.3882 21.4038C17.1287 21.4024 16.8762 21.3189 16.6672 21.165L12.5922 18.165C12.4206 18.0389 12.2132 17.971 12.0002 17.971C11.7872 17.971 11.5798 18.0389 11.4082 18.165L7.33319 21.165C7.12428 21.3209 6.87113 21.4063 6.61046 21.4086C6.34978 21.411 6.09513 21.3303 5.88342 21.1782C5.67171 21.0261 5.51394 20.8105 5.43299 20.5627C5.35204 20.3149 5.35211 20.0478 5.43319 19.8L7.01319 14.93C7.07811 14.7296 7.07806 14.5138 7.01305 14.3133C6.94805 14.1129 6.8214 13.9382 6.65119 13.814L2.50719 10.785C2.2985 10.6322 2.14343 10.4174 2.06413 10.1712C1.98484 9.92496 1.98538 9.65999 2.06568 9.41411C2.14597 9.16823 2.30192 8.95402 2.51123 8.80207C2.72055 8.65012 2.97254 8.5682 3.23119 8.56802H8.33119C8.54291 8.56801 8.74916 8.50081 8.92024 8.37609C9.09132 8.25137 9.21841 8.07558 9.28319 7.87402L10.8332 3.04302C10.9128 2.7958 11.0687 2.58021 11.2786 2.42726C11.4885 2.27432 11.7415 2.19192 12.0012 2.19192C12.2609 2.19192 12.5139 2.27432 12.7238 2.42726C12.9337 2.58021 13.0896 2.7958 13.1692 3.04302L14.7192 7.87402C14.784 8.07558 14.9111 8.25137 15.0821 8.37609C15.2532 8.50081 15.4595 8.56801 15.6712 8.56802H20.7712C21.0299 8.5682 21.2818 8.65012 21.4912 8.80207C21.7005 8.95402 21.8564 9.16823 21.9367 9.41411C22.017 9.65999 22.0175 9.92496 21.9383 10.1712C21.859 10.4174 21.7039 10.6322 21.4952 10.785H21.4932Z" fill="#282835"/>
</svg>
