<svg width="40" height="40" viewBox="0 0 40 40" fill="none" xmlns="http://www.w3.org/2000/svg">
<circle cx="20" cy="20" r="20" fill="#ED484A"/>
<path d="M20.0049 9.5C17.255 9.5 14.9985 11.7487 14.9985 14.4985C14.9985 17.2484 17.255 19.5049 20.0049 19.5049C22.7547 19.5049 25.0015 17.2484 25.0015 14.4985C25.0015 11.7487 22.7547 9.5 20.0049 9.5ZM16.0025 20.5011C13.0003 20.5011 10 22.5013 10 25.4977V27.7205C10.1906 28.9709 11.0001 29.5019 12.0021 29.5H27.9998C29.0019 29.502 29.6634 28.6655 30 27.7205V25.4977C30.002 21.5012 27.0017 20.5011 23.9975 20.5011H16.0025Z" fill="white"/>
</svg>
