<svg width="24" height="24" viewBox="0 0 24 24" fill="none" xmlns="http://www.w3.org/2000/svg">
<path fill-rule="evenodd" clip-rule="evenodd" d="M23.8869 12.0128C23.8869 12.0128 23.8869 12 23.8869 11.9872C23.8869 11.2835 23.8229 10.5797 23.695 9.87599L21.1359 11.7569V12.0128C21.1359 17.0541 17.0414 21.1486 11.9873 21.1486C6.94596 21.1486 2.85147 17.0541 2.85147 12.0128C2.85147 6.95866 6.94596 2.86417 11.9873 2.86417C13.8426 2.86417 15.634 3.41437 17.1566 4.46358L19.4725 2.76181C17.3613 1.04724 14.7255 0.11319 12.0001 0.11319C5.43612 0.11319 0.113281 5.43602 0.113281 12C0.113281 18.564 5.43612 23.8868 12.0001 23.8868C18.5513 23.8868 23.8741 18.5768 23.8869 12.0128ZM21.4046 4.75787C21.9676 5.47441 22.4538 6.28051 22.8249 7.11221L12.0001 15.0965L7.47056 12.2559V8.85236L12.0001 11.6801L21.4046 4.75787Z" fill="#26A13A"/>
</svg>
