<svg width="10" height="16" viewBox="0 0 10 16" fill="none" xmlns="http://www.w3.org/2000/svg">
<path d="M8.36919 15.8401L9.17068 15.0386C9.27771 14.9318 9.33105 14.8087 9.33105 14.6696C9.33105 14.5309 9.27771 14.4079 9.17068 14.3011L2.86999 8.00008L9.17051 1.69934C9.27754 1.59248 9.33089 1.4695 9.33089 1.33058C9.33089 1.1916 9.27754 1.06862 9.17051 0.961812L8.36896 0.160377C8.26216 0.0533466 8.13918 1.4213e-08 8.0002 1.58703e-08C7.86133 1.75263e-08 7.73835 0.0535151 7.63154 0.160377L0.160434 7.63132C0.0535718 7.73812 0.000168894 7.86116 0.000168896 8.00008C0.000168897 8.13901 0.0535718 8.26182 0.160434 8.36857L7.63154 15.8401C7.73841 15.9469 7.86138 16 8.0002 16C8.13918 16 8.26216 15.9469 8.36919 15.8401Z" fill="#282835"/>
</svg>
