<svg width="10" height="16" viewBox="0 0 10 16" fill="none" xmlns="http://www.w3.org/2000/svg">
<path d="M0.961867 0.15987L0.160376 0.961416C0.0533459 1.06822 -6.47311e-07 1.19126 -6.41231e-07 1.33035C-6.35165e-07 1.46911 0.0533459 1.59209 0.160376 1.69889L6.46106 7.99991L0.160545 14.3007C0.0535151 14.4075 0.000168306 14.5305 0.000168312 14.6694C0.000168318 14.8084 0.0535151 14.9314 0.160545 15.0382L0.962092 15.8396C1.0689 15.9467 1.19188 16 1.33086 16C1.46973 16 1.59271 15.9465 1.69951 15.8396L9.17062 8.36868C9.27748 8.26187 9.33089 8.13884 9.33089 7.99991C9.33089 7.86099 9.27748 7.73818 9.17062 7.63143L1.69951 0.15987C1.59265 0.0530643 1.46967 -6.42414e-08 1.33086 -5.81736e-08C1.19188 -5.20986e-08 1.0689 0.0530643 0.961867 0.15987Z" fill="#282835"/>
</svg>
