<svg width="33" height="33" viewBox="0 0 33 33" fill="none" xmlns="http://www.w3.org/2000/svg">
<path d="M32.5962 30.6529L24.3888 22.4455C26.6254 19.7101 27.7251 16.2196 27.4604 12.6962C27.1956 9.17267 25.5868 5.88574 22.9665 3.51522C20.3463 1.14471 16.9152 -0.128018 13.3828 -0.039699C9.85054 0.0486197 6.48731 1.49123 3.98881 3.98972C1.49031 6.48822 0.0477042 9.85146 -0.0406146 13.3838C-0.128933 16.9161 1.14379 20.3472 3.51431 22.9674C5.88482 25.5877 9.17176 27.1966 12.6952 27.4613C16.2187 27.726 19.7092 26.6264 22.4446 24.3898L30.652 32.5971C30.9113 32.8476 31.2586 32.9862 31.6191 32.9831C31.9797 32.9799 32.3245 32.8353 32.5795 32.5804C32.8344 32.3254 32.979 31.9806 32.9821 31.6201C32.9853 31.2595 32.8467 30.9122 32.5962 30.6529ZM13.7491 24.75C11.5735 24.75 9.44676 24.1049 7.63782 22.8962C5.82888 21.6875 4.41898 19.9695 3.58641 17.9595C2.75385 15.9495 2.53601 13.7378 2.96045 11.604C3.38489 9.47022 4.43254 7.51021 5.97091 5.97183C7.50929 4.43345 9.46931 3.3858 11.6031 2.96137C13.7369 2.53693 15.9486 2.75477 17.9586 3.58733C19.9686 4.41989 21.6866 5.82979 22.8953 7.63873C24.104 9.44767 24.7491 11.5744 24.7491 13.75C24.7458 16.6664 23.5858 19.4624 21.5236 21.5246C19.4615 23.5868 16.6655 24.7467 13.7491 24.75Z" fill="#ED484A"/>
</svg>
