<svg width="20" height="24" viewBox="0 0 20 24" fill="none" xmlns="http://www.w3.org/2000/svg">
<path d="M7 11.6791V15.3394C7 16.3102 7.36875 17.2413 8.02512 17.9278C8.68149 18.6143 9.57173 19 10.5 19C11.4282 19 12.3185 18.6143 12.9748 17.9278C13.6312 17.2413 14 16.3102 14 15.3394V11.6791C14.0023 11.1968 13.9135 10.7188 13.7387 10.2726C13.5639 9.82631 13.3064 9.42059 12.9812 9.07871C12.656 8.73683 12.2694 8.46554 11.8436 8.28042C11.4179 8.0953 10.9613 8 10.5002 8C10.0391 8 9.58255 8.0953 9.15677 8.28042C8.731 8.46554 8.3444 8.73683 8.01918 9.07871C7.69397 9.42059 7.43655 9.82631 7.26172 10.2726C7.0869 10.7188 6.99765 11.1968 7 11.6791ZM10.5019 8.83737C10.8605 8.82985 11.217 8.89823 11.5497 9.03841C11.8825 9.17859 12.1847 9.38767 12.4383 9.6531C12.6918 9.91852 12.8915 10.2348 13.0252 10.583C13.1589 10.9311 13.224 11.3039 13.2165 11.6791V15.3394C13.2186 15.7139 13.1498 16.0852 13.0142 16.4319C12.8786 16.7786 12.6788 17.0938 12.4263 17.3594C12.1738 17.625 11.8736 17.8358 11.5429 17.9796C11.2123 18.1235 10.8577 18.1975 10.4996 18.1975C10.1414 18.1975 9.78686 18.1235 9.45619 17.9796C9.12553 17.8358 8.82531 17.625 8.57282 17.3594C8.32032 17.0938 8.12052 16.7786 7.9849 16.4319C7.84929 16.0852 7.78054 15.7139 7.78261 15.3394V11.6791C7.77548 11.3036 7.84096 10.9306 7.97512 10.5823C8.10928 10.234 8.30935 9.91762 8.56332 9.65221C8.8173 9.3868 9.11993 9.17781 9.45306 9.03779C9.78619 8.89776 10.1429 8.82959 10.5019 8.83737Z" fill="#ED484A"/>
<path d="M15.132 13.4238V15.2119C15.1256 16.3577 14.6343 17.4545 13.7657 18.2623C12.897 19.0701 11.7218 19.5232 10.497 19.5224C9.27215 19.5217 8.09753 19.0671 7.23004 18.2582C6.36255 17.4494 5.87282 16.352 5.86798 15.2062V13.4181C5.86971 13.3635 5.85966 13.3092 5.83843 13.2584C5.81721 13.2075 5.78525 13.1612 5.74446 13.1222C5.70367 13.0832 5.65489 13.0522 5.60104 13.0312C5.54718 13.0102 5.48936 12.9996 5.43102 13C5.37267 13.0004 5.31501 13.0118 5.26148 13.0335C5.20795 13.0552 5.15964 13.0868 5.11945 13.1263C5.07925 13.1659 5.048 13.2126 5.02755 13.2637C5.00709 13.3149 4.99787 13.3693 5.00041 13.4238V15.2119C4.99247 16.5081 5.5113 17.7586 6.45185 18.7104C7.39241 19.6621 8.68441 20.244 10.0663 20.3381V23.1856H7.25537C7.19411 23.1788 7.13201 23.1842 7.07316 23.2015C7.01431 23.2188 6.96004 23.2476 6.91393 23.2859C6.86782 23.3243 6.83092 23.3713 6.80564 23.424C6.78037 23.4766 6.7673 23.5337 6.7673 23.5914C6.7673 23.6491 6.78037 23.7061 6.80564 23.7588C6.83092 23.8114 6.86782 23.8585 6.91393 23.8968C6.96004 23.9351 7.01431 23.9639 7.07316 23.9812C7.13201 23.9985 7.19411 24.0039 7.25537 23.9972H13.7446C13.8581 23.9949 13.966 23.9511 14.0454 23.8753C14.1247 23.7994 14.1692 23.6975 14.1692 23.5914C14.1692 23.4852 14.1247 23.3833 14.0454 23.3075C13.966 23.2316 13.8581 23.1878 13.7446 23.1856H10.9337V20.3381C12.3156 20.244 13.6076 19.6621 14.5482 18.7104C15.4887 17.7586 16.0075 16.5081 15.9996 15.2119V13.4238C16.0021 13.3691 15.9928 13.3144 15.9721 13.2631C15.9514 13.2118 15.9199 13.165 15.8794 13.1254C15.8388 13.0858 15.7902 13.0543 15.7363 13.0328C15.6824 13.0113 15.6244 13.0002 15.5658 13.0002C15.5072 13.0002 15.4492 13.0113 15.3953 13.0328C15.3415 13.0543 15.2928 13.0858 15.2523 13.1254C15.2117 13.165 15.1802 13.2118 15.1595 13.2631C15.1389 13.3144 15.1295 13.3691 15.132 13.4238Z" fill="#ED484A"/>
<path d="M16.4938 2.08833e-05C15.7992 -0.000740292 15.1202 0.200715 14.5436 0.578601C13.967 0.956488 13.5192 1.49361 13.2574 2.12122C12.9956 2.74883 12.9317 3.43838 13.074 4.10159C13.2163 4.76481 13.5582 5.37152 14.056 5.84408L14.2846 7.63414C14.2934 7.70504 14.3209 7.77251 14.3642 7.83005C14.4076 7.88758 14.4654 7.93324 14.5322 7.96261C14.5874 7.98736 14.6474 8.00011 14.7082 8C14.7936 7.99999 14.8771 7.97506 14.9479 7.92841L16.6288 6.81442C17.5453 6.78298 18.4124 6.40131 19.043 5.75175C19.6736 5.10219 20.0171 4.23683 19.9993 3.34241C19.9816 2.44799 19.6041 1.59623 18.9483 0.970917C18.2925 0.345606 17.4109 -0.00310862 16.4938 2.08833e-05ZM16.4938 5.9832C16.4084 5.98329 16.3249 6.00821 16.254 6.05478L15.0458 6.85548L14.8844 5.5899C14.8715 5.48859 14.821 5.39538 14.7425 5.3279C14.2837 4.9272 13.9833 4.38233 13.8935 3.788C13.8038 3.19366 13.9304 2.58744 14.2513 2.07471C14.5722 1.56198 15.0672 1.17516 15.6502 0.981478C16.2331 0.7878 16.8673 0.799515 17.4423 1.01459C18.0173 1.22966 18.4969 1.63449 18.7977 2.1587C19.0985 2.68292 19.2015 3.29338 19.0887 3.88398C18.976 4.47457 18.6546 5.00795 18.1806 5.39141C17.7065 5.77487 17.1097 5.98445 16.4938 5.9832Z" fill="#ED484A"/>
<path d="M17.2104 2.16433C17.1838 2.10187 17.1404 2.05121 17.0869 2.02005L17.0784 2.01381C17.0678 2.01104 17.0571 2.00915 17.0463 2.00817C17.016 1.99728 16.9836 1.99728 16.9533 2.00817C16.9426 2.00909 16.9319 2.01094 16.9214 2.01371L16.9129 2.01995C16.8716 2.03688 16.8369 2.07055 16.8151 2.11482C16.8051 2.13015 16.7965 2.14676 16.7896 2.16433L16.7847 2.17423L16.0138 4.64085C15.993 4.70756 15.9958 4.78118 16.0215 4.8455C16.0473 4.90983 16.0939 4.95961 16.1512 4.98387C16.2084 5.00814 16.2716 5.00491 16.3268 4.9749C16.382 4.94489 16.4247 4.89056 16.4455 4.82385L16.65 4.16919H17.35L17.5545 4.82385C17.5753 4.89056 17.618 4.94489 17.6732 4.9749C17.7284 5.00491 17.7916 5.00814 17.8488 4.98387C17.9061 4.95961 17.9527 4.90983 17.9785 4.8455C18.0042 4.78118 18.007 4.70756 17.9862 4.64085L17.2158 2.17433L17.2104 2.16433ZM16.8168 3.63327L16.9996 3.04793L17.1824 3.63327H16.8168Z" fill="#ED484A"/>
<path d="M6.55371 5.55405C6.80982 4.80939 6.80502 3.99774 6.54011 3.25626C6.2752 2.51478 5.76643 1.88893 5.09977 1.48446C4.43311 1.08 3.64944 0.921721 2.88117 1.03637C2.11291 1.15103 1.40716 1.53158 0.883189 2.11373C0.359215 2.69588 0.0491419 3.44394 0.0053644 4.23148C-0.0384131 5.01903 0.186789 5.79779 0.642918 6.43616C1.09905 7.07453 1.75813 7.53337 2.50881 7.73515C3.25948 7.93693 4.05572 7.86928 4.76296 7.54362L6.48786 7.98719C6.55605 8.00476 6.62755 8.00425 6.69549 7.98571C6.76344 7.96718 6.82557 7.93125 6.87593 7.88135C6.9263 7.83145 6.96321 7.76925 6.98315 7.70072C7.00309 7.63218 7.00537 7.55959 6.98979 7.4899L6.55371 5.55405ZM5.74301 5.37457C5.71306 5.45253 5.70701 5.53788 5.72566 5.61939L6.03853 7.01051L4.81928 6.69637C4.72159 6.67113 4.61817 6.68325 4.52872 6.73045C4.21055 6.8977 3.86089 6.99402 3.50312 7.01297C3.14536 7.03192 2.78774 6.97306 2.45417 6.84032C1.98622 6.65494 1.58289 6.33276 1.29519 5.91452C1.00749 5.49629 0.848332 5.00078 0.837849 4.49066C0.827367 3.98055 0.966029 3.47872 1.2363 3.04866C1.50657 2.61859 1.89631 2.27959 2.35624 2.07454C2.81617 1.86948 3.32563 1.80756 3.82019 1.89662C4.31476 1.98569 4.77222 2.22172 5.13474 2.57489C5.49725 2.92805 5.74853 3.38249 5.8568 3.88072C5.96507 4.37896 5.92547 4.8992 5.74301 5.37457Z" fill="#ED484A"/>
<path d="M4.37162 5.96177C4.44412 5.95938 4.5127 5.92859 4.56226 5.87616C4.61182 5.82374 4.63831 5.75398 4.63589 5.68223C4.63348 5.61048 4.60236 5.54262 4.54939 5.49357C4.49642 5.44452 4.42593 5.41831 4.35342 5.4207C4.22027 5.41854 4.08788 5.4004 3.95914 5.36667C4.24582 5.0651 4.41688 4.67379 4.44269 4.26052H4.72668C4.79917 4.26052 4.86869 4.23203 4.91995 4.1813C4.9712 4.13058 5 4.06178 5 3.99004C5 3.9183 4.9712 3.84951 4.91995 3.79878C4.86869 3.74805 4.79917 3.71956 4.72668 3.71956H3.77322V3.27053C3.77322 3.19878 3.74442 3.12997 3.69315 3.07924C3.64188 3.0285 3.57235 3 3.49985 3C3.42735 3 3.35781 3.0285 3.30655 3.07924C3.25528 3.12997 3.22648 3.19878 3.22648 3.27053V3.71956H2.27332C2.20083 3.71956 2.13131 3.74805 2.08005 3.79878C2.0288 3.84951 2 3.9183 2 3.99004C2 4.06178 2.0288 4.13058 2.08005 4.1813C2.13131 4.23203 2.20083 4.26052 2.27332 4.26052H3.89585C3.88133 4.42601 3.83294 4.58685 3.75364 4.73325C3.67433 4.87966 3.56577 5.00857 3.43454 5.11215C3.27359 4.98336 3.15294 4.81195 3.08666 4.6179C3.07495 4.58433 3.05667 4.55336 3.03287 4.52678C3.00907 4.50019 2.98021 4.4785 2.94794 4.46296C2.91566 4.44741 2.88062 4.4383 2.84479 4.43616C2.80896 4.43402 2.77306 4.43888 2.73913 4.45047C2.7052 4.46206 2.67391 4.48014 2.64705 4.5037C2.62019 4.52726 2.59827 4.55582 2.58256 4.58775C2.56685 4.61969 2.55765 4.65437 2.55549 4.68983C2.55332 4.72528 2.55823 4.76081 2.56994 4.79439C2.64508 5.01269 2.76632 5.21265 2.92561 5.38098C2.82714 5.41541 2.7265 5.44342 2.62433 5.46482C2.55757 5.47783 2.49812 5.51505 2.45764 5.56918C2.41717 5.62331 2.39858 5.69046 2.40553 5.75745C2.41248 5.82444 2.44446 5.88644 2.4952 5.93131C2.54594 5.97618 2.61179 6.00067 2.67984 5.99999C2.69867 6.00012 2.71745 5.99818 2.73585 5.99418C2.97713 5.94413 3.21 5.86039 3.42746 5.74546C3.70674 5.8825 4.01325 5.95655 4.32491 5.96227L4.37162 5.96177Z" fill="#ED484A"/>
</svg>
