<svg width="21" height="21" viewBox="0 0 21 21" fill="none" xmlns="http://www.w3.org/2000/svg">
<path d="M2.62497 3.28132V0.656255C2.62497 0.293482 2.91845 0 3.28131 0C3.644 0 3.93748 0.293482 3.93748 0.656255V3.28132C3.93748 3.64401 3.644 3.93749 3.28131 3.93749C2.91845 3.93753 2.62497 3.64401 2.62497 3.28132ZM13.7813 3.93753C14.1439 3.93753 14.4376 3.64405 14.4376 3.28136V0.656255C14.4376 0.293482 14.1439 0 13.7813 0C13.4186 0 13.1249 0.293482 13.1249 0.656255V3.28132C13.1249 3.64401 13.4186 3.93753 13.7813 3.93753ZM20.9999 15.7499C20.9999 18.6495 18.6493 21 15.7499 21C12.8508 21 10.5 18.6495 10.5 15.7499C10.5 12.8507 12.8507 10.5 15.7499 10.5C18.6493 10.5 20.9999 12.8507 20.9999 15.7499ZM19.6876 15.7499C19.6876 13.5789 17.9213 11.8124 15.75 11.8124C13.5788 11.8124 11.8125 13.5789 11.8125 15.7499C11.8125 17.9213 13.5788 19.6875 15.75 19.6875C17.9213 19.6875 19.6876 17.9213 19.6876 15.7499ZM5.25003 7.87502H2.62497V10.5H5.25003V7.87502ZM2.62497 14.4375H5.25003V11.8124H2.62497V14.4375ZM6.56245 10.5H9.18756V7.87502H6.56245V10.5ZM6.56245 14.4375H9.18756V11.8124H6.56245V14.4375ZM1.31255 15.6194V6.56247H15.75V9.18753H17.0625V4.06832C17.0625 3.27106 16.4266 2.62498 15.6411 2.62498H15.0937V3.28136C15.0937 4.00418 14.5053 4.59383 13.7814 4.59383C13.0573 4.59383 12.4689 4.00418 12.4689 3.28136V2.62498H4.59369V3.28136C4.59369 4.00418 4.00539 4.59383 3.28136 4.59383C2.55715 4.59383 1.96881 4.00418 1.96881 3.28136V2.62498H1.42209C0.636475 2.62498 0 3.27106 0 4.06832V15.6194C0 16.414 0.636475 17.0626 1.42209 17.0626H9.18756V15.7499H1.42209C1.36263 15.7499 1.31255 15.6885 1.31255 15.6194ZM13.1249 10.5V7.87502H10.5V10.5H13.1249ZM17.7187 15.7499H15.7499V13.7811C15.7499 13.4185 15.4564 13.125 15.0937 13.125C14.7309 13.125 14.4376 13.4185 14.4376 13.7811V16.4063C14.4376 16.7689 14.7309 17.0626 15.0937 17.0626H17.7187C18.0815 17.0626 18.375 16.7689 18.375 16.4063C18.375 16.0436 18.0815 15.7499 17.7187 15.7499Z" fill="#ED484A"/>
</svg>
