<svg width="24" height="24" viewBox="0 0 24 24" fill="none" xmlns="http://www.w3.org/2000/svg">
<path d="M23.8274 8.79444C23.6229 8.14334 23.2142 7.57535 22.6619 7.17447C22.1095 6.7736 21.4428 6.56111 20.7604 6.56844H16.3914L15.0644 2.43244C14.8557 1.7814 14.4457 1.21346 13.8934 0.810508C13.3411 0.407559 12.6751 0.19043 11.9914 0.19043C11.3077 0.19043 10.6417 0.407559 10.0894 0.810508C9.53714 1.21346 9.12708 1.7814 8.9184 2.43244L7.5914 6.56844H3.2224C2.54215 6.56941 1.8796 6.78533 1.32938 7.18535C0.779172 7.58537 0.369445 8.14903 0.158725 8.79583C-0.0519941 9.44263 -0.0529268 10.1395 0.15606 10.7868C0.365048 11.4342 0.773265 11.999 1.3224 12.4004L4.8784 15.0004L3.5264 19.1874C3.30792 19.8368 3.30515 20.5394 3.51851 21.1905C3.73188 21.8416 4.14995 22.4063 4.7104 22.8004C5.26126 23.2072 5.9288 23.4251 6.61356 23.4217C7.29832 23.4183 7.96365 23.1937 8.5104 22.7814L11.9914 20.2194L15.4734 22.7784C16.0233 23.1829 16.6872 23.4026 17.3698 23.4059C18.0523 23.4092 18.7184 23.196 19.2722 22.797C19.8259 22.3979 20.2389 21.8335 20.4517 21.1849C20.6645 20.5363 20.6661 19.837 20.4564 19.1874L19.1044 15.0004L22.6644 12.4004C23.2198 12.004 23.6328 11.4392 23.8423 10.7898C24.0517 10.1403 24.0465 9.4407 23.8274 8.79444ZM21.4844 10.7854L17.3404 13.8144C17.1702 13.9386 17.0435 14.1134 16.9785 14.3138C16.9135 14.5142 16.9135 14.73 16.9784 14.9304L18.5534 19.8004C18.6331 20.0474 18.6324 20.3134 18.5515 20.56C18.4705 20.8066 18.3134 21.0211 18.1028 21.1728C17.8922 21.3245 17.639 21.4055 17.3794 21.4042C17.1199 21.4029 16.8674 21.3193 16.6584 21.1654L12.5834 18.1654C12.4118 18.0394 12.2044 17.9714 11.9914 17.9714C11.7784 17.9714 11.571 18.0394 11.3994 18.1654L7.3244 21.1654C7.11549 21.3214 6.86234 21.4067 6.60167 21.409C6.341 21.4114 6.08634 21.3307 5.87463 21.1786C5.66292 21.0265 5.50515 20.8109 5.4242 20.5631C5.34325 20.3153 5.34332 20.0482 5.4244 19.8004L7.0044 14.9304C7.06932 14.73 7.06927 14.5142 7.00427 14.3138C6.93926 14.1134 6.81261 13.9386 6.6424 13.8144L2.4984 10.7854C2.28971 10.6326 2.13464 10.4178 2.05535 10.1716C1.97605 9.92538 1.97659 9.66042 2.05689 9.41454C2.13718 9.16866 2.29313 8.95445 2.50245 8.8025C2.71176 8.65054 2.96375 8.56862 3.2224 8.56844H8.3224C8.53412 8.56844 8.74037 8.50124 8.91145 8.37652C9.08253 8.2518 9.20962 8.076 9.2744 7.87444L10.8244 3.04344C10.904 2.79623 11.0599 2.58063 11.2698 2.42769C11.4797 2.27475 11.7327 2.19235 11.9924 2.19235C12.2521 2.19235 12.5051 2.27475 12.715 2.42769C12.9249 2.58063 13.0808 2.79623 13.1604 3.04344L14.7104 7.87444C14.7752 8.076 14.9023 8.2518 15.0734 8.37652C15.2444 8.50124 15.4507 8.56844 15.6624 8.56844H20.7624C21.0211 8.56862 21.273 8.65054 21.4824 8.8025C21.6917 8.95445 21.8476 9.16866 21.9279 9.41454C22.0082 9.66042 22.0088 9.92538 21.9295 10.1716C21.8502 10.4178 21.6951 10.6326 21.4864 10.7854H21.4844Z" fill="#D9D9D9"/>
</svg>
