<svg width="24" height="24" viewBox="0 0 24 24" fill="none" xmlns="http://www.w3.org/2000/svg">
<path d="M23.8352 8.79444C23.6307 8.14334 23.222 7.57535 22.6697 7.17447C22.1173 6.7736 21.4507 6.56111 20.7682 6.56844H16.3992L15.0722 2.43244C14.8635 1.7814 14.4535 1.21346 13.9012 0.810508C13.3489 0.407559 12.6829 0.19043 11.9992 0.19043C11.3155 0.19043 10.6495 0.407559 10.0972 0.810508C9.54495 1.21346 9.13489 1.7814 8.92622 2.43244L7.59922 6.56844H3.23022C2.54996 6.56941 1.88741 6.78533 1.3372 7.18535C0.786984 7.58537 0.377257 8.14903 0.166538 8.79583C-0.0441816 9.44263 -0.0451143 10.1395 0.163873 10.7868C0.37286 11.4342 0.781077 11.999 1.33022 12.4004L4.88622 15.0004L3.53422 19.1874C3.31573 19.8368 3.31296 20.5394 3.52633 21.1905C3.73969 21.8416 4.15776 22.4063 4.71822 22.8004C5.26907 23.2072 5.93661 23.4251 6.62137 23.4217C7.30613 23.4183 7.97146 23.1937 8.51822 22.7814L11.9992 20.2194L15.4812 22.7784C16.0311 23.1829 16.695 23.4026 17.3776 23.4059C18.0602 23.4092 18.7262 23.196 19.28 22.797C19.8338 22.3979 20.2467 21.8335 20.4595 21.1849C20.6723 20.5363 20.6739 19.837 20.4642 19.1874L19.1122 15.0004L22.6722 12.4004C23.2276 12.004 23.6406 11.4392 23.8501 10.7898C24.0596 10.1403 24.0543 9.4407 23.8352 8.79444ZM21.4922 10.7854L17.3482 13.8144C17.178 13.9386 17.0514 14.1134 16.9864 14.3138C16.9213 14.5142 16.9213 14.73 16.9862 14.9304L18.5612 19.8004C18.6409 20.0474 18.6402 20.3134 18.5593 20.56C18.4783 20.8066 18.3212 21.0211 18.1106 21.1728C17.9 21.3245 17.6468 21.4055 17.3872 21.4042C17.1277 21.4029 16.8753 21.3193 16.6662 21.1654L12.5912 18.1654C12.4196 18.0394 12.2122 17.9714 11.9992 17.9714C11.7863 17.9714 11.5789 18.0394 11.4072 18.1654L7.33222 21.1654C7.1233 21.3214 6.87015 21.4067 6.60948 21.409C6.34881 21.4114 6.09416 21.3307 5.88245 21.1786C5.67073 21.0265 5.51296 20.8109 5.43201 20.5631C5.35106 20.3153 5.35113 20.0482 5.43222 19.8004L7.01222 14.9304C7.07713 14.73 7.07709 14.5142 7.01208 14.3138C6.94707 14.1134 6.82043 13.9386 6.65022 13.8144L2.50622 10.7854C2.29752 10.6326 2.14245 10.4178 2.06316 10.1716C1.98386 9.92538 1.9844 9.66042 2.0647 9.41454C2.145 9.16866 2.30094 8.95445 2.51026 8.8025C2.71958 8.65054 2.97156 8.56862 3.23022 8.56844H8.33022C8.54193 8.56844 8.74818 8.50124 8.91926 8.37652C9.09035 8.2518 9.21743 8.076 9.28222 7.87444L10.8322 3.04344C10.9118 2.79623 11.0677 2.58063 11.2776 2.42769C11.4875 2.27475 11.7405 2.19235 12.0002 2.19235C12.2599 2.19235 12.5129 2.27475 12.7228 2.42769C12.9327 2.58063 13.0887 2.79623 13.1682 3.04344L14.7182 7.87444C14.783 8.076 14.9101 8.2518 15.0812 8.37652C15.2523 8.50124 15.4585 8.56844 15.6702 8.56844H20.7702C21.0289 8.56862 21.2809 8.65054 21.4902 8.8025C21.6995 8.95445 21.8554 9.16866 21.9357 9.41454C22.016 9.66042 22.0166 9.92538 21.9373 10.1716C21.858 10.4178 21.7029 10.6326 21.4942 10.7854H21.4922Z" fill="#ED484A"/>
</svg>
