<svg width="170" height="60" viewBox="0 0 170 60" fill="none" xmlns="http://www.w3.org/2000/svg">
<rect x="0.5" y="0.5" width="169" height="59" rx="11.5" stroke="#ED484A"/>
<mask id="mask0_641_297938" style="mask-type:alpha" maskUnits="userSpaceOnUse" x="0" y="0" width="170" height="60">
<rect x="1" y="1" width="168" height="58" rx="11" fill="#ED484A" stroke="black" stroke-width="2"/>
</mask>
<g mask="url(#mask0_641_297938)">
<path d="M124.391 38.8253C118.798 40.4158 115.327 41.2523 113.532 41.6725C111.741 42.0908 111.61 42.0908 112.674 41.7727L129.294 37.0325L140.986 33.6846L151.063 30.6351C156.601 28.9621 159.144 28.3416 154.811 29.883C146.171 32.5614 139.619 34.5034 134.701 35.7778C129.783 37.0502 126.525 38.0536 124.401 38.8076" stroke="black"/>
<path d="M20 43C19.7802 42.7204 18.5105 41.7388 16.1699 40.1094L11.8777 37.1746L6 33C6.43603 33.6034 11.0998 37.2505 20 43Z" stroke="black"/>
<path d="M156.99 5.0142C154.377 6.45909 149.704 8.79053 145.774 10.4393L143.01 11.574L140.788 12.3984L139.373 12.9047C139.065 12.9949 138.936 13.0267 139.031 12.9756L143.031 11.4525L146.056 10.1687C147.98 9.31297 149.963 8.42965 153.398 6.73389C155.196 5.86208 157.136 4.86921 156.993 5.0142" stroke="black"/>
<path d="M15.0225 30.0391C20.975 34.0125 31.6189 40.4239 40.5714 44.9582L46.8662 48.0784L51.9273 50.3455L55.1507 51.738C55.8518 51.9861 56.1465 52.0734 55.9305 51.9329L46.8186 47.7443L39.929 44.2139C35.5451 41.8607 31.0276 39.4315 23.2044 34.7682C19.1098 32.3707 14.6912 29.6403 15.017 30.0391" stroke="black"/>
<path d="M101.002 52.9739C102.256 52.7052 105.172 52.095 109.283 51.3138L116.27 49.855C117.562 49.596 118.916 49.2861 120.32 48.9652L124.68 47.9771C136.688 45.2307 151.535 41.0661 165.43 36.4259C168.439 35.5155 166.909 36.1415 162.669 37.5747L159.012 38.8364C157.645 39.3022 156.135 39.7523 154.513 40.2642L149.344 41.8576L143.669 43.4977C135.848 45.6801 127.161 47.8946 119.439 49.5238C117.508 49.9691 115.635 50.3099 113.854 50.6775C112.071 51.0445 110.378 51.386 108.803 51.6601C105.652 52.2084 102.975 52.6949 101 53" stroke="black"/>
<path d="M162.406 6.31889C162.925 6.04481 163.08 5.95046 162.963 6.02408C162.846 6.09769 162.457 6.33652 161.885 6.65795L159.72 7.86936L157.005 9.27813L154.288 10.5811L152.116 11.5568C150.972 12.0372 150.555 12.1786 151.596 11.7217L154.478 10.4543L156.206 9.61442L157.122 9.16338L158.332 8.53261L160.03 7.64816L162.408 6.32753" stroke="black"/>
<path d="M9.88072 31.1161C8.23685 30.1568 7.74695 29.8266 8.1163 30.0843C8.48755 30.3419 9.71997 31.1778 11.5303 32.3028L18.3871 36.5428L26.9853 41.4734L35.5874 46.034L42.4652 49.4489C46.0879 51.1304 47.4083 51.6251 44.1129 50.0259L34.9865 45.59L29.5152 42.6505L26.6122 41.0718L22.7809 38.8642L17.4054 35.7686L9.87497 31.1464" stroke="black"/>
<path d="M148 15.9835V15.8483L152.378 13.7949C153.683 13.1987 154.831 12.6083 155.84 12.1077C157.858 11.0892 159.314 10.3808 160.303 9.8571C162.278 8.81691 162.381 8.8057 161.371 9.38483C159.352 10.611 152.875 13.8853 148.005 16" stroke="black"/>
<path d="M25 50.967V50.6966L17.8069 46.5899C15.6644 45.3973 13.7778 44.2166 12.1197 43.2153C8.80534 41.1785 6.41285 39.7617 4.78792 38.7142C1.54391 36.6338 1.374 36.6114 3.03409 37.7697C6.35036 40.2221 16.9905 46.7706 24.9922 51" stroke="black"/>
</g>
</svg>
