<svg width="56" height="24" viewBox="0 0 56 24" fill="none" xmlns="http://www.w3.org/2000/svg">
<path d="M19 14C18.7802 13.7204 17.5105 12.7388 15.1699 11.1094L10.8777 8.17458L5 4C5.43603 4.60342 10.0998 8.25047 19 14Z" stroke="black"/>
<path d="M14.0225 1.03905C19.975 5.01251 30.6189 11.4239 39.5714 15.9582L45.8662 19.0784L50.9273 21.3455L54.1507 22.738C54.8518 22.9861 55.1465 23.0734 54.9305 22.9329L45.8186 18.7443L38.929 15.2139C34.5451 12.8607 30.0276 10.4315 22.2044 5.7682C18.1098 3.37071 13.6912 0.640316 14.017 1.03905" stroke="black"/>
<path d="M8.88072 2.11612C7.23685 1.15684 6.74695 0.826605 7.1163 1.08427C7.48755 1.34193 8.71997 2.17782 10.5303 3.30283L17.3871 7.54276L25.9853 12.4734L34.5874 17.034L41.4652 20.4489C45.0879 22.1304 46.4083 22.6251 43.1129 21.0259L33.9865 16.59L28.5152 13.6505L25.6122 12.0718L21.7809 9.86415L16.4054 6.76856L8.87497 2.14636" stroke="black"/>
<path d="M24 21.967V21.6966L16.8069 17.5899C14.6644 16.3973 12.7778 15.2166 11.1197 14.2153C7.80534 12.1785 5.41285 10.7617 3.78792 9.71421C0.543908 7.63382 0.373997 7.6114 2.03409 8.76967C5.35036 11.2221 15.9905 17.7706 23.9922 22" stroke="black"/>
</svg>
