<svg width="68" height="50" viewBox="0 0 68 50" fill="none" xmlns="http://www.w3.org/2000/svg">
<path d="M24.3912 34.8253C18.7975 36.4158 15.3273 37.2523 13.5317 37.6725C11.7411 38.0908 11.61 38.0908 12.6742 37.7727L29.2938 33.0325L40.9856 29.6846L51.0632 26.6351C56.6014 24.9621 59.1436 24.3416 54.8109 25.883C46.1707 28.5614 39.6186 30.5034 34.7008 31.7778C29.7831 33.0502 26.5247 34.0536 24.4013 34.8076" stroke="black"/>
<path d="M56.9901 1.0142C54.3768 2.45909 49.7039 4.79053 45.7735 6.43933L43.0099 7.57398L40.788 8.39838L39.3729 8.90472C39.0651 8.99494 38.9357 9.02669 39.0305 8.9756L43.0308 7.45246L46.0556 6.16867C47.9802 5.31297 49.9635 4.42965 53.3981 2.73389C55.1957 1.86208 57.1356 0.869206 56.9925 1.0142" stroke="black"/>
<path d="M1.0018 48.9739C2.25645 48.7052 5.17198 48.095 9.28286 47.3138L16.2697 45.855C17.5621 45.596 18.9157 45.2861 20.3195 44.9652L24.6802 43.9771C36.6875 41.2307 51.5349 37.0661 65.4295 32.4259C68.4385 31.5155 66.9089 32.1415 62.6686 33.5747L59.0124 34.8364C57.6446 35.3022 56.1346 35.7523 54.5133 36.2642L49.3437 37.8576L43.669 39.4977C35.8481 41.6801 27.1608 43.8946 19.4387 45.5238C17.5082 45.9691 15.6352 46.3099 13.8539 46.6775C12.0708 47.0445 10.3776 47.386 8.80295 47.6601C5.65193 48.2084 2.97545 48.6949 1 49" stroke="black"/>
<path d="M62.4061 2.31889C62.9252 2.04481 63.0799 1.95046 62.9633 2.02408C62.846 2.09769 62.4569 2.33652 61.8852 2.65795L59.7199 3.86936L57.0046 5.27813L54.2882 6.58113L52.1162 7.55683C50.9723 8.03724 50.5553 8.17861 51.5959 7.72169L54.478 6.45428L56.2057 5.61442L57.1225 5.16338L58.3323 4.53261L60.0299 3.64816L62.4079 2.32753" stroke="black"/>
<path d="M48 11.9835V11.8483L52.3784 9.79494C53.6825 9.19866 54.8309 8.60831 55.8402 8.10767C57.8576 7.08925 59.3139 6.38083 60.303 5.8571C62.2776 4.81691 62.381 4.8057 61.3706 5.38483C59.352 6.61104 52.8753 9.88531 48.0048 12" stroke="black"/>
</svg>
