<svg width="24" height="24" viewBox="0 0 24 24" fill="none" xmlns="http://www.w3.org/2000/svg">
<g clip-path="url(#clip0_702_76918)">
<path d="M12 0C5.37257 0 0 5.37257 0 12C0 18.6274 5.37257 23.9999 12 23.9999C18.6274 23.9999 23.9999 18.6274 23.9999 12C23.9929 5.37554 18.6245 0.00708147 12 0ZM12 22.2857C6.31933 22.2857 1.71427 17.6806 1.71427 12C1.71427 6.31933 6.31933 1.71427 12 1.71427C17.6806 1.71427 22.2857 6.31933 22.2857 12C22.2796 17.6781 17.6781 22.2796 12 22.2857Z" fill="#EB484A"/>
<path d="M12.0014 4.28564C11.528 4.28564 11.1442 4.6694 11.1442 5.1428V11.1428H5.14427C4.67086 11.1428 4.28711 11.5266 4.28711 12C4.28711 12.4734 4.67086 12.8571 5.14427 12.8571H12.0014C12.4748 12.8571 12.8585 12.4733 12.8585 11.9999V5.1428C12.8585 4.6694 12.4748 4.28564 12.0014 4.28564Z" fill="#EB484A"/>
</g>
<defs>
<clipPath id="clip0_702_76918">
<rect width="24" height="24" fill="white"/>
</clipPath>
</defs>
</svg>
