<svg width="48" height="48" viewBox="0 0 48 48" fill="none" xmlns="http://www.w3.org/2000/svg">
<path d="M39.2988 4.69897L42.1828 7.72698" stroke="#ED484A" stroke-width="2" stroke-miterlimit="10" stroke-linecap="round" stroke-linejoin="round"/>
<path d="M39.2266 7.655L42.2546 4.771" stroke="#ED484A" stroke-width="2" stroke-miterlimit="10" stroke-linecap="round" stroke-linejoin="round"/>
<path d="M4 40.0032L7.661 42.0242" stroke="#ED484A" stroke-width="2" stroke-miterlimit="10" stroke-linecap="round" stroke-linejoin="round"/>
<path d="M4.81836 42.8441L6.84036 39.1831" stroke="#ED484A" stroke-width="2" stroke-miterlimit="10" stroke-linecap="round" stroke-linejoin="round"/>
<path d="M33.6328 3L35.2428 4.689" stroke="#ED484A" stroke-miterlimit="10" stroke-linecap="round" stroke-linejoin="round"/>
<path d="M33.5938 4.64904L35.2837 3.04004" stroke="#ED484A" stroke-miterlimit="10" stroke-linecap="round" stroke-linejoin="round"/>
<path d="M11.4121 43.6111L13.4551 44.7391" stroke="#ED484A" stroke-miterlimit="10" stroke-linecap="round" stroke-linejoin="round"/>
<path d="M11.8691 45.1971L12.9971 43.1541" stroke="#ED484A" stroke-miterlimit="10" stroke-linecap="round" stroke-linejoin="round"/>
<path d="M37.9256 21.5776V36.5366H13.6816V21.9256L25.8036 26.8926L37.9256 21.5776Z" stroke="#ED484A" stroke-width="2" stroke-miterlimit="10" stroke-linecap="round" stroke-linejoin="round"/>
<path d="M44.7512 18.6828L39.0832 21.0868L25.3932 26.8927L11.7032 21.0868L6.03516 18.6828L24.3252 9.96875L44.7512 18.6828Z" stroke="#ED484A" stroke-width="2" stroke-miterlimit="10" stroke-linecap="round" stroke-linejoin="round"/>
<path d="M25.3965 17.7167C25.3965 17.7167 42.7475 16.6447 43.3655 27.6497C43.3655 32.2247 43.3655 32.2247 43.3655 32.2247" stroke="#ED484A" stroke-width="2" stroke-miterlimit="10" stroke-linecap="round" stroke-linejoin="round"/>
<path d="M43.3671 35.9907C44.0315 35.9907 44.5701 35.4521 44.5701 34.7877C44.5701 34.1233 44.0315 33.5847 43.3671 33.5847C42.7027 33.5847 42.1641 34.1233 42.1641 34.7877C42.1641 35.4521 42.7027 35.9907 43.3671 35.9907Z" fill="#ED484A"/>
</svg>
