<svg width="48" height="48" viewBox="0 0 48 48" fill="none" xmlns="http://www.w3.org/2000/svg">
<path d="M19 21.3547V27.6771C19 29.3541 19.6321 30.9623 20.7573 32.1481C21.8826 33.3338 23.4087 34 25 34C26.5912 34 28.1174 33.3338 29.2426 32.1481C30.3678 30.9623 30.9999 29.3541 30.9999 27.6771V21.3547C31.0039 20.5218 30.8517 19.6961 30.552 18.9253C30.2523 18.1545 29.811 17.4537 29.2535 16.8632C28.696 16.2727 28.0333 15.8041 27.3034 15.4844C26.5735 15.1646 25.7908 15 25.0004 15C24.2099 15 23.4272 15.1646 22.6973 15.4844C21.9674 15.8041 21.3047 16.2727 20.7472 16.8632C20.1897 17.4537 19.7484 18.1545 19.4487 18.9253C19.149 19.6961 18.996 20.5218 19 21.3547ZM25.0032 16.4464C25.6181 16.4334 26.2291 16.5515 26.7995 16.7936C27.37 17.0358 27.8881 17.3969 28.3228 17.8553C28.7574 18.3138 29.0997 18.8601 29.3289 19.4615C29.5582 20.0628 29.6698 20.7068 29.6569 21.3547V27.6771C29.6604 28.3241 29.5426 28.9654 29.3101 29.5642C29.0776 30.163 28.7351 30.7074 28.3023 31.1662C27.8694 31.625 27.3548 31.9891 26.7879 32.2375C26.2211 32.486 25.6132 32.6139 24.9993 32.6139C24.3853 32.6139 23.7775 32.486 23.2106 32.2375C22.6438 31.9891 22.1291 31.625 21.6963 31.1662C21.2634 30.7074 20.9209 30.163 20.6884 29.5642C20.4559 28.9654 20.3381 28.3241 20.3416 27.6771V21.3547C20.3294 20.7063 20.4416 20.0619 20.6716 19.4603C20.9016 18.8587 21.2446 18.3123 21.68 17.8538C22.1154 17.3954 22.6342 17.0344 23.2052 16.7925C23.7763 16.5507 24.3879 16.4329 25.0032 16.4464Z" fill="#ED484A"/>
<path d="M32.5797 24.7706V28.0217C32.5691 30.1049 31.7652 32.0991 30.3438 33.5678C28.9224 35.0365 26.9992 35.8603 24.995 35.859C22.9908 35.8576 21.0687 35.0311 19.6492 33.5604C18.2296 32.0897 17.4283 30.0945 17.4203 28.0112V24.7602C17.4232 24.661 17.4067 24.5622 17.372 24.4698C17.3373 24.3773 17.285 24.2931 17.2182 24.2222C17.1515 24.1512 17.0716 24.095 16.9835 24.0568C16.8954 24.0186 16.8008 23.9993 16.7053 24C16.6098 24.0007 16.5155 24.0214 16.4279 24.0609C16.3403 24.1003 16.2612 24.1577 16.1955 24.2297C16.1297 24.3016 16.0785 24.3866 16.0451 24.4795C16.0116 24.5725 15.9965 24.6715 16.0007 24.7706V28.0217C15.9877 30.3783 16.8367 32.652 18.3758 34.3825C19.9148 36.113 22.029 37.1708 24.2903 37.342V42.5192H19.6906C19.5904 42.5069 19.4887 42.5168 19.3924 42.5482C19.2961 42.5797 19.2073 42.632 19.1319 42.7017C19.0564 42.7714 18.996 42.8569 18.9547 42.9526C18.9133 43.0484 18.892 43.1521 18.892 43.257C18.892 43.362 18.9133 43.4657 18.9547 43.5614C18.996 43.6571 19.0564 43.7427 19.1319 43.8124C19.2073 43.8821 19.2961 43.9344 19.3924 43.9658C19.4887 43.9973 19.5904 44.0072 19.6906 43.9949H30.3094C30.495 43.9907 30.6717 43.9111 30.8015 43.7732C30.9314 43.6353 31.0041 43.45 31.0041 43.257C31.0041 43.064 30.9314 42.8787 30.8015 42.7408C30.6717 42.6029 30.495 42.5233 30.3094 42.5192H25.7098V37.342C27.971 37.1708 30.0852 36.113 31.6243 34.3825C33.1634 32.652 34.0123 30.3783 33.9993 28.0217V24.7706C34.0035 24.671 33.9882 24.5716 33.9544 24.4784C33.9205 24.3851 33.8689 24.2999 33.8026 24.228C33.7363 24.156 33.6566 24.0987 33.5685 24.0596C33.4803 24.0205 33.3854 24.0003 33.2895 24.0003C33.1936 24.0003 33.0987 24.0205 33.0106 24.0596C32.9224 24.0987 32.8427 24.156 32.7764 24.228C32.7101 24.2999 32.6585 24.3851 32.6247 24.4784C32.5909 24.5716 32.5756 24.671 32.5797 24.7706Z" fill="#ED484A"/>
<path d="M35.9894 1.00004C34.7986 0.998704 33.6345 1.35125 32.6461 2.01255C31.6578 2.67385 30.89 3.61382 30.4412 4.71214C29.9924 5.81046 29.8829 7.01716 30.1268 8.17779C30.3707 9.33842 30.9569 10.4002 31.8103 11.2271L32.2021 14.3597C32.2173 14.4838 32.2643 14.6019 32.3387 14.7026C32.413 14.8033 32.5122 14.8832 32.6266 14.9346C32.7212 14.9779 32.8241 15.0002 32.9283 15C33.0748 15 33.2179 14.9563 33.3393 14.8747L36.2208 12.9252C37.792 12.8702 39.2784 12.2023 40.3594 11.0656C41.4404 9.92883 42.0293 8.41446 41.9989 6.84922C41.9685 5.28399 41.3214 3.7934 40.1971 2.6991C39.0728 1.60481 37.5615 0.99456 35.9894 1.00004ZM35.9894 11.4706C35.8429 11.4708 35.6998 11.5144 35.5784 11.5959L33.5071 12.9971L33.2303 10.7823C33.2083 10.605 33.1218 10.4419 32.9872 10.3238C32.2006 9.62261 31.6856 8.66908 31.5318 7.629C31.3779 6.58891 31.595 5.52803 32.1451 4.63074C32.6953 3.73346 33.5438 3.05652 34.5432 2.71759C35.5425 2.37865 36.6296 2.39915 37.6154 2.77553C38.6011 3.1519 39.4233 3.86035 39.9389 4.77773C40.4546 5.69511 40.6311 6.76342 40.4378 7.79696C40.2445 8.8305 39.6937 9.76392 38.881 10.435C38.0683 11.106 37.0451 11.4728 35.9894 11.4706Z" fill="#ED484A"/>
<path d="M36.4209 4.27388C36.3676 4.16978 36.2809 4.08536 36.1738 4.03342L36.1568 4.02302C36.1356 4.0184 36.1142 4.01526 36.0925 4.01361C36.032 3.99546 35.9672 3.99546 35.9066 4.01361C35.8851 4.01514 35.8637 4.01823 35.8427 4.02286L35.8257 4.03325C35.7431 4.06147 35.6738 4.11759 35.6303 4.19136C35.6101 4.21692 35.593 4.2446 35.5793 4.27388L35.5694 4.29039L34.0277 8.40142C33.986 8.5126 33.9916 8.63529 34.0431 8.74251C34.0946 8.84972 34.1878 8.93268 34.3023 8.97312C34.4168 9.01357 34.5431 9.00819 34.6535 8.95817C34.7639 8.90816 34.8494 8.8176 34.891 8.70642L35.2999 7.61532H36.7001L37.109 8.70642C37.1506 8.8176 37.2361 8.90816 37.3465 8.95817C37.4569 9.00819 37.5832 9.01357 37.6977 8.97312C37.8122 8.93268 37.9054 8.84972 37.9569 8.74251C38.0084 8.63529 38.014 8.5126 37.9723 8.40142L36.4316 4.29055L36.4209 4.27388ZM35.6337 6.72212L35.9992 5.74655L36.3648 6.72212H35.6337Z" fill="#ED484A"/>
<path d="M18.2349 10.8069C18.674 9.53038 18.6657 8.13898 18.2116 6.86787C17.7575 5.59676 16.8853 4.52388 15.7425 3.83051C14.5996 3.13714 13.2562 2.86581 11.9392 3.06236C10.6221 3.2589 9.41228 3.91128 8.51404 4.90926C7.6158 5.90723 7.08424 7.1896 7.0092 8.53969C6.93415 9.88977 7.32021 11.2248 8.10215 12.3191C8.88408 13.4135 10.0139 14.2001 11.3008 14.546C12.5877 14.8919 13.9527 14.7759 15.1651 14.2176L18.122 14.978C18.2389 15.0082 18.3615 15.0073 18.478 14.9755C18.5945 14.9437 18.701 14.8821 18.7873 14.7966C18.8737 14.7111 18.9369 14.6044 18.9711 14.4869C19.0053 14.3694 19.0092 14.245 18.9825 14.1255L18.2349 10.8069ZM16.8452 10.4993C16.7938 10.6329 16.7834 10.7792 16.8154 10.919L17.3518 13.3037L15.2616 12.7652C15.0942 12.7219 14.9169 12.7427 14.7635 12.8236C14.2181 13.1103 13.6187 13.2755 13.0054 13.308C12.392 13.3404 11.779 13.2395 11.2071 13.012C10.4049 12.6942 9.71353 12.1419 9.22032 11.4249C8.72712 10.7079 8.45428 9.85848 8.43631 8.98399C8.41834 8.10951 8.65605 7.24924 9.11937 6.51199C9.58269 5.77473 10.2508 5.19359 11.0393 4.84206C11.8277 4.49053 12.7011 4.38439 13.5489 4.53707C14.3967 4.68975 15.181 5.09438 15.8024 5.69981C16.4239 6.30524 16.8546 7.08426 17.0402 7.93838C17.2258 8.7925 17.1579 9.68434 16.8452 10.4993Z" fill="#ED484A"/>
<path d="M14.1622 11.9235C14.2588 11.9188 14.3503 11.8572 14.4163 11.7523C14.4824 11.6475 14.5177 11.508 14.5145 11.3645C14.5113 11.221 14.4698 11.0852 14.3992 10.9871C14.3286 10.889 14.2346 10.8366 14.1379 10.8414C13.9604 10.8371 13.7838 10.8008 13.6122 10.7333C13.9944 10.1302 14.2225 9.34757 14.2569 8.52105H14.6356C14.7322 8.52105 14.8249 8.46405 14.8933 8.3626C14.9616 8.26115 15 8.12355 15 7.98008C15 7.83661 14.9616 7.69901 14.8933 7.59756C14.8249 7.49611 14.7322 7.43911 14.6356 7.43911H13.3643V6.54107C13.3643 6.39757 13.3259 6.25995 13.2575 6.15848C13.1892 6.05701 13.0965 6 12.9998 6C12.9031 6 12.8104 6.05701 12.7421 6.15848C12.6737 6.25995 12.6353 6.39757 12.6353 6.54107V7.43911H11.3644C11.2678 7.43911 11.1751 7.49611 11.1067 7.59756C11.0384 7.69901 11 7.83661 11 7.98008C11 8.12355 11.0384 8.26115 11.1067 8.3626C11.1751 8.46405 11.2678 8.52105 11.3644 8.52105H13.5278C13.5084 8.85203 13.4439 9.1737 13.3382 9.46651C13.2324 9.75931 13.0877 10.0171 12.9127 10.2243C12.6981 9.96672 12.5372 9.6239 12.4489 9.2358C12.4333 9.16865 12.4089 9.10672 12.3772 9.05355C12.3454 9.00038 12.3069 8.95701 12.2639 8.92591C12.2209 8.89482 12.1742 8.87661 12.1264 8.87232C12.0786 8.86804 12.0307 8.87776 11.9855 8.90094C11.9403 8.92411 11.8986 8.96029 11.8627 9.0074C11.8269 9.05451 11.7977 9.11163 11.7768 9.1755C11.7558 9.23938 11.7435 9.30875 11.7406 9.37966C11.7378 9.45057 11.7443 9.52163 11.7599 9.58878C11.8601 10.0254 12.0218 10.4253 12.2341 10.762C12.1029 10.8308 11.9687 10.8868 11.8324 10.9296C11.7434 10.9557 11.6642 11.0301 11.6102 11.1384C11.5562 11.2466 11.5314 11.3809 11.5407 11.5149C11.55 11.6489 11.5926 11.7729 11.6603 11.8626C11.7279 11.9524 11.8157 12.0013 11.9065 12C11.9316 12.0002 11.9566 11.9964 11.9811 11.9884C12.3028 11.8883 12.6133 11.7208 12.9033 11.4909C13.2756 11.765 13.6843 11.9131 14.0999 11.9245L14.1622 11.9235Z" fill="#ED484A"/>
</svg>
