<svg width="48" height="51" viewBox="0 0 48 51" fill="none" xmlns="http://www.w3.org/2000/svg">
<path d="M0.357137 26.2294C0.083017 26.4247 -0.0454769 26.7473 0.0144868 27.0785C0.245776 28.2927 0.708353 29.4136 1.40222 30.407C1.59068 30.6788 1.90763 30.8146 2.24171 30.7637C2.53297 30.7127 2.82422 30.8061 3.02981 31.0184C3.22683 31.2137 3.32106 31.4939 3.26966 31.7911C3.21827 32.1138 3.35533 32.4365 3.62945 32.6233C4.6317 33.311 5.76244 33.7696 6.98742 33.9988C7.31294 34.0668 7.64702 33.9224 7.84404 33.6592C7.96397 33.4894 8.1353 33.4044 8.32375 33.3535C8.88056 33.6592 9.24034 34.2281 9.24034 34.8649C9.24034 35.5442 8.83773 36.1641 8.21239 36.4443C7.86118 36.6056 7.66415 36.9708 7.71555 37.3444C7.89544 38.4992 8.20383 39.654 8.64071 40.7748C8.77777 41.1315 9.12898 41.3522 9.52303 41.3183C10.2255 41.2503 10.8851 41.5815 11.2277 42.1674C11.5704 42.7618 11.5275 43.5005 11.1249 44.0609C10.9022 44.3751 10.9108 44.7912 11.1592 45.0884C11.913 46.0139 12.7611 46.8545 13.6862 47.5933C13.986 47.831 14.4058 47.848 14.7227 47.6187C15.2881 47.2197 16.0419 47.1772 16.633 47.5084C17.2327 47.848 17.5582 48.5018 17.4982 49.1981C17.4639 49.5802 17.6867 49.9368 18.0465 50.0727C19.1772 50.5058 20.3422 50.8114 21.5072 50.9898C21.8927 51.0492 22.2525 50.8454 22.4152 50.4973C22.6979 49.8774 23.3233 49.4783 24.0086 49.4783C24.6939 49.4783 25.3192 49.8774 25.6019 50.4973C25.7389 50.803 26.0473 50.9982 26.3814 50.9982C26.4242 50.9982 26.4671 50.9982 26.5099 50.9898C27.6749 50.8199 28.8399 50.5058 29.9707 50.0727C30.3305 49.9368 30.5532 49.5802 30.5189 49.1981C30.4504 48.5018 30.7845 47.848 31.3755 47.5084C31.9752 47.1687 32.7204 47.2112 33.2858 47.6103C33.6028 47.831 34.0225 47.8225 34.3223 47.5848C35.2475 46.846 36.1041 45.9969 36.8494 45.0799C37.0892 44.7827 37.1064 44.3666 36.8836 44.0524C36.481 43.492 36.4382 42.7448 36.7723 42.1589C37.1149 41.5645 37.7831 41.2333 38.477 41.3013C38.8624 41.3352 39.2222 41.1145 39.3593 40.7578C39.7962 39.637 40.1046 38.4822 40.2844 37.3274C40.3444 36.9538 40.1388 36.5802 39.7876 36.4273C39.1623 36.1471 38.7597 35.5273 38.7597 34.848C38.7597 34.2111 39.1194 33.6422 39.6762 33.3365C39.8647 33.3875 40.036 33.4724 40.156 33.6422C40.3187 33.8715 40.5757 33.9988 40.8498 33.9988C40.9012 33.9988 40.9526 33.9988 41.004 33.9818C42.229 33.7526 43.3597 33.2941 44.362 32.6063C44.6361 32.4195 44.7732 32.0968 44.7218 31.7741C44.6704 31.4769 44.7646 31.1967 44.9788 30.9929C45.1758 30.7976 45.4585 30.7042 45.7583 30.7552C46.0838 30.8061 46.4093 30.6703 46.5978 30.3986C47.2916 29.4051 47.7542 28.2842 47.9855 27.07C48.0455 26.7473 47.9084 26.4162 47.6429 26.2209C47.403 26.0511 47.2659 25.7878 47.2659 25.4991C47.2659 25.2104 47.403 24.9472 47.6429 24.7774C47.917 24.5821 48.0455 24.2594 47.9855 23.9282C47.7542 22.714 47.2916 21.5932 46.5978 20.5997C46.4093 20.328 46.0838 20.1921 45.7583 20.2431C45.467 20.2855 45.1758 20.2006 44.9702 19.9883C44.7732 19.793 44.6789 19.5128 44.7303 19.2156C44.7817 18.893 44.6447 18.5703 44.3705 18.3835C43.3683 17.6957 42.2376 17.2372 41.0126 17.0079C40.6871 16.9485 40.353 17.0843 40.156 17.3476C39.8133 17.8231 39.0509 17.8231 38.7083 17.3476C38.5198 17.0758 38.1771 16.94 37.8516 17.0079C36.6267 17.2372 35.4959 17.6957 34.4937 18.3835C34.2195 18.5703 34.0825 18.893 34.1339 19.2156C34.1767 19.5043 34.091 19.776 33.894 19.9798C32.4977 19.1647 30.8787 18.6892 29.1398 18.6892H27.4265V18.1542L28.2574 17.7976C29.8165 17.1353 30.8273 15.6238 30.853 13.9426L32.0523 13.7048C32.8489 13.5435 33.4314 12.8472 33.4314 12.0405V11.8877C34.8449 11.8877 36.0013 10.7414 36.0013 9.34034C36.0013 7.93929 34.8449 6.79297 33.4314 6.79297C33.3115 6.79297 33.1916 6.80146 33.0717 6.81845C31.958 2.88701 28.3174 0 24.0086 0C19.6997 0 16.0591 2.8955 14.9455 6.81845C14.8255 6.80146 14.7056 6.79297 14.5857 6.79297C13.1723 6.79297 12.0158 7.93929 12.0158 9.34034C12.0158 10.7414 13.1723 11.8877 14.5857 11.8877C14.5857 12.8217 15.3566 13.5859 16.2989 13.5859H17.1556V13.8916C17.1556 15.5899 18.1749 17.1268 19.7511 17.7976L20.5821 18.1542V18.6892H18.8688C17.1384 18.6892 15.5108 19.1647 14.1145 19.9798C13.9175 19.7845 13.8319 19.5043 13.8747 19.2156C13.9261 18.893 13.789 18.5703 13.5149 18.3835C12.5127 17.6957 11.3819 17.2372 10.1569 17.0079C9.83141 16.9485 9.49733 17.0843 9.30031 17.3476C8.95766 17.8231 8.19526 17.8231 7.85261 17.3476C7.65559 17.0758 7.3215 16.94 6.99598 17.0079C5.77101 17.2372 4.64026 17.6957 3.63801 18.3835C3.36389 18.5703 3.22683 18.893 3.27823 19.2156C3.32963 19.5128 3.2354 19.793 3.02124 19.9968C2.82422 20.1921 2.54153 20.2855 2.24171 20.2346C1.9162 20.1836 1.59068 20.3195 1.40222 20.5912C0.708353 21.5847 0.245776 22.7055 0.0144868 23.9198C-0.0454769 24.2424 0.0915832 24.5736 0.357137 24.7689C0.596992 24.9387 0.734052 25.2019 0.734052 25.4906C0.734052 25.7793 0.596992 26.0426 0.357137 26.2124V26.2294ZM33.4057 8.52518C33.8769 8.52518 34.2624 8.90729 34.2624 9.3743C34.2624 9.84132 33.8769 10.2234 33.4057 10.2234V9.3743C33.4057 9.09409 33.3886 8.81388 33.3629 8.53367C33.38 8.53367 33.3886 8.53367 33.4057 8.53367V8.52518ZM14.56 9.3743V10.2234C14.0888 10.2234 13.7034 9.84132 13.7034 9.3743C13.7034 8.90729 14.0888 8.52518 14.56 8.52518C14.5771 8.52518 14.5857 8.52518 14.6028 8.52518C14.5771 8.80539 14.56 9.0856 14.56 9.36581V9.3743ZM37.9287 39.6115C36.8237 39.7219 35.8214 40.3418 35.2561 41.3098C34.6992 42.2778 34.6564 43.4496 35.119 44.4515C34.665 44.961 34.1853 45.445 33.6627 45.895C32.6519 45.445 31.4698 45.4874 30.4932 46.0394C29.5252 46.5998 28.8999 47.5933 28.7885 48.6801C28.1289 48.9009 27.4693 49.0792 26.8012 49.2066C26.1587 48.3235 25.1136 47.7716 23.9914 47.7716C22.8693 47.7716 21.8242 48.315 21.1817 49.2066C20.5135 49.0792 19.8454 48.9009 19.1943 48.6801C19.083 47.5848 18.4576 46.5913 17.4811 46.0309C16.5045 45.479 15.3224 45.4365 14.3116 45.895C13.7976 45.445 13.3093 44.9695 12.8553 44.4515C13.3093 43.4496 13.275 42.2778 12.7097 41.3098C12.1443 40.3503 11.1421 39.7304 10.0456 39.62C9.82285 38.9662 9.64296 38.3124 9.51446 37.6501C10.4054 37.0132 10.9622 35.9773 10.9622 34.8649C10.9622 34.5168 10.9022 34.1687 10.7994 33.846C11.5875 33.6422 12.3328 33.328 13.0266 32.912C12.9067 33.5488 12.8467 34.2026 12.8467 34.8649C12.8467 40.9531 17.8409 45.9035 23.9829 45.9035C30.1249 45.9035 35.119 40.9531 35.119 34.8649C35.119 34.2026 35.059 33.5573 34.9391 32.912C35.633 33.328 36.3782 33.6337 37.1663 33.846C37.0635 34.1687 37.0036 34.5168 37.0036 34.8649C37.0036 35.9773 37.5518 37.0132 38.4513 37.6501C38.3228 38.3124 38.1429 38.9747 37.9202 39.62L37.9287 39.6115ZM9.42023 28.055V28.7852C9.13755 28.8532 8.85486 28.9041 8.56361 28.9041C6.67047 28.9041 5.13711 27.3842 5.13711 25.5076C5.13711 23.6311 6.67047 22.1111 8.56361 22.1111C9.4545 22.1111 10.2683 22.4593 10.9022 23.0537C9.96847 24.5057 9.42023 26.2124 9.42023 28.055ZM14.56 34.848C14.56 33.9734 14.6885 33.1242 14.9283 32.3006H33.046C33.2858 33.1242 33.4143 33.9734 33.4143 34.848C33.4143 40.0021 29.1911 44.1883 23.9914 44.1883C18.7917 44.1883 14.5686 40.0021 14.5686 34.848H14.56ZM37.0635 23.0537C37.6889 22.4593 38.5112 22.1111 39.4021 22.1111C41.2953 22.1111 42.8286 23.6311 42.8286 25.5076C42.8286 27.3842 41.2953 28.9041 39.4021 28.9041C39.1109 28.9041 38.8282 28.8532 38.5455 28.7852V28.055C38.5455 26.2124 37.9973 24.4972 37.0635 23.0537ZM35.83 19.5553C36.4039 19.2156 37.0207 18.9609 37.6803 18.7996C38.6226 19.6232 40.1731 19.6232 41.1154 18.7996C41.775 18.9609 42.3917 19.2156 42.9657 19.5553C43.0085 20.1836 43.2741 20.778 43.7195 21.2111C44.165 21.6611 44.7646 21.9243 45.3985 21.9668C45.7411 22.5357 45.9981 23.1471 46.1609 23.8009C45.7497 24.2679 45.5099 24.8708 45.5099 25.5076C45.5099 26.1445 45.7497 26.7473 46.1609 27.2143C45.9981 27.8682 45.7411 28.4795 45.3985 29.0485C44.7646 29.0909 44.165 29.3541 43.7281 29.7957C43.2741 30.2372 43.0085 30.8316 42.9657 31.46C42.3917 31.7996 41.775 32.0543 41.1154 32.2157C40.4044 31.5958 39.3593 31.443 38.477 31.7572C38.5112 31.6637 38.5369 31.5619 38.5369 31.4515V30.5259C38.8196 30.5684 39.1023 30.6023 39.3936 30.6023C42.229 30.6023 44.5333 28.3182 44.5333 25.5076C44.5333 22.697 42.229 20.4129 39.3936 20.4129C38.1172 20.4129 36.9265 20.8714 35.9928 21.6951C35.7615 21.4488 35.513 21.2111 35.2561 20.9903C35.5816 20.5827 35.7872 20.0817 35.8214 19.5553H35.83ZM17.1299 9.3743V11.9217H16.2732V9.3743C16.2732 5.16266 19.734 1.73221 23.9829 1.73221C28.2317 1.73221 31.6925 5.16266 31.6925 9.3743V12.0745L30.8359 12.2443V9.3743C30.8359 6.09669 28.1461 3.43045 24.8395 3.43045H23.1262C19.8197 3.43045 17.1299 6.09669 17.1299 9.3743ZM28.069 6.61466C26.2615 5.79101 24.0086 6.09669 22.3724 7.56567C21.2931 8.52518 19.8111 8.64406 18.9202 8.61858C19.28 6.64013 21.0275 5.13719 23.1262 5.13719H24.8395C26.133 5.13719 27.2809 5.72308 28.069 6.62315V6.61466ZM20.4022 16.2692C19.4599 15.8701 18.8431 14.9445 18.8431 13.9256V10.3083C18.9459 10.3083 19.0401 10.3168 19.1601 10.3168C20.3593 10.3168 22.124 10.0706 23.5203 8.82237C24.8909 7.59964 26.8697 7.51473 28.1118 8.62708C28.4459 8.92427 28.7885 9.28939 29.1226 9.68848V12.584L23.8115 13.6369L24.1456 15.3012L29.0884 14.3247C28.9513 15.1823 28.3859 15.921 27.5636 16.2692L24.9937 17.3645C24.3512 17.6363 23.6145 17.6363 22.972 17.3645L20.4022 16.2692ZM25.6961 18.9099V19.5638C25.6961 20.4978 24.9252 21.262 23.9829 21.262C23.0406 21.262 22.2696 20.4978 22.2696 19.5638V18.9099H22.2953C22.8264 19.1477 23.4089 19.2666 23.9829 19.2666C24.5568 19.2666 25.1307 19.1562 25.6704 18.9269H25.6961V18.9099ZM18.8431 20.4044H20.6677C21.0446 21.8649 22.3895 22.9518 23.9829 22.9518C25.5762 22.9518 26.9211 21.8649 27.298 20.4044H29.1226C33.3715 20.4044 36.8322 23.8348 36.8322 28.0465V30.5939H11.1335V28.0465C11.1335 23.8348 14.5943 20.4044 18.8431 20.4044ZM1.79627 23.7924C1.95903 23.1386 2.21601 22.5272 2.55866 21.9583C3.19257 21.9158 3.7922 21.6526 4.22908 21.2111C4.68309 20.7695 4.94865 20.1751 4.99148 19.5468C5.56542 19.2071 6.18219 18.9524 6.84179 18.7911C7.78408 19.6147 9.33457 19.6147 10.2769 18.7911C10.9365 18.9524 11.5532 19.2071 12.1272 19.5468C12.1614 20.0732 12.3585 20.5742 12.6925 20.9818C12.4356 21.2026 12.1871 21.4403 11.9558 21.6866C11.0307 20.8629 9.83141 20.4044 8.55504 20.4044C5.71961 20.4044 3.41529 22.6885 3.41529 25.4991C3.41529 28.3097 5.71961 30.5939 8.55504 30.5939C8.8463 30.5939 9.12898 30.5684 9.41167 30.5174V31.443C9.41167 31.5534 9.43737 31.6553 9.47163 31.7487C8.58931 31.443 7.54422 31.5958 6.83322 32.2072C6.17362 32.0459 5.55685 31.7911 4.98291 31.4515C4.94008 30.8231 4.67453 30.2287 4.22908 29.7957C3.78364 29.3456 3.184 29.0824 2.5501 29.04C2.20745 28.4711 1.95046 27.8597 1.7877 27.2059C2.19888 26.7388 2.43874 26.136 2.43874 25.4991C2.43874 24.8623 2.19888 24.2594 1.7877 23.7924H1.79627Z" fill="#ED484A"/>
</svg>
