<svg width="32" height="32" viewBox="0 0 32 32" fill="none" xmlns="http://www.w3.org/2000/svg">
<rect width="32" height="32" rx="16" fill="white"/>
<path d="M22.7683 13.2442L21.6228 12.2093C21.4683 12.0698 21.2752 12 21.0564 12C20.8376 12 20.6446 12.0698 20.4901 12.2093L14.9812 17.186L12.5228 14.9535C12.3683 14.814 12.1752 14.7442 11.9564 14.7442C11.7376 14.7442 11.5446 14.814 11.3901 14.9535L10.2446 15.9884C10.0772 16.1279 10 16.3023 10 16.5C10 16.6977 10.0772 16.8721 10.2317 17.0116L13.2693 19.7558L14.4149 20.7907C14.5693 20.9302 14.7624 21 14.9812 21C15.2 21 15.3931 20.9302 15.5475 20.7907L16.6931 19.7558L22.7683 14.2674C22.9228 14.1279 23 13.9535 23 13.7558C23 13.5581 22.9228 13.3837 22.7683 13.2442Z" fill="#ED484A"/>
</svg>
