<svg width="22" height="14" viewBox="0 0 22 14" fill="none" xmlns="http://www.w3.org/2000/svg">
<path d="M0.219822 12.0924L1.32195 13.1944C1.46881 13.3416 1.63798 13.4149 1.82923 13.4149C2.02003 13.4149 2.18912 13.3416 2.33598 13.1944L10.9999 4.53096L19.6634 13.1942C19.8103 13.3413 19.9794 13.4147 20.1705 13.4147C20.3616 13.4147 20.5307 13.3413 20.6775 13.1942L21.7795 12.092C21.9266 11.9452 22 11.7761 22 11.585C22 11.394 21.9264 11.2249 21.7795 11.0781L11.5069 0.805314C11.3601 0.658379 11.1909 0.584949 10.9999 0.58495C10.8089 0.58495 10.64 0.658379 10.4932 0.805314L0.219822 11.0781C0.0729635 11.225 -1.76664e-07 11.3941 -1.59978e-07 11.585C-1.43271e-07 11.7761 0.0729636 11.9452 0.219822 12.0924Z" fill="#ED484A"/>
</svg>
